<?xml version="1.0" encoding="UTF-8"?>
<svg width="36px" height="68px" viewBox="0 0 36 68" version="1.1" xmlns="http://www.w3.org/2000/svg" xmlns:xlink="http://www.w3.org/1999/xlink">
    <!-- Generator: Sketch 43.2 (39069) - http://www.bohemiancoding.com/sketch -->
    <title>Group 24</title>
    <desc>Created with Sketch.</desc>
    <defs>
        <polygon id="path-1" points="1.1782703e-15 30.1841775 1.1782703e-15 0.0002 27.7299995 0.0002 27.7299995 30.1841775 0 30.1841775"></polygon>
        <polygon id="path-3" points="4.85350232 16.4111172 0 16.4111172 15.6004003 40.2116767 9.71000434 24.0923296 15.6004003 23.5733828 0 0.000799917977"></polygon>
    </defs>
    <g id="Welcome" stroke="none" stroke-width="1" fill="none" fill-rule="evenodd">
        <g id="Desktop-HD-Copy-6" transform="translate(-831.000000, -777.000000)">
            <g id="Group-19" transform="translate(357.000000, 789.000000)">
                <g id="Group-18-Copy-3" transform="translate(480.000000, 0.000000)">
                    <g id="Group-24">
                        <g id="Page-1" transform="translate(0.000000, 24.000000)">
                            <mask id="mask-2" fill="white">
                                <use xlink:href="#path-1"></use>
                            </mask>
                            <use id="Clip-2" stroke="#FFFFFF" stroke-width="3" xlink:href="#path-1"></use>
                        </g>
                        <g id="Page-1">
                            <use fill="#62A7D6" fill-rule="evenodd" xlink:href="#path-3"></use>
                            <path stroke="#000000" stroke-width="2" d="M3.51492315,15.4111172 L0,15.4111172 L-1.85113601,15.4111172 L-0.836349477,16.9593138 L14.7640509,40.7598733 L19.5129129,48.0049165 L16.5396533,39.8684511 L11.0968708,24.9740193 L15.6881609,24.5695244 L17.3612586,24.4221237 L16.4343179,23.0214938 L0.833917602,-0.55108905 L-2.85431473,-6.12409746 L-0.958938285,0.284414738 L3.51492315,15.4111172 Z"></path>
                        </g>
                    </g>
                </g>
            </g>
        </g>
    </g>
</svg>