<?xml version="1.0" encoding="iso-8859-1"?>
<!-- Generator: Adobe Illustrator 19.0.0, SVG Export Plug-In . SVG Version: 6.00 Build 0)  -->
<svg xmlns="http://www.w3.org/2000/svg" xmlns:xlink="http://www.w3.org/1999/xlink" version="1.1" id="Layer_1" x="0px" y="0px" viewBox="0 0 206.916 206.916" style="enable-background:new 0 0 206.916 206.916;" xml:space="preserve" width="512px" height="512px">
<g>
	<g>
		<g>
			<path d="M181.052,199.526v-0.001V59.119c0-2.04-1.655-3.695-3.695-3.695h-18.475V11.085c0-1.656-1.101-3.109-2.695-3.558     C155.094,7.22,129.118,0,103.459,0S51.823,7.22,50.729,7.527c-1.595,0.449-2.695,1.902-2.695,3.558v44.339H29.56     c-2.04,0-3.695,1.655-3.695,3.695v140.407h-14.78v7.39H29.56h147.797h18.475v-7.39H181.052z M55.425,59.119v-45.18     c7.267-1.822,28.058-6.549,48.034-6.549s40.767,4.727,48.034,6.549v45.18v40.644H55.425V59.119z M121.933,155.186v22.169v18.475     H84.984v-44.339h36.949V155.186z M173.662,199.526h-44.34v-0.001V181.05h14.78c2.04,0,3.695-1.655,3.695-3.695v-22.169     c0-2.04-1.655-3.695-3.695-3.695h-14.78v-3.695c0-2.04-1.655-3.695-3.695-3.695H81.289c-2.04,0-3.695,1.655-3.695,3.695v51.729     H33.255V62.814h14.78v40.644c0,2.04,1.655,3.695,3.695,3.695h103.458c2.04,0,3.695-1.655,3.695-3.695V62.814h14.78V199.526z      M129.323,173.661v-14.78h11.085v14.78H129.323z" fill="#FFFFFF"/>
			<rect x="88.678" y="110.847" width="29.559" height="7.39" fill="#FFFFFF"/>
			<path d="M122.85,33.116c-9.227-8.018-25.433-4.539-36.125,7.765c-10.691,12.3-11.885,28.834-2.66,36.853     c3.323,2.886,7.556,4.375,12.266,4.375c1.882,0,3.841-0.238,5.847-0.718c6.581-1.575,12.977-5.633,18.011-11.422     c5.034-5.79,8.16-12.689,8.804-19.425C129.682,43.347,127.5,37.157,122.85,33.116z M121.638,49.84     c-0.5,5.216-2.995,10.643-7.027,15.281c-4.03,4.637-9.057,7.862-14.154,9.084c-4.646,1.111-8.743,0.386-11.543-2.05     c-6.045-5.255-4.493-17.357,3.391-26.427c5.308-6.109,12.38-9.564,18.278-9.564c2.016,0,3.879,0.428,5.504,1.267     c-4.378,3.082-11.284,8.525-16.432,15.337c-1.23,1.629-0.907,3.946,0.72,5.176c0.668,0.503,1.449,0.747,2.225,0.747     c1.12,0,2.225-0.505,2.951-1.467c4.753-6.291,11.446-11.426,15.347-14.132C121.599,45.054,121.878,47.323,121.638,49.84z" fill="#FFFFFF"/>
		</g>
	</g>
</g>
<g>
</g>
<g>
</g>
<g>
</g>
<g>
</g>
<g>
</g>
<g>
</g>
<g>
</g>
<g>
</g>
<g>
</g>
<g>
</g>
<g>
</g>
<g>
</g>
<g>
</g>
<g>
</g>
<g>
</g>
</svg>
