<?xml version="1.0" encoding="iso-8859-1"?>
<svg xmlns="http://www.w3.org/2000/svg" xmlns:xlink="http://www.w3.org/1999/xlink" version="1.1" viewBox="0 0 85.296 85.296" enable-background="new 0 0 85.296 85.296" width="512px" height="512px">
  <g>
    <path d="m29.997,72.026c-2.388,0-4.331,1.943-4.331,4.332 0,2.388 1.943,4.331 4.331,4.331 2.388,0 4.331-1.943 4.331-4.331 0-2.388-1.943-4.332-4.331-4.332zm0,6.663c-1.285,0-2.331-1.046-2.331-2.331 0-1.286 1.045-2.332 2.331-2.332s2.331,1.046 2.331,2.332c0,1.285-1.046,2.331-2.331,2.331z" fill="#FFFFFF"/>
    <path d="m63.971,60.826c0-1.575-1.065-2.934-2.62-3.657l-1.434-18.481c0-3.038-2.472-5.509-5.509-5.509h-4.67c0.062-0.13 0.103-0.271 0.103-0.424v-2.261c0.011-0.03 0.03-0.055 0.038-0.087l5.971-24.324c0.03-0.067 0.038-0.142 0.053-0.215l1.136-4.629c0.073-0.298 0.005-0.614-0.184-0.855-0.191-0.243-0.481-0.384-0.788-0.384h-29.568c-0.312,0-0.605,0.146-0.795,0.393-0.189,0.248-0.252,0.569-0.17,0.87l7.854,28.796v2.695c0,0.153 0.041,0.294 0.103,0.424h-4.269c-3.039,0-5.511,2.471-5.509,5.451l-2.388,41.155c0,3.039 2.472,5.511 5.51,5.511h30.755c2.989,0 5.425-2.396 5.501-5.368 0.554-0.674 0.879-1.486 0.879-2.36v-16.741zm-16.129-29.657v0.586h-12.453v-0.586h12.453zm.331-2.198h-13.008l-6.081-22.297h24.561l-5.472,22.297zm6.62-26.971l-.656,2.674h-25.598l-.73-2.674h26.984zm4.079,77.779h-12.594c-1.68,0-3.099-1.013-3.099-2.211v-5.928h18.793v5.928c0,1.199-1.419,2.211-3.1,2.211zm3.1-10.139h-18.793v-2.673h18.793v2.673zm-20.793-8.814v16.742c0,0.814 0.294,1.569 0.781,2.214h-1.068v-22.461h2.566c-1.372,0.756-2.279,2.043-2.279,3.505zm20.793,0v4.141h-18.793v-4.141c0-1.199 1.419-2.211 3.099-2.211h12.595c1.68-0.001 3.099,1.012 3.099,2.211zm-32.749-25.647h25.187c1.929,0 3.498,1.566 3.51,3.568h-32.146c-0.023,0-0.043,0.012-0.066,0.013l.004-.073c-3.55271e-15-1.933 1.575-3.508 3.511-3.508zm28.369,48.117h-30.756c-1.936,0-3.51-1.575-3.512-3.453l2.271-39.132c0.06,0.011 0.115,0.036 0.179,0.036h32.301l1.129,14.574h-19.312c-0.552,0-1,0.448-1,1v24.461c0,0.552 0.448,1 1,1h20.579c-0.634,0.913-1.687,1.514-2.879,1.514z" fill="#FFFFFF"/>
    <path d="m43.704,14.437l.11-.091c0.16-1.23-0.95-2.4-2.49-2.62-1.5-0.21-2.87,0.55-3.1,1.73 2.9-1.18 3.224,2.348 5.48,0.981z" fill="#FFFFFF"/>
    <path d="m38.36,14.14l-.121,.087c-0.16,1.229 0.95,2.399 2.49,2.62 1.5,0.21 2.87-0.551 3.1-1.731-2.546,1.371-3.057-2.056-5.469-0.976z" fill="#FFFFFF"/>
    <path d="m42.72,21.291c1.216-2.885 3.939-0.62 4.568-3.181l.014-.142c-0.756-0.983-2.369-1.025-3.614-0.092-1.208,0.912-1.639,2.418-0.968,3.415z" fill="#FFFFFF"/>
    <path d="m47.858,18.502c-0.831,2.768-3.616,0.706-4.558,3.176l-.024,.147c0.756,0.983 2.369,1.025 3.614,0.092 1.209-0.912 1.64-2.418 0.968-3.415z" fill="#FFFFFF"/>
    <path d="m38.868,21.246l.142,.014c0.983-0.756 1.025-2.369 0.092-3.614-0.912-1.209-2.418-1.64-3.415-0.968 2.885,1.216 0.62,3.939 3.181,4.568z" fill="#FFFFFF"/>
    <path d="m35.3,17.257l-.147-.024c-0.983,0.756-1.025,2.369-0.092,3.614 0.912,1.209 2.418,1.64 3.415,0.968-2.768-0.831-0.707-3.616-3.176-4.558z" fill="#FFFFFF"/>
    <path d="m43.704,25.626l.11-.091c0.16-1.23-0.95-2.4-2.49-2.62-1.5-0.21-2.869,0.55-3.1,1.73 2.9-1.18 3.224,2.348 5.48,0.981z" fill="#FFFFFF"/>
    <path d="m38.36,25.329l-.121,.087c-0.16,1.23 0.95,2.399 2.491,2.62 1.5,0.21 2.869-0.551 3.099-1.73-2.545,1.37-3.057-2.057-5.469-0.977z" fill="#FFFFFF"/>
    <circle cx="44.963" cy="73.722" r="1.243" fill="#FFFFFF"/>
    <circle cx="44.564" cy="77.402" r="1.243" fill="#FFFFFF"/>
    <circle cx="47.548" cy="78.396" r="1.243" fill="#FFFFFF"/>
    <circle cx="47.348" cy="75.711" r="1.243" fill="#FFFFFF"/>
    <circle cx="51.028" cy="78.297" r="1.243" fill="#FFFFFF"/>
    <circle cx="50.63" cy="75.214" r="1.243" fill="#FFFFFF"/>
    <circle cx="55.304" cy="78.198" r="1.243" fill="#FFFFFF"/>
    <circle cx="53.514" cy="76.009" r="1.243" fill="#FFFFFF"/>
    <circle cx="55.404" cy="73.425" r="1.243" fill="#FFFFFF"/>
    <circle cx="52.718" cy="73.225" r="1.243" fill="#FFFFFF"/>
    <circle cx="58.884" cy="73.325" r="1.243" fill="#FFFFFF"/>
    <circle cx="57.094" cy="75.712" r="1.243" fill="#FFFFFF"/>
    <circle cx="58.287" cy="78.297" r="1.243" fill="#FFFFFF"/>
    <circle cx="60.674" cy="75.911" r="1.243" fill="#FFFFFF"/>
  </g>
</svg>
