<?xml version="1.0" encoding="utf-8"?>
<!-- Generator: Adobe Illustrator 21.0.0, SVG Export Plug-In . SVG Version: 6.00 Build 0)  -->
<!DOCTYPE svg PUBLIC "-//W3C//DTD SVG 1.1//EN" "http://www.w3.org/Graphics/SVG/1.1/DTD/svg11.dtd">
<svg version="1.1" id="Layer_1" xmlns="http://www.w3.org/2000/svg" xmlns:xlink="http://www.w3.org/1999/xlink" x="0px" y="0px"
	 viewBox="0 0 1841.5 1270" style="enable-background:new 0 0 1841.5 1270;" xml:space="preserve">
<style type="text/css">
	.st0{fill:#FFFFFF;}
	.st1{display:none;}
	.st2{fill:#FCC144;}
	.st3{fill:#FFD247;}
	.st4{fill:none;stroke:#000000;stroke-width:26;stroke-miterlimit:10;}
	.st5{fill:#F78F43;}
	.st6{fill:#F89B44;}
	.st7{font-family:'Montserrat-Bold';}
	.st8{font-size:18px;}
	.st9{fill:#3D803D;}
	.st10{fill:#4AA146;}
	.st11{fill:#402722;}
	.st12{fill:#23201F;}
	.st13{fill:#D8C8A9;}
	.st14{font-size:17px;}
	.st15{fill:#F4661E;}
	.st16{fill:#E7ECED;}
	.st17{fill:#7F868A;}
	.st18{fill:#AFB6BB;}
	.st19{fill:#181818;}
	.st20{fill:#69CDEA;}
	.st21{fill:#5BBCE3;}
	.st22{font-size:22px;}
	.st23{fill:#8AD7F8;}
	.st24{fill:#55C0EB;}
	.st25{font-family:'ArialRoundedMTBold';}
	.st26{font-size:38px;}
	.st27{font-size:28px;}
	.st28{fill:#D2D5D7;}
	.st29{fill:#88C057;}
	.st30{fill:#ED3F32;}
	.st31{fill:#573829;}
	.st32{fill:#87583F;}
	.st33{font-size:19px;}
	.st34{fill:#A78966;}
	.st35{fill:#317F46;}
	.st36{fill:#A7A9AC;}
	.st37{fill:#3C92CA;}
	.st38{font-size:20px;}
	.st39{fill:#1A9172;}
	.st40{fill:#BF4F28;}
	.st41{fill:#871B00;}
	.st42{fill:#2EE6C7;}
	.st43{fill:#29CCB1;}
	.st44{fill:#B8ECF1;}
	.st45{fill:#AEDDE2;}
</style>
<g>
	<polygon id="path-3_1_" class="st0" points="864.5,746.8 871,746.8 871,790.7 841.9,790.7 841.9,746.8 864.5,746.8 841.9,746.8 
		841.9,775.8 864.5,775.8 	"/>
</g>
<g id="_x37_gXFX3.tif" class="st1">
	
		<image style="display:inline;overflow:visible;enable-background:new    ;" width="758" height="475" id="Layer_0_1_" xlink:href="B7048D144C402EB7.png"  transform="matrix(2.6657 0 0 2.665 -10.3764 0)">
	</image>
</g>
<g>
	<polygon class="st2" points="1442.1,596.6 1537.9,541.6 1537.9,430.6 1442.1,375 1344,430.6 1344,541.6 	"/>
	<path class="st3" d="M1511.7,556.6l26.2-15.1v-111l-95.8-55.6l-47.9,27.2c0,0,3.1,37.3,40.8,88.6
		C1472.4,541.7,1511.7,556.6,1511.7,556.6z"/>
	<polygon class="st4" points="1412.7,391.4 1441.7,374.5 1537.9,430.5 1537.9,541.9 1440.6,597.3 1343.9,541.9 1343.9,430.5 
		1385.2,406.9 	"/>
</g>
<g>
	<polygon class="st5" points="656.6,597.5 752.4,542.5 752.4,431.5 656.6,375.9 558.5,431.5 558.5,542.5 	"/>
	<path class="st6" d="M726.2,557.6l26.2-15.1v-111l-95.8-55.6l-47.9,27.2c0,0,3.1,37.3,40.8,88.6C687,542.6,726.2,557.6,726.2,557.6
		z"/>
	<polygon class="st4" points="627.3,392.3 656.2,375.5 752.5,431.5 752.5,542.8 655.1,598.3 558.5,542.8 558.5,431.5 599.7,407.9 	
		"/>
</g>
<g>
	<polygon class="st2" points="72.1,916.6 167.9,861.6 167.9,750.6 72.1,695 -26,750.6 -26,861.6 	"/>
	<path class="st3" d="M141.7,876.6l26.2-15.1v-111L72.1,695l-47.9,27.2c0,0,3.1,37.3,40.8,88.6C102.4,861.7,141.7,876.6,141.7,876.6
		z"/>
	<polygon class="st4" points="42.7,711.4 71.7,694.5 167.9,750.5 167.9,861.9 70.6,917.3 -26.1,861.9 -26.1,750.5 15.2,726.9 	"/>
</g>
<g>
	<polygon class="st2" points="-126.4,915.6 -30.6,860.5 -30.6,749.5 -126.4,693.9 -224.5,749.5 -224.5,860.5 	"/>
	<path class="st3" d="M-56.8,875.6l26.2-15.1v-111l-95.8-55.6l-47.9,27.2c0,0,3.1,37.3,40.8,88.6C-96.1,860.6-56.8,875.6-56.8,875.6
		z"/>
	<polygon class="st4" points="-155.8,710.3 -126.8,693.5 -30.6,749.5 -30.6,860.9 -127.9,916.3 -224.6,860.9 -224.6,749.5 
		-183.3,725.9 	"/>
</g>
<g>
	<polygon class="st2" points="1643.6,595.6 1739.4,540.5 1739.4,429.5 1643.6,373.9 1545.5,429.5 1545.5,540.5 	"/>
	<path class="st3" d="M1713.2,555.6l26.2-15.1v-111l-95.8-55.6l-47.9,27.2c0,0,3.1,37.3,40.8,88.6
		C1673.9,540.6,1713.2,555.6,1713.2,555.6z"/>
	<polygon class="st4" points="1614.2,390.3 1643.2,373.5 1739.4,429.5 1739.4,540.9 1642.1,596.3 1545.4,540.9 1545.4,429.5 
		1586.7,405.9 	"/>
</g>
<g>
	<polygon class="st2" points="1743.6,425.6 1839.4,370.5 1839.4,259.5 1743.6,203.9 1645.5,259.5 1645.5,370.5 	"/>
	<path class="st3" d="M1813.2,385.6l26.2-15.1v-111l-95.8-55.6l-47.9,27.2c0,0,3.1,37.3,40.8,88.6
		C1773.9,370.6,1813.2,385.6,1813.2,385.6z"/>
	<polygon class="st4" points="1714.2,220.3 1743.2,203.5 1839.4,259.5 1839.4,370.9 1742.1,426.3 1645.4,370.9 1645.4,259.5 
		1686.7,235.9 	"/>
</g>
<g>
	<polygon class="st5" points="1545.6,757.1 1641.4,702.1 1641.4,591.1 1545.6,535.5 1447.5,591.1 1447.5,702.1 	"/>
	<path class="st6" d="M1615.2,717.2l26.2-15.1v-111l-95.8-55.6l-47.9,27.2c0,0,3.1,37.3,40.8,88.6
		C1576,702.2,1615.2,717.2,1615.2,717.2z"/>
	<polygon class="st4" points="1516.3,551.9 1545.2,535 1641.5,591.1 1641.5,702.4 1544.1,757.8 1447.5,702.4 1447.5,591.1 
		1488.7,567.5 	"/>
</g>
<g>
	<polygon class="st5" points="1745.6,757.1 1841.4,702.1 1841.4,591.1 1745.6,535.5 1647.5,591.1 1647.5,702.1 	"/>
	<path class="st6" d="M1815.2,717.2l26.2-15.1v-111l-95.8-55.6l-47.9,27.2c0,0,3.1,37.3,40.8,88.6
		C1776,702.2,1815.2,717.2,1815.2,717.2z"/>
	<polygon class="st4" points="1716.3,551.9 1745.2,535 1841.5,591.1 1841.5,702.4 1744.1,757.8 1647.5,702.4 1647.5,591.1 
		1688.7,567.5 	"/>
</g>
<g>
	<polygon class="st5" points="1146.6,426.1 1242.4,371.1 1242.4,260.1 1146.6,204.5 1048.5,260.1 1048.5,371.1 	"/>
	<path class="st6" d="M1216.2,386.2l26.2-15.1v-111l-95.8-55.6l-47.9,27.2c0,0,3.1,37.3,40.8,88.6
		C1177,371.2,1216.2,386.2,1216.2,386.2z"/>
	<polygon class="st4" points="1117.3,220.9 1146.2,204 1242.5,260.1 1242.5,371.4 1145.1,426.8 1048.5,371.4 1048.5,260.1 
		1089.7,236.5 	"/>
</g>
<g>
	<polygon class="st2" points="1833.6,595.6 1929.4,540.5 1929.4,429.5 1833.6,373.9 1735.5,429.5 1735.5,540.5 	"/>
	<path class="st3" d="M1903.2,555.6l26.2-15.1v-111l-95.8-55.6l-47.9,27.2c0,0,3.1,37.3,40.8,88.6
		C1863.9,540.6,1903.2,555.6,1903.2,555.6z"/>
	<polygon class="st4" points="1804.2,390.3 1833.2,373.5 1929.4,429.5 1929.4,540.9 1832.1,596.3 1735.4,540.9 1735.4,429.5 
		1776.7,405.9 	"/>
</g>
<g>
	<polygon class="st5" points="1836.6,266.1 1932.4,211.1 1932.4,100.1 1836.6,44.5 1738.5,100.1 1738.5,211.1 	"/>
	<path class="st6" d="M1906.2,226.2l26.2-15.1v-111l-95.8-55.6l-47.9,27.2c0,0,3.1,37.3,40.8,88.6
		C1867,211.2,1906.2,226.2,1906.2,226.2z"/>
	<polygon class="st4" points="1807.3,60.9 1836.2,44 1932.5,100.1 1932.5,211.4 1835.1,266.8 1738.5,211.4 1738.5,100.1 
		1779.7,76.5 	"/>
</g>
<g>
	<polygon class="st2" points="1644.6,265.6 1740.4,210.5 1740.4,99.5 1644.6,43.9 1546.5,99.5 1546.5,210.5 	"/>
	<path class="st3" d="M1714.2,225.6l26.2-15.1v-111l-95.8-55.6l-47.9,27.2c0,0,3.1,37.3,40.8,88.6
		C1674.9,210.6,1714.2,225.6,1714.2,225.6z"/>
	<polygon class="st4" points="1615.2,60.3 1644.2,43.5 1740.4,99.5 1740.4,210.9 1643.1,266.3 1546.4,210.9 1546.4,99.5 
		1587.7,75.9 	"/>
</g>
<g>
	<polygon class="st5" points="1543.6,426.1 1639.4,371.1 1639.4,260.1 1543.6,204.5 1445.5,260.1 1445.5,371.1 	"/>
	<path class="st6" d="M1613.2,386.2l26.2-15.1v-111l-95.8-55.6l-47.9,27.2c0,0,3.1,37.3,40.8,88.6
		C1574,371.2,1613.2,386.2,1613.2,386.2z"/>
	<polygon class="st4" points="1514.3,220.9 1543.2,204 1639.5,260.1 1639.5,371.4 1542.1,426.8 1445.5,371.4 1445.5,260.1 
		1486.7,236.5 	"/>
</g>
<g>
	<polygon class="st2" points="-22.4,745.6 73.4,690.5 73.4,579.5 -22.4,523.9 -120.5,579.5 -120.5,690.5 	"/>
	<path class="st3" d="M47.2,705.6l26.2-15.1v-111l-95.8-55.6l-47.9,27.2c0,0,3.1,37.3,40.8,88.6C7.9,690.6,47.2,705.6,47.2,705.6z"
		/>
	<polygon class="st4" points="-51.8,540.3 -22.8,523.5 73.4,579.5 73.4,690.9 -23.9,746.3 -120.6,690.9 -120.6,579.5 -79.3,555.9 	
		"/>
</g>
<g>
	<polygon class="st2" points="-24.4,1085.6 71.4,1030.5 71.4,919.5 -24.4,863.9 -122.5,919.5 -122.5,1030.5 	"/>
	<path class="st3" d="M45.2,1045.6l26.2-15.1v-111l-95.8-55.6l-47.9,27.2c0,0,3.1,37.3,40.8,88.6
		C5.9,1030.6,45.2,1045.6,45.2,1045.6z"/>
	<polygon class="st4" points="-53.8,880.3 -24.8,863.5 71.4,919.5 71.4,1030.9 -25.9,1086.3 -122.6,1030.9 -122.6,919.5 
		-81.3,895.9 	"/>
</g>
<g id="stevia_1_">
	<polygon class="st2" points="562.1,757.6 657.9,702.6 657.9,591.6 562.1,536 464,591.6 464,702.6 	"/>
	<path class="st3" d="M631.7,717.6l26.2-15.1v-111L562.1,536l-47.9,27.2c0,0,3.1,37.3,40.8,88.6
		C592.4,702.7,631.7,717.6,631.7,717.6z"/>
	<polygon class="st4" points="532.7,552.4 561.7,535.5 657.9,591.5 657.9,702.9 560.6,758.3 463.9,702.9 463.9,591.5 505.2,567.9 	
		"/>
	<text transform="matrix(1.0465 0 0 1 497.2412 664.6504)" class="st7 st8">SUGAR-FREE</text>
	<text transform="matrix(1.0465 0 0 1 491.9043 686.25)" class="st7 st8">STEVIA PLANT</text>
	<g>
		<path class="st9" d="M568.6,580c0,0,4.7,11.4-15.3,19.1c-10.9,4.2-19.2,14.8-9.2,31.3c0.8-7.4,4.4-23.6,19.6-27.3
			c0,0-14.2,5.3-15.4,29.3c7.3,1,24.3,1.7,29.4-13.1C584.3,599.7,568.6,580,568.6,580z"/>
		<path class="st10" d="M548.2,632.3c15.4-6.2,26.7-20.6,28.2-37.8c-3.2-8.5-7.8-14.4-7.8-14.4s4.7,11.4-15.3,19.1
			c-10.9,4.2-19.2,14.8-9.2,31.3c0.8-7.4,4.4-23.6,19.6-27.3C563.6,603.1,549.5,608.4,548.2,632.3z"/>
		<circle class="st9" cx="542.5" cy="598.1" r="1.4"/>
		<g>
			<circle class="st10" cx="547" cy="596.6" r="1"/>
			<circle class="st10" cx="546.1" cy="586.8" r="2.6"/>
			<circle class="st10" cx="554" cy="592.7" r="0.8"/>
			<circle class="st10" cx="561" cy="588" r="2.4"/>
		</g>
	</g>
</g>
<g id="coconut">
	<polygon class="st5" points="856.6,916.1 952.4,861.1 952.4,750.1 856.6,694.5 758.5,750.1 758.5,861.1 	"/>
	<path class="st6" d="M926.2,876.2l26.2-15.1v-111l-95.8-55.6l-47.9,27.2c0,0,3.1,37.3,40.8,88.6C887,861.2,926.2,876.2,926.2,876.2
		z"/>
	<polygon class="st4" points="827.3,710.9 856.2,694 952.5,750.1 952.5,861.4 855.1,916.8 758.5,861.4 758.5,750.1 799.7,726.5 	"/>
	<g id="COCUNUT_MILK">
		<path d="M808.9,819.6c-0.3-0.4-0.8-0.7-1.2-0.9c-0.5-0.2-1.1-0.3-1.7-0.3s-1.2,0.1-1.8,0.4c-0.5,0.2-1,0.6-1.4,1s-0.7,1-0.9,1.6
			s-0.3,1.3-0.3,2s0.1,1.4,0.3,2s0.5,1.1,0.9,1.6c0.4,0.4,0.9,0.8,1.4,1s1.1,0.4,1.7,0.4c0.7,0,1.3-0.1,1.9-0.4
			c0.5-0.3,1-0.7,1.3-1.2l2.9,2.1c-0.7,0.9-1.5,1.6-2.5,2s-2.1,0.7-3.1,0.7c-1.2,0-2.3-0.2-3.4-0.6c-1-0.4-1.9-0.9-2.7-1.6
			c-0.7-0.7-1.3-1.6-1.7-2.6s-0.6-2.1-0.6-3.4c0-1.2,0.2-2.4,0.6-3.4c0.4-1,1-1.9,1.7-2.6c0.7-0.7,1.6-1.3,2.7-1.6
			c1-0.4,2.1-0.6,3.4-0.6c0.4,0,0.9,0,1.4,0.1s0.9,0.2,1.4,0.4s0.9,0.4,1.3,0.7c0.4,0.3,0.8,0.7,1.1,1.1L808.9,819.6z"/>
		<path d="M812.9,823.4c0-1.2,0.2-2.4,0.6-3.4c0.4-1,1-1.9,1.7-2.6c0.7-0.7,1.6-1.3,2.7-1.6c1-0.4,2.1-0.6,3.4-0.6s2.3,0.2,3.4,0.6
			c1,0.4,1.9,0.9,2.7,1.6c0.7,0.7,1.3,1.6,1.7,2.6s0.6,2.1,0.6,3.4c0,1.2-0.2,2.4-0.6,3.4c-0.4,1-1,1.9-1.7,2.6
			c-0.7,0.7-1.6,1.3-2.7,1.6c-1,0.4-2.1,0.6-3.4,0.6s-2.3-0.2-3.4-0.6c-1-0.4-1.9-0.9-2.7-1.6c-0.7-0.7-1.3-1.6-1.7-2.6
			C813.2,825.8,812.9,824.6,812.9,823.4z M816.5,823.4c0,0.7,0.1,1.4,0.3,2s0.6,1.1,1,1.6c0.4,0.4,0.9,0.8,1.5,1s1.3,0.4,2,0.4
			s1.4-0.1,2-0.4c0.6-0.2,1.1-0.6,1.5-1s0.8-1,1-1.6s0.3-1.3,0.3-2s-0.1-1.4-0.3-2s-0.6-1.1-1-1.6s-0.9-0.8-1.5-1s-1.3-0.4-2-0.4
			s-1.4,0.1-2,0.4c-0.6,0.2-1.1,0.6-1.5,1s-0.8,1-1,1.6S816.5,822.7,816.5,823.4z"/>
		<path d="M842.3,819.6c-0.3-0.4-0.8-0.7-1.2-0.9c-0.5-0.2-1.1-0.3-1.7-0.3s-1.2,0.1-1.8,0.4c-0.5,0.2-1,0.6-1.4,1s-0.7,1-0.9,1.6
			s-0.3,1.3-0.3,2s0.1,1.4,0.3,2s0.5,1.1,0.9,1.6c0.4,0.4,0.9,0.8,1.4,1s1.1,0.4,1.7,0.4c0.7,0,1.3-0.1,1.9-0.4
			c0.5-0.3,1-0.7,1.3-1.2l2.9,2.1c-0.7,0.9-1.5,1.6-2.5,2s-2.1,0.7-3.1,0.7c-1.2,0-2.3-0.2-3.4-0.6c-1-0.4-1.9-0.9-2.7-1.6
			c-0.7-0.7-1.3-1.6-1.7-2.6s-0.6-2.1-0.6-3.4c0-1.2,0.2-2.4,0.6-3.4c0.4-1,1-1.9,1.7-2.6c0.7-0.7,1.6-1.3,2.7-1.6
			c1-0.4,2.1-0.6,3.4-0.6c0.4,0,0.9,0,1.4,0.1s0.9,0.2,1.4,0.4s0.9,0.4,1.3,0.7c0.4,0.3,0.8,0.7,1.1,1.1L842.3,819.6z"/>
		<path d="M846.3,823.4c0-1.2,0.2-2.4,0.6-3.4c0.4-1,1-1.9,1.7-2.6c0.7-0.7,1.6-1.3,2.7-1.6c1-0.4,2.1-0.6,3.4-0.6s2.3,0.2,3.4,0.6
			c1,0.4,1.9,0.9,2.7,1.6c0.7,0.7,1.3,1.6,1.7,2.6s0.6,2.1,0.6,3.4c0,1.2-0.2,2.4-0.6,3.4c-0.4,1-1,1.9-1.7,2.6
			c-0.7,0.7-1.6,1.3-2.7,1.6c-1,0.4-2.1,0.6-3.4,0.6s-2.3-0.2-3.4-0.6c-1-0.4-1.9-0.9-2.7-1.6c-0.7-0.7-1.3-1.6-1.7-2.6
			C846.5,825.8,846.3,824.6,846.3,823.4z M849.9,823.4c0,0.7,0.1,1.4,0.3,2s0.6,1.1,1,1.6c0.4,0.4,0.9,0.8,1.5,1s1.3,0.4,2,0.4
			s1.4-0.1,2-0.4c0.6-0.2,1.1-0.6,1.5-1s0.8-1,1-1.6s0.3-1.3,0.3-2s-0.1-1.4-0.3-2s-0.6-1.1-1-1.6s-0.9-0.8-1.5-1s-1.3-0.4-2-0.4
			s-1.4,0.1-2,0.4c-0.6,0.2-1.1,0.6-1.5,1s-0.8,1-1,1.6S849.9,822.7,849.9,823.4z"/>
		<path d="M865.5,815.6h4.7l6.6,10.8l0,0v-10.8h3.4v15.6h-4.5l-6.8-11.1l0,0v11.1h-3.4V815.6z"/>
		<path d="M896.5,825.2c0,0.9-0.1,1.8-0.4,2.6s-0.7,1.5-1.2,2c-0.6,0.6-1.2,1-2.1,1.3c-0.8,0.3-1.8,0.5-2.8,0.5
			c-1.1,0-2-0.2-2.9-0.5s-1.5-0.8-2.1-1.3c-0.6-0.6-1-1.2-1.2-2c-0.3-0.8-0.4-1.6-0.4-2.6v-9.6h3.4v9.4c0,0.5,0.1,0.9,0.2,1.3
			c0.2,0.4,0.4,0.8,0.6,1.1c0.3,0.3,0.6,0.5,1,0.7s0.8,0.3,1.3,0.3s0.9-0.1,1.3-0.3c0.4-0.2,0.7-0.4,1-0.7s0.5-0.7,0.6-1.1
			c0.2-0.4,0.2-0.9,0.2-1.3v-9.4h3.4v9.6H896.5z"/>
		<path d="M902.7,818.6h-4.4v-3h12.3v3h-4.4v12.5h-3.4L902.7,818.6L902.7,818.6z"/>
		<path d="M828,842h5.2l3.6,10.2l0,0l3.6-10.2h5.2v15.6h-3.4v-11.9l0,0l-4.1,11.9h-2.6l-3.9-11.9l0,0v11.9H828V842z"/>
		<path d="M848.7,842h3.4v15.6h-3.4V842z"/>
		<path d="M855.4,842h3.4v12.4h6.4v3.2h-9.8L855.4,842L855.4,842z"/>
		<path d="M867.2,842h3.4v6.5l6.1-6.5h4.5l-6.9,7.2l7.5,8.3H877l-6.3-7.4v7.4h-3.4L867.2,842L867.2,842z"/>
	</g>
	<g id="Page-1" transform="translate(600.000000, 1097.000000)">
		<path id="Fill-1_1_" class="st11" d="M259.9-349.3c-1.2-0.4-2.3-0.7-3.5-0.8c0.7,0.1,1.4,0.2,2.1,0.5c5.5,2.1,7.6,10.1,4.7,17.8
			c-2.9,7.7-9.8,12.2-15.3,10.1c-0.6-0.2-1.2-0.6-1.8-1c0.9,0.7,1.9,1.2,3,1.7c7.4,2.9,17.7,1.1,20.9-8.2
			C273.4-338.7,267.3-346.5,259.9-349.3"/>
		<path id="Fill-3" class="st11" d="M256.4-350.1L256.4-350.1L256.4-350.1"/>
		<path id="Fill-5" class="st11" d="M246.1-322.7c-0.1-0.1-0.2-0.2-0.3-0.3C245.9-322.9,246-322.8,246.1-322.7"/>
		<g id="Group-9" transform="translate(0.000000, 0.114207)">
			<g id="Clip-8">
			</g>
			<path id="Fill-7" class="st12" d="M263.2-332c2.9-7.7,0.8-15.7-4.7-17.8c-0.7-0.3-1.4-0.4-2.1-0.5l0,0c-5-0.4-10.6,3.9-13.1,10.6
				c-2.5,6.6-1.3,13.4,2.6,16.5c0.1,0.1,0.2,0.2,0.3,0.3c0.5,0.4,1.1,0.7,1.8,1C253.4-319.7,260.3-324.3,263.2-332"/>
		</g>
		<path id="Fill-10" class="st0" d="M244.6-339c-2.5,6.6-0.7,13.5,4,15.3s10.6-2.1,13.1-8.7s0.7-13.5-4-15.3S247.1-345.6,244.6-339"
			/>
		<path id="Fill-12" class="st13" d="M246-338.5c-2.1,5.5-0.6,11.2,3.4,12.8c4,1.5,8.9-1.7,11-7.2s0.6-11.2-3.4-12.8
			C253-347.2,248.1-344,246-338.5"/>
		<path id="Fill-14" class="st0" d="M254.4-324.1c-1.1,1.6-1.7,4.9-1.6,6.9c0,0.5,0.3,1,0.4,1.4c0.1,0.4,0.3,0.8,0.4,1.2
			c0.2,0.8-0.3,1.5-1.1,1.7c-0.7,0.1-1.5-0.4-1.5-1.2c0-0.3,0.1-0.5,0.1-0.8c0.2-0.7,0.6-1.4,0.8-2.2c0.3-1.2,0.3-2.5-0.2-3.7
			c-0.1-0.2-0.2-0.5-0.4-0.7c-0.4-0.5-1-0.4-1.4,0.1c-0.4,0.6-0.6,1.3-0.7,2c-0.4,2.2-0.6,4.4,0,6.5c0.2,0.9,0.7,1.8,1,2.7
			c0.2,0.6,0.5,1.2,0.4,1.9c-0.2,1.3-1.4,2.1-2.7,1.9c-1.3-0.3-2-1.5-1.7-2.8c0.1-0.5,0.3-1,0.5-1.4c0.9-1.7,1.1-3.4,1-5.3
			c-0.1-2.7-0.5-8.7-1.7-11.1c-0.3-0.6-0.7-1.2-1.1-1.8C245-328.7,248.2-323.1,254.4-324.1"/>
	</g>
</g>
<g id="hpp">
	<polygon class="st2" points="1052.1,596.6 1147.9,541.6 1147.9,430.6 1052.1,375 954,430.6 954,541.6 	"/>
	<path class="st3" d="M1121.7,556.6l26.2-15.1v-111l-95.8-55.6l-47.9,27.2c0,0,3.1,37.3,40.8,88.6
		C1082.4,541.7,1121.7,556.6,1121.7,556.6z"/>
	<polygon class="st4" points="1022.7,391.4 1051.7,374.5 1147.9,430.5 1147.9,541.9 1050.6,597.3 953.9,541.9 953.9,430.5 
		995.2,406.9 	"/>
	<text transform="matrix(1.0465 0 0 1 977.3516 504.5273)" class="st7 st14">HIGH PRESSURE</text>
	<text transform="matrix(1.0465 0 0 1 970.3398 524.9272)" class="st7 st14">PASTEURIZATION</text>
	<g>
		<g id="XMLID_40_">
			<g>
				<polygon class="st15" points="1050.3,439.7 1053.2,450.6 1052.2,453.8 1050.3,453.8 1048.3,453.8 1047.4,450.6 				"/>
				<path class="st16" d="M1050.3,439.7l-2.9,10.9l1,3.1h1.9h1.9l1-3.1L1050.3,439.7z M1050.3,433.4c7.2,0,13.1,5.9,13.1,13.1
					s-5.9,13.1-13.1,13.1s-13.1-5.9-13.1-13.1S1043,433.4,1050.3,433.4z"/>
				<path class="st17" d="M1057.5,472.7v2.4H1043v-2.4c0-0.5,0.4-1,1-1h4.4h3.9h4.4C1057.1,471.7,1057.5,472.2,1057.5,472.7z"/>
				<path class="st18" d="M1067.2,446.5c0,8.7-6.6,15.9-15,16.8v8.4h-3.9v-8.4c-8.5-1-15-8.1-15-16.8c0-9.4,7.6-17,17-17
					S1067.2,437.2,1067.2,446.5z M1050.3,459.6c7.2,0,13.1-5.9,13.1-13.1s-5.9-13.1-13.1-13.1s-13.1,5.9-13.1,13.1
					S1043,459.6,1050.3,459.6z"/>
			</g>
			<g>
				<path d="M1064.1,446.5c0-7.6-6.2-13.8-13.8-13.8s-13.8,6.2-13.8,13.8s6.2,13.8,13.8,13.8S1064.1,454.1,1064.1,446.5z
					 M1037.9,447.2h3.1v-1.5h-3.1c0.2-2.6,1.1-5,2.7-7l1.9,1.9l1-1l-1.9-1.9c2.1-2.1,4.9-3.4,8-3.6v3.1h0.6l-3.6,13.3l1.2,3.9h4.9
					l1.2-3.9l-3.6-13.3h0.6v-3.1c3.1,0.2,5.9,1.5,8,3.6l-1.9,1.9l1,1l1.9-1.9c1.5,1.9,2.5,4.3,2.7,7h-3.1v1.5h3.1
					c-0.4,6.5-5.8,11.6-12.3,11.6S1038.3,453.7,1037.9,447.2z M1050.3,442.6l2.2,8.1l-0.7,2.4h-2.8l-0.7-2.4L1050.3,442.6z"/>
				<path d="M1067.9,446.5c0-9.8-7.9-17.7-17.7-17.7s-17.7,7.9-17.7,17.7c0,8.8,6.4,16.2,15,17.5v7h-3.6c-0.9,0-1.7,0.8-1.7,1.7v1.7
					h-4.1v1.5h24.2v-1.5h-4.1v-1.7c0-0.9-0.8-1.7-1.7-1.7h-3.6v-7C1061.5,462.7,1067.9,455.3,1067.9,446.5z M1034,446.5
					c0-9,7.3-16.2,16.2-16.2s16.2,7.3,16.2,16.2c0,8.3-6.2,15.2-14.4,16.1l-0.6,0.1v8.3h-2.4v-8.3l-0.6-0.1
					C1040.2,461.7,1034,454.8,1034,446.5z M1056.6,472.4c0.1,0,0.2,0.1,0.2,0.2v1.7h-13.1v-1.7c0-0.1,0.1-0.2,0.2-0.2H1056.6z"/>
			</g>
		</g>
	</g>
</g>
<g id="stevia">
	<polygon class="st2" points="1344.6,425.6 1440.4,370.5 1440.4,259.5 1344.6,203.9 1246.5,259.5 1246.5,370.5 	"/>
	<path class="st3" d="M1414.2,385.6l26.2-15.1v-111l-95.8-55.6l-47.9,27.2c0,0,3.1,37.3,40.8,88.6
		C1374.9,370.6,1414.2,385.6,1414.2,385.6z"/>
	<polygon class="st4" points="1315.2,220.3 1344.2,203.5 1440.4,259.5 1440.4,370.9 1343.1,426.3 1246.4,370.9 1246.4,259.5 
		1287.7,235.9 	"/>
</g>
<g id="something_1_">
	<polygon class="st5" points="1355.6,757.1 1451.4,702.1 1451.4,591.1 1355.6,535.5 1257.5,591.1 1257.5,702.1 	"/>
	<path class="st6" d="M1425.2,717.2l26.2-15.1v-111l-95.8-55.6l-47.9,27.2c0,0,3.1,37.3,40.8,88.6
		C1386,702.2,1425.2,717.2,1425.2,717.2z"/>
	<polygon class="st4" points="1326.3,551.9 1355.2,535 1451.5,591.1 1451.5,702.4 1354.1,757.8 1257.5,702.4 1257.5,591.1 
		1298.7,567.5 	"/>
</g>
<g id="cold">
	<polygon class="st5" points="169.6,746.1 265.4,691.1 265.4,580.1 169.6,524.5 71.5,580.1 71.5,691.1 	"/>
	<path class="st6" d="M239.2,706.2l26.2-15.1v-111l-95.8-55.6l-47.9,27.2c0,0,3.1,37.3,40.8,88.6C200,691.2,239.2,706.2,239.2,706.2
		z"/>
	<polygon class="st4" points="140.3,540.9 169.2,524 265.5,580.1 265.5,691.4 168.1,746.8 71.5,691.4 71.5,580.1 112.7,556.5 	"/>
	<g>
		<g id="Layer_2_35_">
			<path class="st19" d="M196.1,617.6l-9.4-5.4l4.9-1.3c0.8-0.2,1.3-1.1,1.1-1.9c-0.2-0.8-1.1-1.3-1.9-1.1l-8,2.1l-0.1-0.1l-4.6-7.7
				l4.5-7.6l0.2-0.1l8,2.1c0.1,0,0.3,0.1,0.4,0.1c0.7,0,1.3-0.5,1.5-1.2c0.2-0.8-0.3-1.7-1.1-1.9l-4.9-1.3l1.3-0.8l0,0l8.1-4.7
				c0.8-0.4,1-1.4,0.6-2.2s-1.4-1-2.2-0.6l-9.4,5.4l1.3-4.9c0.2-0.8-0.3-1.7-1.1-1.9s-1.7,0.3-1.9,1.1l-2.1,8l-0.1,0.1h-8.9
				l-4.3-7.6v-0.1l5.8-5.8c0.6-0.6,0.6-1.6,0-2.2c-0.6-0.6-1.6-0.6-2.2,0l-3.6,3.6v-1.5v-9.3c0-0.9-0.7-1.6-1.6-1.6
				s-1.6,0.7-1.6,1.6v9.3v1.5l-3.6-3.6c-0.6-0.6-1.6-0.6-2.2,0c-0.6,0.6-0.6,1.6,0,2.2l5.8,5.8v0.1l-4.3,7.6h-8.9l-0.1-0.1l-2.1-8
				c-0.2-0.8-1.1-1.3-1.9-1.1c-0.8,0.2-1.3,1.1-1.1,1.9l1.3,4.9l-1.3-0.8l0,0l-8.1-4.7c-0.8-0.4-1.7-0.2-2.2,0.6
				c-0.4,0.8-0.2,1.7,0.6,2.2l9.4,5.4l-4.9,1.3c-0.8,0.2-1.3,1.1-1.1,1.9c0.2,0.7,0.8,1.2,1.5,1.2c0.1,0,0.3,0,0.4-0.1l8-2.1
				l0.2,0.1l4.5,7.6l-4.6,7.7l-0.1,0.1l-8-2.1c-0.8-0.2-1.7,0.3-1.9,1.1s0.3,1.7,1.1,1.9l4.9,1.3l-9.4,5.4c-0.8,0.4-1,1.4-0.6,2.2
				c0.3,0.5,0.8,0.8,1.4,0.8c0.3,0,0.5-0.1,0.8-0.2l8.1-4.7l0,0l1.3-0.8l-1.3,4.9c-0.2,0.8,0.3,1.7,1.1,1.9c0.1,0,0.3,0.1,0.4,0.1
				c0.7,0,1.3-0.5,1.5-1.2l2.1-8l0.2-0.1h8.9l4.3,7.6v0.2l-5.8,5.8c-0.6,0.6-0.6,1.6,0,2.2c0.6,0.6,1.6,0.6,2.2,0l3.6-3.6v1.5v9.3
				c0,0.9,0.7,1.6,1.6,1.6s1.6-0.7,1.6-1.6V626v-1.5l3.6,3.6c0.3,0.3,0.7,0.5,1.1,0.5s0.8-0.2,1.1-0.5c0.6-0.6,0.6-1.6,0-2.2
				l-5.8-5.8v-0.2l4.3-7.6h8.9l0.2,0.1l2.1,8c0.2,0.7,0.8,1.2,1.5,1.2c0.1,0,0.3,0,0.4-0.1c0.8-0.2,1.3-1.1,1.1-1.9l-1.3-4.9
				l1.3,0.8l0,0l8.1,4.7c0.2,0.1,0.5,0.2,0.8,0.2c0.5,0,1.1-0.3,1.4-0.8C197.2,619,196.9,618.1,196.1,617.6z M175,603.1l2.2,3.6
				l-7.6-4.4l7.6-4.4l-2.1,3.6C174.7,601.9,174.7,602.6,175,603.1z M157.8,601.4l-2.1-3.6l7.6,4.4l-7.6,4.4l2.2-3.6
				C158.1,602.6,158.1,601.9,157.8,601.4z M166.4,602.5L166.4,602.5c-0.1,0-0.1-0.1-0.2-0.1c0,0,0-0.1-0.1-0.1l0.1-0.1
				c0,0,0-0.1,0.1-0.1h0.1h0.1c0,0,0,0.1,0.1,0.1c0,0,0,0.1,0.1,0.1c0,0,0,0.1-0.1,0.1C166.6,602.4,166.6,602.5,166.4,602.5
				L166.4,602.5z M171.4,595.1L171.4,595.1h4.4l-7.8,4.5v-8.9l2,3.6C170.3,594.8,170.8,595.1,171.4,595.1z M161.4,595.1L161.4,595.1
				c0.6,0,1.1-0.3,1.4-0.8l2-3.6v8.9l-7.8-4.5L161.4,595.1L161.4,595.1z M161.4,609.4L161.4,609.4h-4.3l7.7-4.4v8.8l-2-3.6
				C162.5,609.7,162,609.4,161.4,609.4z M171.4,609.4L171.4,609.4c-0.6,0-1.1,0.3-1.4,0.8l-2,3.6V605l7.7,4.4H171.4z"/>
		</g>
	</g>
	<g id="COCUNUT_MILK_2_">
		<path d="M149.9,653.4c-0.3-0.4-0.8-0.7-1.2-0.9c-0.5-0.2-1.1-0.3-1.7-0.3s-1.2,0.1-1.8,0.4c-0.5,0.2-1,0.6-1.4,1s-0.7,1-0.9,1.6
			s-0.3,1.3-0.3,2s0.1,1.4,0.3,2s0.5,1.1,0.9,1.6c0.4,0.4,0.9,0.8,1.4,1s1.1,0.4,1.7,0.4c0.7,0,1.3-0.1,1.9-0.4
			c0.5-0.3,1-0.7,1.3-1.2l2.9,2.1c-0.7,0.9-1.5,1.6-2.5,2s-2.1,0.7-3.1,0.7c-1.2,0-2.3-0.2-3.4-0.6c-1-0.4-1.9-0.9-2.7-1.6
			c-0.7-0.7-1.3-1.6-1.7-2.6s-0.6-2.1-0.6-3.4c0-1.2,0.2-2.4,0.6-3.4c0.4-1,1-1.9,1.7-2.6c0.7-0.7,1.6-1.3,2.7-1.6
			c1-0.4,2.1-0.6,3.4-0.6c0.4,0,0.9,0,1.4,0.1s0.9,0.2,1.4,0.4s0.9,0.4,1.3,0.7c0.4,0.3,0.8,0.7,1.1,1.1L149.9,653.4z"/>
		<path d="M153.9,657c0-1.2,0.2-2.4,0.6-3.4s1-1.9,1.7-2.6s1.6-1.3,2.7-1.6c1-0.4,2.1-0.6,3.4-0.6s2.3,0.2,3.4,0.6
			c1,0.4,1.9,0.9,2.7,1.6c0.7,0.7,1.3,1.6,1.7,2.6s0.6,2.1,0.6,3.4c0,1.2-0.2,2.4-0.6,3.4s-1,1.9-1.7,2.6s-1.6,1.3-2.7,1.6
			c-1,0.4-2.1,0.6-3.4,0.6s-2.3-0.2-3.4-0.6c-1-0.4-1.9-0.9-2.7-1.6c-0.7-0.7-1.3-1.6-1.7-2.6C154.1,659.5,153.9,658.4,153.9,657z
			 M157.5,657c0,0.7,0.1,1.4,0.3,2s0.6,1.1,1,1.6c0.4,0.4,0.9,0.8,1.5,1s1.3,0.4,2,0.4s1.4-0.1,2-0.4c0.6-0.2,1.1-0.6,1.5-1
			s0.8-1,1-1.6s0.3-1.3,0.3-2s-0.1-1.4-0.3-2s-0.6-1.1-1-1.6s-0.9-0.8-1.5-1s-1.3-0.4-2-0.4s-1.4,0.1-2,0.4c-0.6,0.2-1.1,0.6-1.5,1
			s-0.8,1-1,1.6C157.6,655.7,157.5,656.4,157.5,657z"/>
		<path d="M173.2,649.2h3.4v12.4h6.4v3.2h-9.8L173.2,649.2L173.2,649.2z"/>
		<path d="M184.9,649.2h5.1c1.2,0,2.4,0.1,3.6,0.4c1.1,0.3,2.1,0.7,2.9,1.4c0.8,0.7,1.5,1.4,2,2.4s0.7,2.2,0.7,3.6
			c0,1.3-0.2,2.4-0.7,3.3c-0.5,1-1.1,1.8-1.9,2.4c-0.8,0.7-1.7,1.1-2.8,1.5c-1.1,0.3-2.2,0.5-3.3,0.5h-5.6V649.2L184.9,649.2z
			 M188.3,661.7h1.8c0.8,0,1.5-0.1,2.2-0.2c0.7-0.2,1.3-0.4,1.8-0.8c0.5-0.4,0.9-0.9,1.2-1.5s0.4-1.4,0.4-2.2s-0.1-1.4-0.4-2
			c-0.3-0.6-0.7-1-1.2-1.4s-1.1-0.6-1.7-0.8c-0.7-0.2-1.3-0.3-2.1-0.3h-2V661.7L188.3,661.7z"/>
		<path d="M123.2,675.7h5.8c0.7,0,1.4,0,2,0.1c0.7,0.1,1.3,0.3,1.8,0.6s1,0.7,1.3,1.2s0.5,1.2,0.5,2c0,0.9-0.2,1.6-0.7,2.2
			c-0.5,0.6-1.1,1-1.9,1.2l0,0c0.5,0.1,1,0.2,1.4,0.4s0.8,0.5,1.1,0.8s0.5,0.7,0.7,1.2c0.2,0.4,0.2,0.9,0.2,1.4
			c0,0.8-0.2,1.5-0.5,2.1c-0.4,0.6-0.8,1-1.4,1.3c-0.6,0.3-1.2,0.6-1.9,0.7c-0.7,0.1-1.4,0.2-2.1,0.2h-6.4L123.2,675.7L123.2,675.7z
			 M126.6,681.9h2.5c0.3,0,0.5,0,0.8-0.1s0.5-0.2,0.7-0.3s0.4-0.3,0.5-0.5s0.2-0.5,0.2-0.8s-0.1-0.6-0.2-0.8
			c-0.1-0.2-0.3-0.4-0.5-0.5s-0.5-0.2-0.7-0.3c-0.3-0.1-0.6-0.1-0.8-0.1h-2.3v3.4L126.6,681.9L126.6,681.9z M126.6,688.4h3.1
			c0.3,0,0.5,0,0.8-0.1s0.5-0.2,0.7-0.3s0.4-0.3,0.5-0.6c0.1-0.2,0.2-0.5,0.2-0.9s-0.1-0.7-0.3-0.9s-0.4-0.4-0.7-0.5
			s-0.6-0.2-0.9-0.2c-0.3,0-0.6-0.1-0.9-0.1h-2.6L126.6,688.4L126.6,688.4z"/>
		<path d="M137.4,675.7h6c0.8,0,1.5,0.1,2.3,0.2c0.7,0.2,1.3,0.4,1.9,0.8c0.5,0.4,1,0.8,1.3,1.5c0.3,0.6,0.5,1.4,0.5,2.3
			c0,1.1-0.3,2-0.9,2.8s-1.4,1.3-2.5,1.5l4,6.6h-4.1l-3.3-6.2h-1.7v6.2h-3.4v-15.7L137.4,675.7L137.4,675.7z M140.9,682.2h2
			c0.3,0,0.6,0,1,0c0.3,0,0.7-0.1,0.9-0.2c0.3-0.1,0.5-0.3,0.7-0.5s0.3-0.6,0.3-1s-0.1-0.7-0.2-0.9c-0.2-0.2-0.4-0.4-0.6-0.5
			s-0.5-0.2-0.9-0.3c-0.3,0-0.6-0.1-0.9-0.1H141v3.5H140.9z"/>
		<path d="M151.8,675.7h10.6v3.2h-7.1v2.9h6.8v3.2h-6.8v3.2h7.5v3.2h-11V675.7z"/>
		<path d="M163.9,675.7h3.7l2.5,10l0,0l3.3-10h3.2l3.2,10.3l0,0l2.6-10.3h3.5l-4.6,15.6h-3.1l-3.4-10.8l0,0l-3.4,10.8h-2.9
			L163.9,675.7z"/>
		<path d="M187.7,675.7h10.6v3.2h-7.1v2.9h6.8v3.2h-6.8v3.2h7.5v3.2h-11V675.7z"/>
		<path d="M201.4,675.7h5.1c1.2,0,2.4,0.1,3.6,0.4c1.1,0.3,2.1,0.7,2.9,1.4s1.5,1.4,2,2.4s0.7,2.2,0.7,3.6c0,1.3-0.2,2.4-0.7,3.3
			c-0.5,1-1.1,1.8-1.9,2.4c-0.8,0.7-1.7,1.1-2.8,1.5c-1.1,0.3-2.2,0.5-3.3,0.5h-5.6V675.7L201.4,675.7z M204.8,688.1h1.8
			c0.8,0,1.5-0.1,2.2-0.2c0.7-0.2,1.3-0.4,1.8-0.8s0.9-0.9,1.2-1.5s0.4-1.4,0.4-2.2s-0.1-1.4-0.4-2s-0.7-1-1.2-1.4s-1.1-0.6-1.7-0.8
			c-0.7-0.2-1.3-0.3-2.1-0.3h-2V688.1L204.8,688.1z"/>
	</g>
</g>
<g id="water">
	<polygon class="st2" points="263.6,915.6 359.4,860.5 359.4,749.5 263.6,693.9 165.5,749.5 165.5,860.5 	"/>
	<path class="st3" d="M333.2,875.6l26.2-15.1v-111l-95.8-55.6l-47.9,27.2c0,0,3.1,37.3,40.8,88.6
		C293.9,860.6,333.2,875.6,333.2,875.6z"/>
	<polygon class="st4" points="234.2,710.3 263.2,693.5 359.4,749.5 359.4,860.9 262.1,916.3 165.4,860.9 165.4,749.5 206.7,725.9 	
		"/>
	<g>
		<path class="st20" d="M267.7,771.2L267.7,771.2l-12.1-23.3c-0.1-0.1-0.1-0.2-0.3-0.2s-0.2,0.1-0.3,0.2l-12,23.2l0,0
			c-1.3,3.4-1.1,7.1,0.4,10.4c1.5,3.3,4.2,5.8,7.6,7.1c1.4,0.5,2.9,0.8,4.3,0.9l0,0l0,0c1.5,0,2.9-0.3,4.3-0.9
			c3.4-1.3,6.1-3.8,7.6-7.1C268.8,778.3,269,774.6,267.7,771.2z"/>
		<g>
			<path class="st21" d="M256.3,787.2c-2.9-2.8-4.5-6.6-4.5-10.7l0,0l3.2-28.3l-12,23l0,0c-1.3,3.4-1.1,7.1,0.4,10.4
				c1.5,3.3,4.2,5.8,7.6,7.1c1.4,0.5,2.9,0.8,4.3,0.9l0,0l0,0c1.1,0,2.2-0.2,3.2-0.5C257.8,788.5,257,787.9,256.3,787.2z"/>
			<path class="st21" d="M286.4,777.4C286.4,777.4,286.3,777.4,286.4,777.4l-6-11.5c-0.1-0.1-0.1-0.2-0.3-0.2s-0.2,0.1-0.3,0.2
				l-5.9,11.5l0,0c-0.6,1.7-0.6,3.6,0.2,5.2c0.8,1.7,2.1,2.9,3.8,3.6c0.7,0.3,1.4,0.4,2.2,0.4l0,0l0,0c0.7,0,1.5-0.2,2.2-0.4
				C285.9,784.9,287.7,781,286.4,777.4z"/>
		</g>
		<path class="st21" d="M274.5,795.5l-4-7.6c-0.1-0.1-0.1-0.2-0.3-0.2s-0.2,0.1-0.3,0.2l-4,7.6l0,0c-0.9,2.4,0.3,5.1,2.7,6
			c0.5,0.2,1,0.3,1.5,0.3l0,0l0,0c0.5,0,1-0.1,1.5-0.3C274.2,800.7,275.4,798,274.5,795.5C274.5,795.6,274.5,795.5,274.5,795.5z"/>
	</g>
	<g id="COCUNUT_MILK_1_">
		<path d="M213.6,820.7h2.8l6.8,15.6h-3.9L218,833h-6l-1.3,3.3h-3.8L213.6,820.7z M214.9,825.2L213,830h3.8L214.9,825.2z"/>
		<path d="M224.9,820.7h3.4v12.4h6.4v3.2h-9.8L224.9,820.7L224.9,820.7z"/>
		<path d="M236.6,820.7h3.4v6.5l6.1-6.5h4.5l-6.9,7.2l7.5,8.3h-4.8l-6.3-7.4v7.4h-3.4L236.6,820.7L236.6,820.7z"/>
		<path d="M257.6,820.7h2.8l6.8,15.6h-3.9L262,833h-6l-1.3,3.3h-3.8L257.6,820.7z M258.9,825.2L257,830h3.8L258.9,825.2z"/>
		<path d="M268.9,820.7h3.4v12.4h6.4v3.2h-9.8V820.7L268.9,820.7z"/>
		<path d="M280.6,820.7h3.4v15.6h-3.4V820.7z"/>
		<path d="M287.1,820.7h4.7l6.6,10.8l0,0v-10.8h3.4v15.6h-4.5l-6.8-11.1l0,0v11.1h-3.4L287.1,820.7L287.1,820.7z"/>
		<path d="M305.1,820.7h10.6v3.2h-7.1v2.9h6.8v3.2h-6.8v3.2h7.5v3.2h-11V820.7z"/>
		<path d="M223.7,847.1h3.7l2.5,10l0,0l3.3-10h3.2l3.2,10.3l0,0l2.6-10.3h3.5l-4.6,15.6H238l-3.4-10.8l0,0l-3.4,10.8h-2.9
			L223.7,847.1z"/>
		<path d="M252.1,847.1h2.8l6.8,15.6h-3.9l-1.3-3.3h-6l-1.3,3.3h-3.8L252.1,847.1z M253.4,851.6l-1.9,4.8h3.8L253.4,851.6z"/>
		<path d="M264.1,850.1h-4.4v-3H272v3h-4.4v12.5h-3.5V850.1z"/>
		<path d="M273.9,847.1h10.6v3.2h-7.1v2.9h6.8v3.2h-6.8v3.2h7.5v3.2h-11V847.1z"/>
		<path d="M287.6,847.1h6c0.8,0,1.5,0.1,2.3,0.2c0.7,0.2,1.3,0.4,1.9,0.8c0.5,0.4,1,0.8,1.3,1.5c0.3,0.6,0.5,1.4,0.5,2.3
			c0,1.1-0.3,2-0.9,2.8s-1.4,1.3-2.5,1.5l4,6.6h-4.1l-3.3-6.2h-1.7v6.2h-3.4L287.6,847.1L287.6,847.1z M291.1,853.5h2
			c0.3,0,0.6,0,1,0c0.3,0,0.7-0.1,0.9-0.2c0.3-0.1,0.5-0.3,0.7-0.5s0.3-0.6,0.3-1s-0.1-0.7-0.2-0.9c-0.2-0.2-0.4-0.4-0.6-0.5
			s-0.5-0.2-0.9-0.3c-0.3,0-0.6-0.1-0.9-0.1h-2.2L291.1,853.5L291.1,853.5z"/>
	</g>
</g>
<g id="tyent">
	<polygon class="st5" points="366.6,1086.1 462.4,1031.1 462.4,920.1 366.6,864.5 268.5,920.1 268.5,1031.1 	"/>
	<path class="st6" d="M436.2,1046.2l26.2-15.1v-111l-95.8-55.6l-47.9,27.2c0,0,3.1,37.3,40.8,88.6
		C397,1031.2,436.2,1046.2,436.2,1046.2z"/>
	<polygon class="st4" points="337.3,880.9 366.2,864 462.5,920.1 462.5,1031.4 365.1,1086.8 268.5,1031.4 268.5,920.1 309.7,896.5 	
		"/>
	<text transform="matrix(1.0465 0 0 1 329.8652 1002.5264)" class="st7 st22">TYENT</text>
	<text transform="matrix(1.0465 0 0 1 343.1558 1028.9268)" class="st7 st22">USA</text>
	<path class="st23" d="M380.5,938.8c0-7.5-13.6-27.6-13.6-27.6s-13.6,20.1-13.6,27.6c0,7.5,6.1,13.6,13.6,13.6
		C374.3,952.4,380.5,946.3,380.5,938.8z"/>
	<path class="st0" d="M366.9,948.7c-5.4,0-9.9-4.5-9.9-9.9c0-0.7,0.5-1.2,1.2-1.2s1.2,0.5,1.2,1.2c0,4.1,3.4,7.5,7.5,7.5
		c0.7,0,1.2,0.5,1.2,1.2C368.1,948.2,367.5,948.7,366.9,948.7z"/>
	<g>
		<path class="st24" d="M372.3,967.2c-2.2,0-4.2-0.5-6.1-1.5c-3-1.5-6.4-1.6-9.3,0c-3.8,2-8.4,2-12.4,0c-2.6-1.4-5.4-1.5-8.2-0.5
			c-0.7,0.3-1.6,0-1.9-0.8l0,0c-0.4-0.8,0-1.9,0.8-2.3c3.5-1.2,7.3-1,10.8,0.8c2.9,1.5,6.4,1.5,9.3,0c3.8-2,8.4-2,12.4,0
			c2.9,1.5,6.4,1.6,9.3,0c3.8-2,8.6-2,12.4,0c2.6,1.4,5.4,1.5,8.2,0.5c0.7-0.3,1.6,0,1.9,0.8l0,0c0.4,0.8,0,1.9-0.8,2.3
			c-3.5,1.2-7.3,1-10.8-0.8c-2.9-1.5-6.4-1.5-9.3,0C376.5,966.7,374.3,967.2,372.3,967.2z"/>
		<path class="st24" d="M372.3,976.5c-2.2,0-4.2-0.5-6.1-1.5c-2.9-1.5-6.4-1.6-9.3,0c-3.8,2-8.6,2-12.4,0c-2.6-1.4-5.4-1.5-8.2-0.5
			c-0.7,0.3-1.6,0-1.9-0.8l0,0c-0.4-0.8,0-1.9,0.8-2.3c3.5-1.2,7.3-1,10.8,0.8c2.9,1.5,6.4,1.5,9.3,0c3.8-2,8.4-2,12.4,0
			c2.9,1.5,6.4,1.6,9.3,0c3.8-2,8.6-2,12.4,0c2.6,1.4,5.4,1.5,8.2,0.5c0.7-0.3,1.6,0,1.9,0.8l0,0c0.4,0.8,0,1.9-0.8,2.3
			c-3.5,1.2-7.3,1-10.8-0.8c-2.9-1.5-6.4-1.5-9.3,0C376.5,975.9,374.3,976.5,372.3,976.5z"/>
	</g>
</g>
<g id="krash">
	<polygon class="st2" points="463.6,595.6 559.4,540.5 559.4,429.5 463.6,373.9 365.5,429.5 365.5,540.5 	"/>
	<path class="st3" d="M533.2,555.6l26.2-15.1v-111l-95.8-55.6l-47.9,27.2c0,0,3.1,37.3,40.8,88.6
		C493.9,540.6,533.2,555.6,533.2,555.6z"/>
	<polygon class="st4" points="434.2,390.3 463.2,373.5 559.4,429.5 559.4,540.9 462.1,596.3 365.4,540.9 365.4,429.5 406.7,405.9 	
		"/>
	<text transform="matrix(1 0 0 1 431.5332 463)" class="st25 st26">Zz</text>
	<text transform="matrix(1 0 0 1 475.8332 463)" class="st25 st27">z</text>
	<text transform="matrix(1.0465 0 0 1 409.7222 508.1396)" class="st7 st22">LESS/NO</text>
	<text transform="matrix(1.0465 0 0 1 422.6987 534.5396)" class="st7 st22">KRASH</text>
</g>
<g id="jittery">
	<polygon class="st5" points="656.6,916.1 752.4,861.1 752.4,750.1 656.6,694.5 558.5,750.1 558.5,861.1 	"/>
	<path class="st6" d="M726.2,876.2l26.2-15.1v-111l-95.8-55.6l-47.9,27.2c0,0,3.1,37.3,40.8,88.6C687,861.2,726.2,876.2,726.2,876.2
		z"/>
	<polygon class="st4" points="627.3,710.9 656.2,694 752.5,750.1 752.5,861.4 655.1,916.8 558.5,861.4 558.5,750.1 599.7,726.5 	"/>
	<text transform="matrix(1.0465 0 0 1 594.1138 827.5264)" class="st7 st22">LESS/NON</text>
	<text transform="matrix(1.0465 0 0 1 610.9619 853.9268)" class="st7 st22">JITTERY</text>
	<g>
		<path d="M639.7,751.7c-9,9-9,23.6,0,32.6s23.6,9,32.6,0s9-23.6,0-32.6S648.7,742.7,639.7,751.7z M669.8,781.8
			c-7.6,7.6-20,7.6-27.6,0s-7.6-20,0-27.6s20-7.6,27.6,0C677.4,761.8,677.4,774.2,669.8,781.8z M665.4,778.7c-9.9,8.7-18.9,0-18.9,0
			c0-5,4.2-9.1,9.4-9.1C661.2,769.6,665.4,773.6,665.4,778.7z M654.2,761.3c0-2.5-2-4.5-4.5-4.5s-4.5,2-4.5,4.5s2,4.5,4.5,4.5
			C652.2,765.9,654.2,763.8,654.2,761.3z M646,761.3c0-2,1.6-3.6,3.6-3.6s3.6,1.6,3.6,3.6s-1.6,3.6-3.6,3.6
			C647.7,764.9,646,763.3,646,761.3z M652.5,761.3c0-1.6-1.3-2.8-2.8-2.8c-1.6,0-2.8,1.3-2.8,2.8c0,1.6,1.3,2.8,2.8,2.8
			S652.5,762.9,652.5,761.3z M647.7,761.3c0-1.1,0.9-2,2-2s2,0.9,2,2s-0.9,2-2,2C648.6,763.3,647.7,762.4,647.7,761.3z M649.6,762.2
			c-0.5,0-0.9-0.4-0.9-0.9s0.4-0.9,0.9-0.9s0.9,0.4,0.9,0.9S650.1,762.2,649.6,762.2z M662.7,756.8c-2.5,0-4.5,2-4.5,4.5
			s2,4.5,4.5,4.5s4.5-2,4.5-4.5C667.3,758.8,665.3,756.8,662.7,756.8z M662.7,764.9c-2,0-3.6-1.6-3.6-3.6s1.6-3.6,3.6-3.6
			s3.6,1.6,3.6,3.6C666.4,763.3,664.7,764.9,662.7,764.9z M662.7,758.5c-1.6,0-2.8,1.3-2.8,2.8c0,1.6,1.3,2.8,2.8,2.8
			c1.6,0,2.8-1.3,2.8-2.8C665.6,759.8,664.3,758.5,662.7,758.5z M662.7,763.3c-1.1,0-2-0.9-2-2s0.9-2,2-2s2,0.9,2,2
			S663.8,763.3,662.7,763.3z M663.6,761.3c0,0.5-0.4,0.9-0.9,0.9s-0.9-0.4-0.9-0.9s0.4-0.9,0.9-0.9
			C663.2,760.4,663.6,760.8,663.6,761.3z"/>
	</g>
</g>
<g id="kaffeine">
	<polygon class="st2" points="363.6,756.6 459.4,701.5 459.4,590.5 363.6,534.9 265.5,590.5 265.5,701.5 	"/>
	<path class="st3" d="M433.2,716.6l26.2-15.1v-111l-95.8-55.6l-47.9,27.2c0,0,3.1,37.3,40.8,88.6
		C393.9,701.6,433.2,716.6,433.2,716.6z"/>
	<polygon class="st4" points="334.2,551.3 363.2,534.5 459.4,590.5 459.4,701.9 362.1,757.3 265.4,701.9 265.4,590.5 306.7,566.9 	
		"/>
	<text transform="matrix(1.0465 0 0 1 306.1787 664.3496)" class="st7 st22">KAFFEINE</text>
	<text transform="matrix(1.0465 0 0 1 306.9111 690.75)" class="st7 st22">CONTENT</text>
	<path class="st21" d="M375.9,597.6h-12.1L375,580h-14l-13.2,26.4h10.4L347.8,631L375.9,597.6z"/>
</g>
<g id="monk">
	<polygon class="st2" points="462.1,916.6 557.9,861.6 557.9,750.6 462.1,695 364,750.6 364,861.6 	"/>
	<path class="st3" d="M531.7,876.6l26.2-15.1v-111L462.1,695l-47.9,27.2c0,0,3.1,37.3,40.8,88.6
		C492.4,861.7,531.7,876.6,531.7,876.6z"/>
	<polygon class="st4" points="432.7,711.4 461.7,694.5 557.9,750.5 557.9,861.9 460.6,917.3 363.9,861.9 363.9,750.5 405.2,726.9 	
		"/>
	<text transform="matrix(1.0465 0 0 1 383.7559 826)" class="st7 st22">SUGAR-FREE</text>
	<text transform="matrix(1.0465 0 0 1 385.5352 852.4004)" class="st7 st22">MONK FRUIT</text>
	<g>
		<path class="st28" d="M461.2,770.7c-0.6,0-1.1-0.1-1.7-0.1v21.3c0,0.9,0.8,1.7,1.7,1.7s1.7-0.8,1.7-1.7v-21.3
			C462.3,770.6,461.8,770.7,461.2,770.7z"/>
		<polygon class="st29" points="462.9,789.3 459.5,791 459.5,789.3 462.9,787.7 		"/>
		<polygon class="st0" points="462.9,787.7 459.5,789.3 459.5,787.7 462.9,786 		"/>
		<polygon class="st29" points="462.9,786 459.5,787.7 459.5,786 462.9,784.3 		"/>
		<polygon class="st0" points="462.9,784.3 459.5,786 459.5,784.3 462.9,782.6 		"/>
		<polygon class="st29" points="462.9,782.6 459.5,784.3 459.5,782.6 462.9,781 		"/>
		<polygon class="st0" points="462.9,781 459.5,782.6 459.5,781 462.9,779.3 		"/>
		<polygon class="st29" points="462.9,779.3 459.5,781 459.5,779.3 462.9,777.6 		"/>
		<polygon class="st29" points="462.9,775.9 459.5,777.6 459.5,775.9 462.9,774.3 		"/>
		<polygon class="st0" points="462.9,777.6 459.5,779.3 459.5,777.6 462.9,775.9 		"/>
		<g>
			<circle class="st30" cx="461.2" cy="759.2" r="13.4"/>
			<path class="st0" d="M461.2,773.4c-7.8,0-14.2-6.4-14.2-14.2s6.4-14.2,14.2-14.2s14.2,6.4,14.2,14.2
				C475.4,767.1,469.1,773.4,461.2,773.4z M461.2,746.7c-6.9,0-12.5,5.6-12.5,12.5s5.6,12.5,12.5,12.5s12.5-5.6,12.5-12.5
				C473.8,752.3,468.1,746.7,461.2,746.7z"/>
		</g>
		<path class="st0" d="M461.9,770.1c-3.7,0-7.3-1.9-9.2-5.3c-1.2-2-1.5-4.3-0.9-6.6c0.6-2.2,2-4.1,4.1-5.3c1.6-0.9,3.6-1.2,5.4-0.7
			s3.4,1.7,4.3,3.3c0.8,1.4,1,2.9,0.6,4.4s-1.4,2.8-2.7,3.6c-1.1,0.6-2.4,0.8-3.7,0.5c-1.3-0.3-2.3-1.1-2.9-2.3
			c-0.5-0.9-0.7-2-0.4-3.1c0.3-1,1-1.9,1.9-2.5c1.6-0.9,3.7-0.4,4.7,1.3c0.4,0.7,0.5,1.4,0.3,2.2c-0.2,0.7-0.7,1.4-1.4,1.8
			c-0.6,0.3-1.2,0.4-1.9,0.2c-0.6-0.2-1.2-0.6-1.5-1.2c-0.2-0.4-0.1-0.9,0.3-1.1c0.4-0.2,0.9-0.1,1.1,0.3c0.1,0.2,0.3,0.3,0.5,0.4
			c0.2,0.1,0.4,0,0.6-0.1c0.3-0.2,0.5-0.4,0.6-0.7s0-0.6-0.1-0.9c-0.5-0.8-1.5-1.1-2.4-0.6c-0.6,0.3-0.9,0.8-1.1,1.4
			c-0.2,0.6-0.1,1.3,0.2,1.8c0.4,0.7,1.1,1.3,1.9,1.5s1.7,0.1,2.4-0.3c1-0.6,1.7-1.5,2-2.5c0.3-1.1,0.1-2.2-0.4-3.2
			c-0.7-1.3-1.9-2.2-3.3-2.5c-1.4-0.4-2.9-0.2-4.1,0.5c-1.6,0.9-2.8,2.4-3.3,4.3c-0.5,1.8-0.2,3.7,0.7,5.3c1.2,2.1,3.1,3.6,5.4,4.2
			c2.3,0.6,4.7,0.3,6.8-0.9c5.5-3.1,7.5-10.8,4.3-16.3c-0.2-0.4-0.1-0.9,0.3-1.1c0.4-0.2,0.9-0.1,1.1,0.3c1.7,3,2.2,6.7,1.3,10.3
			c-0.9,3.6-3.2,6.6-6.1,8.3C465.5,769.6,463.7,770.1,461.9,770.1z"/>
	</g>
</g>
<g id="coffee_1_">
	<polygon class="st5" points="655.6,596.1 751.4,541.1 751.4,430.1 655.6,374.5 557.5,430.1 557.5,541.1 	"/>
	<path class="st6" d="M725.2,556.2l26.2-15.1v-111l-95.8-55.6l-47.9,27.2c0,0,3.1,37.3,40.8,88.6C686,541.2,725.2,556.2,725.2,556.2
		z"/>
	<polygon class="st4" points="626.3,390.9 655.2,374 751.5,430.1 751.5,541.4 654.1,596.8 557.5,541.4 557.5,430.1 598.7,406.5 	"/>
	<g>
		<path class="st31" d="M660.4,447.3c-2-9.5-8.5-17.6-18.1-21l0,0c-5.1-2-10.7,0.6-12.5,5.8l-0.5,1.3c-4.6,14.7,3,31.3,17,37l0,0
			c0.6,0.2,1.2,0.4,1.9,0.5C648.1,461.3,652.9,452.6,660.4,447.3"/>
		<path class="st32" d="M659.6,481.1l-1.4,0.1c-5.5,0.2-9.9-4.2-9.9-9.7l0,0c-0.5-15.7,12-28.9,28.1-29.5l1.4-0.1
			c5.5-0.3,10,3.9,10,9.4l0,0C687.6,466.5,675,479.9,659.6,481.1"/>
		<path class="st31" d="M685.9,445.7c-0.5-0.7-1.1-1.3-1.7-1.8c-0.2,0.2-0.3,0.4-0.3,0.6c-0.2,9.8-5.8,15.1-15.8,15.1H668
			c-10.6,0-16.9,6.3-17.8,17.6c0.5,0.6,1,1.2,1.6,1.7c0.2-0.2,0.3-0.4,0.3-0.7c0.5-10.8,6-16.6,15.8-16.6h0.1
			C678.9,461.7,685.3,455.9,685.9,445.7"/>
		<path class="st32" d="M648.6,465.9c-4.5-4.1-5.4-10.1-2.7-17c3.9-9.9,0.5-18-9.7-23c-0.8,0.2-1.5,0.5-2.3,0.9
			c0.1,0.2,0.3,0.4,0.5,0.5c9.9,4.5,13.2,11.7,9.5,20.8c-3.2,8-1.9,15,3.7,19.7c0.2,0.1,0.4,0.2,0.6,0.2
			C648.4,467.4,648.5,466.7,648.6,465.9"/>
	</g>
	<text transform="matrix(1.0465 0 0 1 607.1963 514.5269)" class="st7 st22">KOFFEE</text>
	<text transform="matrix(1.0465 0 0 1 613.1621 540.9268)" class="st7 st22">BEANS</text>
</g>
<g id="shade">
	<polygon class="st2" points="753.6,756.6 849.4,701.5 849.4,590.5 753.6,534.9 655.5,590.5 655.5,701.5 	"/>
	<path class="st3" d="M823.2,716.6l26.2-15.1v-111l-95.8-55.6l-47.9,27.2c0,0,3.1,37.3,40.8,88.6
		C783.9,701.6,823.2,716.6,823.2,716.6z"/>
	<polygon class="st4" points="724.2,551.3 753.2,534.5 849.4,590.5 849.4,701.9 752.1,757.3 655.4,701.9 655.4,590.5 696.7,566.9 	
		"/>
	<text transform="matrix(1.0465 0 0 1 673.248 670.8809)" class="st7 st33">SHADE GROWN</text>
	<text transform="matrix(1.0465 0 0 1 716.6777 693.6807)" class="st7 st33">BEANS</text>
	<g>
		<path class="st34" d="M735.8,623.2v8.3c0,1.5,1.2,2.8,2.8,2.8s2.8-1.2,2.8-2.8v-8.3h-2.8H735.8z"/>
		<path class="st34" d="M757.1,623.2v8.3c0,1.5,1.2,2.8,2.8,2.8s2.8-1.2,2.8-2.8v-8.3h-2.8H757.1z"/>
	</g>
	<path class="st35" d="M762.3,582.8c-0.5-0.9-1.4-1.5-2.4-1.5s-2,0.6-2.4,1.5L747,602.4l1.6,2.9l1.6,2.9l5,9.4l0.7,1.3
		c0.2,0.4,0.4,0.9,0.4,1.4c0,1.5-1.2,2.8-2.8,2.8h3.7h2.8h2.8h16.6c1,0,1.9-0.5,2.4-1.3s0.5-1.9,0.1-2.7L762.3,582.8z"/>
	<path class="st10" d="M755,617.7l-5-9.4l-1.6-2.9l-1.6-2.9l-5.9-11.1c-0.5-0.9-1.4-1.5-2.4-1.5s-2,0.6-2.4,1.5l-14.8,27.8
		c-0.5,0.9-0.4,1.9,0.1,2.7s1.4,1.3,2.4,1.3h12h2.8h2.8h12l0,0c1.5,0,2.8-1.2,2.8-2.8c0-0.5-0.1-1-0.4-1.4L755,617.7z"/>
</g>
<g id="fair">
	<polygon class="st2" points="853.6,595.6 949.4,540.5 949.4,429.5 853.6,373.9 755.5,429.5 755.5,540.5 	"/>
	<path class="st3" d="M923.2,555.6l26.2-15.1v-111l-95.8-55.6l-47.9,27.2c0,0,3.1,37.3,40.8,88.6
		C883.9,540.6,923.2,555.6,923.2,555.6z"/>
	<polygon class="st4" points="824.2,390.3 853.2,373.5 949.4,429.5 949.4,540.9 852.1,596.3 755.4,540.9 755.4,429.5 796.7,405.9 	
		"/>
	<text transform="matrix(1.0465 0 0 1 792.9727 511.498)" class="st7 st8">FAIR-TRADE</text>
	<text transform="matrix(1.0465 0 0 1 802.1816 533.0981)" class="st7 st8">CERTIFIED</text>
	<text transform="matrix(1.0465 0 0 1 819.4482 554.6982)" class="st7 st8">BEANS</text>
	<g>
		<g>
			
				<rect id="XMLID_60_" x="819.2" y="443" transform="matrix(0.3244 -0.9459 0.9459 0.3244 137.3684 1086.4407)" class="st36" width="20.1" height="8.2"/>
			<path d="M842.1,437.8l-0.8,0.4c-0.9,0.5-2,0.5-3,0.2L837,438c-0.1,0-0.1-0.1-0.2-0.1l-7.8-2.7c-0.6-0.2-1.2,0.1-1.4,0.7
				l-6.5,19.1c-0.1,0.3-0.1,0.6,0,0.9s0.4,0.5,0.6,0.6l7.8,2.7c0.1,0,0.2,0.1,0.4,0.1c0.5,0,0.9-0.3,1.1-0.8l6.2-18l0.4,0.1
				c1.6,0.5,3.3,0.4,4.8-0.3l0.8-0.4c0.9-0.5,2-0.5,3-0.2l14.3,4.9c-0.1,0.6-0.4,1.3-1,1.7c-0.6,0.4-1.5,0.4-2.7,0l-6.4-2.2
				c-0.3-0.1-0.6-0.1-0.9,0.1c-0.3,0.1-0.5,0.4-0.6,0.7c0,0-0.9,3.3-3.7,4.9c-1.8,1-4,1-6.6,0.1c-0.6-0.2-1.2,0.1-1.4,0.7
				s0.1,1.2,0.7,1.4c1.5,0.5,2.9,0.8,4.2,0.8c1.5,0,2.9-0.3,4.2-1c2.5-1.4,3.8-3.7,4.4-5.1l5.3,1.8c1.9,0.7,3.5,0.6,4.7-0.3
				c2-1.4,2.1-4.1,2.1-4.3c0-0.5-0.3-0.9-0.8-1.1l-15.2-5.2C845.3,436.9,843.6,437,842.1,437.8z M829.2,456.4l-5.7-1.9l5.8-16.9
				l5.7,1.9L829.2,456.4z"/>
			
				<rect id="XMLID_142_" x="868.5" y="437.1" transform="matrix(0.8982 -0.4395 0.4395 0.8982 -107.7271 429.0135)" class="st37" width="8.2" height="20.1"/>
			<path d="M871.9,457.7l-2.7,2.5c-2.4,2.2-5.2,4.1-8.1,5.5l-14.2,6.9c-0.6,0.3-1.4,0-1.7-0.6s0-1.4,0.6-1.7l0.2-0.1l0,0l7.7-3.8
				c0.6-0.3,0.8-0.9,0.5-1.5s-0.9-0.8-1.5-0.5l-7.7,3.8l0,0l-3.9,1.9c-0.6,0.3-1.4,0-1.7-0.6c-0.1-0.3-0.2-0.6-0.1-1
				c0.1-0.3,0.3-0.6,0.6-0.7l2.9-1.4l0,0l8.4-4.1c0.6-0.3,0.8-0.9,0.5-1.5s-0.9-0.8-1.5-0.5l-8.4,4.1l0,0l-0.3,0.2l-4,2
				c-0.3,0.1-0.6,0.2-1,0.1c-0.3-0.1-0.6-0.3-0.7-0.6c-0.3-0.6,0-1.4,0.6-1.7l1.4-0.7l0,0l2.8-1.4l0.8-0.4l0,0l6.5-3.2
				c0.6-0.3,0.8-0.9,0.5-1.5s-0.9-0.8-1.5-0.5l-7.1,3.5l-3.1,1.5c-0.6,0.3-1.4,0-1.7-0.6c-0.1-0.3-0.2-0.6-0.1-1
				c0.1-0.3,0.3-0.6,0.6-0.7l5.4-2.6c0.6-0.3,0.8-0.9,0.5-1.5s-0.9-0.8-1.5-0.5l-5.4,2.6c-0.8,0.4-1.5,1.1-1.8,2s-0.2,1.8,0.2,2.7
				c0.3,0.5,0.6,1,1.1,1.3c-0.8,1-1,2.4-0.4,3.7c0.4,0.8,1.1,1.5,2,1.8c0.4,0.1,0.7,0.2,1.1,0.2c0,0.6,0.1,1.1,0.4,1.6
				c0.6,1.2,1.9,2,3.2,2c0.5,0,1-0.1,1.5-0.4l0.8-0.4c0,0.4,0.1,0.8,0.3,1.2c0.6,1.2,1.9,2,3.2,2c0.5,0,1-0.1,1.5-0.4l14.2-6.9
				c3.2-1.5,6.1-3.5,8.6-5.9l3.2-2.9l7.3-3.6c0.6-0.3,0.8-0.9,0.5-1.5l-8.9-18.1c-0.1-0.3-0.4-0.5-0.6-0.6c-0.3-0.1-0.6-0.1-0.9,0
				l-7.4,3.6c-0.6,0.3-0.8,0.9-0.5,1.5L871.9,457.7z M871.3,437.8l7.9,16.1l-5.4,2.6l-7.9-16.1L871.3,437.8z"/>
		</g>
	</g>
</g>
<g id="vegan">
	<polygon class="st2" points="952.1,757.6 1047.9,702.6 1047.9,591.6 952.1,536 854,591.6 854,702.6 	"/>
	<path class="st3" d="M1021.7,717.6l26.2-15.1v-111L952.1,536l-47.9,27.2c0,0,3.1,37.3,40.8,88.6
		C982.4,702.7,1021.7,717.6,1021.7,717.6z"/>
	<polygon class="st4" points="922.7,552.4 951.7,535.5 1047.9,591.5 1047.9,702.9 950.6,758.3 853.9,702.9 853.9,591.5 895.2,567.9 
			"/>
	<text transform="matrix(1.0465 0 0 1 907.7969 670.8809)" class="st7 st22">VEGAN</text>
	<text transform="matrix(1.0465 0 0 1 888.0186 697.2803)" class="st7 st22">CERTIFIED</text>
	<g>
		<g>
			<path d="M973.3,596.8h-7.7c0.5-1.1,0.9-2.2,1.3-3.5c0.8-3.4,0.7-6.3,0.7-6.4l-0.2-4.3l-2.1,3.7c-1.1,1.9-2.4,3.5-4,4.8
				c-1.2,1-2.6,1.9-4.1,2.5c-0.9,0.4-1.8,0.6-2.5,0.8H945c-2.7-0.6-7.4-2.4-10.6-8.1l-2.1-3.7l-0.2,4.3c0,0.1-0.1,3.1,0.7,6.4
				c0.3,1.3,0.7,2.5,1.3,3.5h-7.7v1.2c0,0.2,0,3.8,2.7,6.6c1.7,1.7,3.9,2.7,6.8,2.9c0,3.7,0.5,6.4,1.6,8.3c2,3.4,2.5,13.5,2.5,17.1
				v0.3l0.1,0.3c0.2,0.3,0.7,0.9,2.1,1.5c1.7,0.6,4.3,1,7.6,1s5.9-0.3,7.6-1c1.4-0.5,1.9-1.1,2.1-1.5l0.1-0.3v-0.3
				c0-3.6,0.5-13.7,2.5-17.1c1.1-1.9,1.6-4.6,1.6-8.3c2.9-0.2,5.2-1.2,6.8-2.9c2.7-2.8,2.7-6.5,2.7-6.6L973.3,596.8z M936.9,596.8
				c-1.1-1.8-1.7-3.8-2-5.6c0.6,0.7,1.3,1.3,2,1.9c1,0.9,2.2,1.6,3.3,2.2c-0.8,0.4-1.6,0.9-2.3,1.5L936.9,596.8L936.9,596.8z
				 M939.6,612.9c-0.9-0.5-1.2-1.8-0.6-3c0.6-1.2,1.9-1.7,2.8-1.2c0.9,0.5,1.2,1.8,0.6,3C941.8,612.8,940.5,613.4,939.6,612.9z
				 M957.2,632.3c-0.3,0.2-0.9,0.5-2.2,0.7c-0.7-1-2.1-2.3-5.1-2.3l0,0l0,0l0,0l0,0c-3.1,0-4.5,1.3-5.1,2.3
				c-1.3-0.2-1.9-0.5-2.2-0.7c0-0.5,0-1.3-0.1-2.3c1.8-1.6,5-5.4,5.1-12.5c0.2-10-6.5-11.5-4-15.3s5.2-3,6.4-3s3.9-0.8,6.4,3
				s-4.2,5.3-4,15.3c0.1,7.1,3.3,10.9,5,12.5C957.3,631,957.3,631.8,957.2,632.3z M960.2,612.9c-0.9,0.5-2.2-0.1-2.8-1.2
				c-0.6-1.2-0.4-2.5,0.6-3c0.9-0.5,2.2,0.1,2.8,1.2C961.4,611.1,961.1,612.4,960.2,612.9z M962.8,596.8h-1
				c-0.7-0.6-1.6-1.1-2.3-1.5c1.2-0.6,2.3-1.3,3.3-2.2c0.7-0.6,1.4-1.2,2-1.9C964.5,593,963.9,595,962.8,596.8z"/>
		</g>
	</g>
</g>
<g id="gmo">
	<polygon class="st2" points="954.6,425.6 1050.4,370.5 1050.4,259.5 954.6,203.9 856.5,259.5 856.5,370.5 	"/>
	<path class="st3" d="M1024.2,385.6l26.2-15.1v-111l-95.8-55.6l-47.9,27.2c0,0,3.1,37.3,40.8,88.6
		C984.9,370.6,1024.2,385.6,1024.2,385.6z"/>
	<polygon class="st4" points="925.2,220.3 954.2,203.5 1050.4,259.5 1050.4,370.9 953.1,426.3 856.4,370.9 856.4,259.5 897.7,235.9 
			"/>
	<text transform="matrix(1.0465 0 0 1 899.0947 335.0708)" class="st7 st38">NON GMO</text>
	<text transform="matrix(1.0465 0 0 1 880.2578 359.0708)" class="st7 st38">INGREDIENTS</text>
	<circle class="st21" cx="952.2" cy="278.2" r="17.8"/>
	<path class="st39" d="M961.3,263.1c0.1,0,0.1-0.1,0.2-0.1c-2.7-1.7-5.9-2.6-9.3-2.6c-3.8,0-7.3,1.2-10.1,3.2c0,0.1,0,0.1,0.1,0.2
		c1.2,2.6,2.8,7.1,5.5,8.1c1.3,0.5,2.5,0.3,3.7,0.9c0.1,0.1,0.3,0.2,0.4,0.3c0.6,0.9,0.3,2.3,0.9,2.6c0.5,0.3,0.8,0.8,0.6,1.3
		c-0.9,2.1-0.1,4.5,1.9,6.2c1.4,1.2,0.2,3.9-0.9,6c-0.4,0.8,0.3,1.6,1.1,1.3c1.3-0.5,2.4-1.1,3.6-2.2c1.8-1.5,2.2-3.2,4-4.5
		c0,0,0,0,0-0.1c0.5-1.3,1.9-4.2,0.4-5c-1.3-0.7-1.8-2.7-3.1-4c-0.1-0.2-0.4-0.2-0.6-0.3c-1.6-0.2-2.3-1.4-3.4-0.6
		c-0.8,0.6-1.7,0.2-2-0.7c-0.1-0.3-0.3-0.6-0.8-0.8c-0.4-0.1-0.7-0.6-0.5-1.1l0,0c0.2-0.6-1-0.5-1.6-0.4c-0.2,0,0.4-0.7,0.2-0.5
		c-0.7,0.4-1.7-0.3-1.6-1.2c0-0.9,0.2-0.8,1.7-1c1.6-0.8,2.4-0.2,2.3,1.6c1,0.1,1.3-0.3,1-1.3c-0.1-0.3,0-0.6,0.2-0.9
		C957,265.1,958.5,264.1,961.3,263.1z"/>
</g>
<g id="cacao">
	<polygon class="st5" points="1155.6,757.1 1251.4,702.1 1251.4,591.1 1155.6,535.5 1057.5,591.1 1057.5,702.1 	"/>
	<path class="st6" d="M1225.2,717.2l26.2-15.1v-111l-95.8-55.6l-47.9,27.2c0,0,3.1,37.3,40.8,88.6
		C1186,702.2,1225.2,717.2,1225.2,717.2z"/>
	<polygon class="st4" points="1126.3,551.9 1155.2,535 1251.5,591.1 1251.5,702.4 1154.1,757.8 1057.5,702.4 1057.5,591.1 
		1098.7,567.5 	"/>
	<text transform="matrix(1.0465 0 0 1 1111.3965 681.6963)" class="st7 st22">CACAO</text>
	<path class="st40" d="M1146.4,642.4L1131,627c-1.1-1.1-1.1-2.9,0-3.9l28-28.1c1.1-1.1,2.9-1.1,3.9,0l15.4,15.4
		c1.1,1.1,1.1,2.9,0,3.9l-28.1,28.1C1149.2,643.5,1147.5,643.5,1146.4,642.4z"/>
	<g>
		
			<rect x="1158.1" y="600" transform="matrix(0.7071 -0.7071 0.7071 0.7071 -86.3868 997.8854)" class="st41" width="6.5" height="6.5"/>
		
			<rect x="1167" y="608.8" transform="matrix(0.7071 -0.7071 0.7071 0.7071 -90.0171 1006.7148)" class="st41" width="6.5" height="6.5"/>
		
			<rect x="1159.5" y="616.3" transform="matrix(0.7071 -0.7071 0.7071 0.7071 -97.5126 1003.6482)" class="st41" width="6.5" height="6.5"/>
		
			<rect x="1150.6" y="607.4" transform="matrix(0.7071 -0.7071 0.7071 0.7071 -93.8521 994.7475)" class="st41" width="6.5" height="6.5"/>
		
			<rect x="1143.2" y="614.8" transform="matrix(0.7071 -0.7071 0.7071 0.7071 -101.2567 991.6769)" class="st41" width="6.5" height="6.5"/>
		
			<rect x="1152.1" y="623.7" transform="matrix(0.7071 -0.7071 0.7071 0.7071 -104.9172 1000.5761)" class="st41" width="6.5" height="6.5"/>
		
			<rect x="1144.6" y="631.1" transform="matrix(0.7071 -0.7071 0.7071 0.7071 -112.3825 997.4382)" class="st41" width="6.5" height="6.5"/>
		
			<rect x="1135.8" y="622.3" transform="matrix(0.7071 -0.7071 0.7071 0.7071 -108.6816 988.6381)" class="st41" width="6.5" height="6.5"/>
	</g>
	<path d="M1136.7,628.9c-0.3,0-0.5-0.1-0.7-0.3l-2.3-2.3c-0.2-0.2-0.3-0.5-0.3-0.7c0-0.3,0.1-0.5,0.3-0.7l4.6-4.6
		c0.4-0.4,1.1-0.4,1.5,0l4.6,4.6c0.4,0.4,0.4,1.1,0,1.5l-1.8,1.8c-0.4,0.4-1.1,0.4-1.5,0s-0.4-1.1,0-1.5l1-1l-3.1-3.1l-3.1,3.1
		l1.5,1.5c0.4,0.4,0.4,1.1,0,1.5C1137.2,628.8,1136.9,628.9,1136.7,628.9z"/>
	<path d="M1138.9,631.2c-0.3,0-0.5-0.1-0.7-0.3c-0.4-0.4-0.4-1.1,0-1.5l0,0c0.4-0.4,1.1-0.4,1.5,0s0.4,1.1,0,1.5l0,0
		C1139.5,631.1,1139.2,631.2,1138.9,631.2z"/>
	<path d="M1145.5,637.8c-0.3,0-0.5-0.1-0.7-0.3l-2.3-2.3c-0.4-0.4-0.4-1.1,0-1.5l4.6-4.6c0.2-0.2,0.5-0.3,0.7-0.3s0.5,0.1,0.7,0.3
		l4.6,4.6c0.4,0.4,0.4,1.1,0,1.5l-1.8,1.8c-0.4,0.4-1.1,0.4-1.5,0s-0.4-1.1,0-1.5l1-1l-3.1-3.1l-3.1,3.1l1.5,1.5
		c0.4,0.4,0.4,1.1,0,1.5C1146,637.7,1145.8,637.8,1145.5,637.8z"/>
	<path d="M1147.8,640.1c-0.3,0-0.5-0.1-0.7-0.3c-0.4-0.4-0.4-1.1,0-1.5l0,0c0.4-0.4,1.1-0.4,1.5,0s0.4,1.1,0,1.5l0,0
		C1148.3,640,1148.1,640.1,1147.8,640.1z"/>
	<path d="M1144.1,621.5c-0.3,0-0.5-0.1-0.7-0.3l-2.3-2.3c-0.4-0.4-0.4-1.1,0-1.5l4.6-4.6c0.4-0.4,1.1-0.4,1.5,0l4.6,4.6
		c0.2,0.2,0.3,0.5,0.3,0.7c0,0.3-0.1,0.5-0.3,0.7l-1.8,1.8c-0.4,0.4-1.1,0.4-1.5,0s-0.4-1.1,0-1.5l1-1l-3.1-3.1l-3.1,3.1l1.5,1.5
		c0.4,0.4,0.4,1.1,0,1.5C1144.7,621.4,1144.4,621.5,1144.1,621.5z"/>
	<path d="M1146.4,623.7c-0.3,0-0.5-0.1-0.7-0.3c-0.4-0.4-0.4-1.1,0-1.5l0,0c0.4-0.4,1.1-0.4,1.5,0s0.4,1.1,0,1.5l0,0
		C1146.9,623.6,1146.7,623.7,1146.4,623.7z"/>
	<path d="M1153,630.3c-0.3,0-0.5-0.1-0.7-0.3l-2.3-2.3c-0.2-0.2-0.3-0.5-0.3-0.7c0-0.3,0.1-0.5,0.3-0.7l4.6-4.6
		c0.4-0.4,1.1-0.4,1.5,0l4.6,4.6c0.4,0.4,0.4,1.1,0,1.5l-1.8,1.8c-0.4,0.4-1.1,0.4-1.5,0s-0.4-1.1,0-1.5l1-1l-3.1-3.1l-3.1,3.1
		l1.5,1.5c0.4,0.4,0.4,1.1,0,1.5C1153.5,630.2,1153.2,630.3,1153,630.3z"/>
	<path d="M1155.3,632.6c-0.3,0-0.5-0.1-0.7-0.3c-0.4-0.4-0.4-1.1,0-1.5l0,0c0.4-0.4,1.1-0.4,1.5,0s0.4,1.1,0,1.5l0,0
		C1155.8,632.5,1155.5,632.6,1155.3,632.6z"/>
	<path d="M1151.6,614c-0.3,0-0.5-0.1-0.7-0.3l-2.3-2.3c-0.4-0.4-0.4-1.1,0-1.5l4.6-4.6c0.2-0.2,0.5-0.3,0.7-0.3l0,0
		c0.3,0,0.5,0.1,0.7,0.3l4.6,4.6c0.4,0.4,0.4,1.1,0,1.5l-1.8,1.8c-0.4,0.4-1.1,0.4-1.5,0s-0.4-1.1,0-1.5l1-1l-3.1-3.1l-3.1,3.1
		l1.5,1.5c0.4,0.4,0.4,1.1,0,1.5C1152.1,613.9,1151.8,614,1151.6,614z"/>
	<path d="M1153.9,616.3c-0.3,0-0.5-0.1-0.7-0.3c-0.4-0.4-0.4-1.1,0-1.5l0,0c0.4-0.4,1.1-0.4,1.5,0s0.4,1.1,0,1.5l0,0
		C1154.4,616.2,1154.1,616.3,1153.9,616.3z"/>
	<path d="M1160.4,622.9c-0.3,0-0.5-0.1-0.7-0.3l-2.3-2.3c-0.4-0.4-0.4-1.1,0-1.5l4.6-4.6c0.4-0.4,1.1-0.4,1.5,0l4.6,4.6
		c0.2,0.2,0.3,0.5,0.3,0.7c0,0.3-0.1,0.5-0.3,0.7l-1.8,1.8c-0.4,0.4-1.1,0.4-1.5,0s-0.4-1.1,0-1.5l1-1l-3.1-3.1l-3.1,3.1l1.5,1.5
		c0.4,0.4,0.4,1.1,0,1.5C1161,622.7,1160.7,622.9,1160.4,622.9z"/>
	<path d="M1162.7,625.1c-0.3,0-0.5-0.1-0.7-0.3c-0.4-0.4-0.4-1.1,0-1.5l0,0c0.4-0.4,1.1-0.4,1.5,0s0.4,1.1,0,1.5l0,0
		C1163.3,625,1163,625.1,1162.7,625.1z"/>
	<path d="M1159,606.5c-0.3,0-0.5-0.1-0.7-0.3l-2.3-2.3c-0.4-0.4-0.4-1.1,0-1.5l4.6-4.6c0.2-0.2,0.5-0.3,0.7-0.3
		c0.3,0,0.5,0.1,0.7,0.3l4.6,4.6c0.4,0.4,0.4,1.1,0,1.5l-1.8,1.8c-0.4,0.4-1.1,0.4-1.5,0s-0.4-1.1,0-1.5l1-1l-3.1-3.1l-3.1,3.1
		l1.6,1.5c0.4,0.4,0.4,1.1,0,1.5C1159.6,606.4,1159.3,606.5,1159,606.5z"/>
	<path d="M1161.3,608.8c-0.3,0-0.5-0.1-0.7-0.3c-0.4-0.4-0.4-1.1,0-1.5l0,0c0.4-0.4,1.1-0.4,1.5,0s0.4,1.1,0,1.5l0,0
		C1161.9,608.7,1161.6,608.8,1161.3,608.8z"/>
	<path d="M1167.9,615.4c-0.3,0-0.5-0.1-0.7-0.3l-2.3-2.3c-0.4-0.4-0.4-1.1,0-1.5l4.6-4.6c0.2-0.2,0.5-0.3,0.7-0.3l0,0
		c0.3,0,0.5,0.1,0.7,0.3l4.6,4.6c0.4,0.4,0.4,1.1,0,1.5l-1.8,1.8c-0.4,0.4-1.1,0.4-1.5,0s-0.4-1.1,0-1.5l1-1l-3.1-3.1l-3.1,3.1
		l1.5,1.5c0.4,0.4,0.4,1.1,0,1.5C1168.4,615.3,1168.2,615.4,1167.9,615.4z"/>
	<path d="M1170.2,617.7c-0.3,0-0.5-0.1-0.7-0.3c-0.4-0.4-0.4-1.1,0-1.5l0,0c0.4-0.4,1.1-0.4,1.5,0s0.4,1.1,0,1.5l0,0
		C1170.7,617.6,1170.4,617.7,1170.2,617.7z"/>
	<path d="M1148.4,644.3c-1,0-2-0.4-2.7-1.1l0,0l0,0l-15.4-15.4c-1.5-1.5-1.5-3.9,0-5.4l28.1-28.1c0.7-0.7,1.7-1.1,2.7-1.1
		s2,0.4,2.7,1.1l15.4,15.4c1.5,1.5,1.5,3.9,0,5.4l-28.1,28.1C1150.3,643.9,1149.4,644.3,1148.4,644.3z M1161,595.2
		c-0.5,0-0.9,0.2-1.2,0.5l-28.1,28.1c-0.7,0.7-0.7,1.8,0,2.5l15.4,15.4l0,0c0.3,0.3,0.8,0.5,1.2,0.5s0.9-0.2,1.2-0.5l28.1-28.1
		c0.7-0.7,0.7-1.8,0-2.5l-15.4-15.4C1161.9,595.4,1161.5,595.2,1161,595.2z"/>
</g>
<g id="trace">
	<polygon class="st5" points="166.6,1086.1 262.4,1031.1 262.4,920.1 166.6,864.5 68.5,920.1 68.5,1031.1 	"/>
	<path class="st6" d="M236.2,1046.2l26.2-15.1v-111l-95.8-55.6l-47.9,27.2c0,0,3.1,37.3,40.8,88.6
		C197,1031.2,236.2,1046.2,236.2,1046.2z"/>
	<polygon class="st4" points="137.3,880.9 166.2,864 262.5,920.1 262.5,1031.4 165.1,1086.8 68.5,1031.4 68.5,920.1 109.7,896.5 	
		"/>
	<path class="st42" d="M164.3,962.4c-0.5,0-0.9-0.2-1.2-0.6L137.3,931c-0.4-0.5-0.5-1.3-0.1-1.9l8.6-13.7c0.3-0.5,0.8-0.8,1.4-0.8
		h34.5c0.6,0,1.1,0.3,1.4,0.8l8.6,13.7c0.4,0.6,0.3,1.4-0.1,1.9l-25.8,30.9C165.3,962.2,164.8,962.4,164.3,962.4z"/>
	<path class="st43" d="M183,915.4c-0.3-0.5-0.8-0.8-1.4-0.8h-17.3v47.8c0.5,0,0.9-0.2,1.2-0.6l25.8-30.9c0.4-0.5,0.5-1.3,0.1-1.9
		L183,915.4z"/>
	<path class="st44" d="M190.2,928.3h-11.5l4.5-11.5c0.3-0.8-0.1-1.8-0.9-2.1c-0.8-0.3-1.8,0.1-2.1,0.9l-4.4,11.3l-10.2-11.8
		c-0.3-0.4-0.8-0.6-1.2-0.6c-0.5,0-0.9,0.2-1.2,0.6L153,927l-4.4-11.3c-0.3-0.8-1.3-1.2-2.1-0.9s-1.2,1.3-0.9,2.1l4.5,11.5h-11.5
		c-0.9,0-1.6,0.7-1.6,1.6s0.7,1.6,1.6,1.6h12.8l11.6,29.9c0.2,0.6,0.9,1,1.5,1l0,0l0,0l0,0l0,0c0.7,0,1.3-0.4,1.5-1l11.6-29.9h12.8
		c0.9,0,1.6-0.7,1.6-1.6S191.1,928.3,190.2,928.3z M164.3,918.7l8.3,9.7H156L164.3,918.7z M164.3,956.4l-9.6-24.8H174L164.3,956.4z"
		/>
	<path class="st45" d="M164.4,962.4c0.7,0,1.3-0.4,1.5-1l11.6-29.9h12.8c0.9,0,1.6-0.7,1.6-1.6c0-0.9-0.7-1.6-1.6-1.6h-11.5
		l4.5-11.5c0.3-0.8-0.1-1.8-0.9-2.1c-0.8-0.3-1.8,0.1-2.1,0.9l-4.4,11.3l-10.2-11.8c-0.3-0.4-0.8-0.6-1.2-0.6v4.1l8.3,9.7h-8.3v3.2
		h9.6l-9.6,24.8L164.4,962.4L164.4,962.4L164.4,962.4z"/>
	<text transform="matrix(1.0465 0 0 1 128.8652 1002.5264)" class="st7 st22">TRACE</text>
	<text transform="matrix(1.0465 0 0 1 107.1558 1028.9268)" class="st7 st22">MINERALS</text>
</g>
<g id="vanilla">
	<polygon class="st2" points="1243.6,595.6 1339.4,540.5 1339.4,429.5 1243.6,373.9 1145.5,429.5 1145.5,540.5 	"/>
	<path class="st3" d="M1313.2,555.6l26.2-15.1v-111l-95.8-55.6l-47.9,27.2c0,0,3.1,37.3,40.8,88.6
		C1273.9,540.6,1313.2,555.6,1313.2,555.6z"/>
	<polygon class="st4" points="1214.2,390.3 1243.2,373.5 1339.4,429.5 1339.4,540.9 1242.1,596.3 1145.4,540.9 1145.4,429.5 
		1186.7,405.9 	"/>
	<text transform="matrix(1.0465 0 0 1 1192.8105 508.5269)" class="st7 st22">VANILLA</text>
	<text transform="matrix(1.0465 0 0 1 1210.3926 534.9268)" class="st7 st22">BEAN</text>
	<g>
		<path d="M1267.6,467.8c-0.1,0-5.2-2.3-11.8-6.6c-0.2-0.4-0.5-0.8-0.7-1.1c-0.2-0.3-0.4-0.5-0.6-0.8c0.3-0.1,0.7-0.2,1-0.3
			c6.3-2,9.4-9.3,9.5-9.6c0.3-0.7,0-1.5-0.6-1.9c-0.2-0.2-5.4-3.2-10.9-2.7c2.8-3.6,5-7.2,6.6-10.9c0,0,0-0.1,0-0.1
			c1-2.7,0.8-4.2-0.4-4.9c-1.5-0.9-3.1,0.5-5.4,3.4c-0.5,0.7-0.4,1.6,0.2,2.2c0.5,0.4,1.3,0.5,1.8,0.1c-1.6,3.2-3.7,6.4-6.2,9.5
			c-0.3-6.3-5.9-11.2-6.2-11.4c-0.6-0.5-1.4-0.5-2,0c-0.2,0.2-5.6,4.9-6.1,11c-2.4-3-4.3-6-5.9-9c0.5,0.4,1.3,0.4,1.8-0.1
			c0.7-0.5,0.8-1.5,0.2-2.2c-2.3-2.9-3.9-4.3-5.4-3.4c-1.2,0.7-1.3,2.2-0.4,4.9c0,0,0,0.1,0,0.1c1.6,3.7,3.8,7.4,6.6,10.9
			c-5.6-0.8-11.1,2.5-11.3,2.6c-0.7,0.4-0.9,1.2-0.6,1.9c0.1,0.3,3.2,7.6,9.5,9.6c0.3,0.1,0.6,0.2,1,0.3c-0.2,0.3-0.4,0.5-0.6,0.8
			c-0.4,0.5-0.7,1-0.9,1.5c-6.3,4-11.1,6.2-11.2,6.2c-0.8,0.3-1.1,1.3-0.8,2c0.3,0.6,0.8,0.9,1.4,0.9c0.2,0,0.4,0,0.6-0.1
			c0.2-0.1,3.6-1.6,8.5-4.6c-0.6,3.8,0.2,7.2,0.3,7.4c0.2,0.7,0.8,1.2,1.5,1.2c0,0,0.1,0,0.1,0c0.3,0,8.2-0.7,12.1-6.1
			c0.2-0.3,0.4-0.6,0.6-0.8c0.2,0.3,0.4,0.6,0.6,0.8c3.9,5.4,11.7,6.1,12.1,6.1c0.8,0.1,1.4-0.4,1.6-1.2c0.1-0.2,0.9-3.7,0.2-7.6
			c5.1,3.1,8.8,4.7,9,4.8c0.2,0.1,0.4,0.1,0.6,0.1c0.6,0,1.2-0.3,1.4-0.9C1268.7,469,1268.4,468.1,1267.6,467.8z M1261.5,449.4
			c-1.1,1.9-3.4,5.4-7,6.6c-1.1,0.4-2.4,0.5-3.8,0.4c-0.7-0.1-1.4,0.4-1.6,1.1c-0.1,0.2-0.1,0.3-0.1,0.5l-0.3-1.9l3.5-3.4
			c0.4-0.4,0.6-1,0.4-1.6c-0.2-0.6-0.7-1-1.2-1l-2.2-0.3c0.9-0.7,1.8-1.2,2.8-1.5C1255.5,447,1259.5,448.5,1261.5,449.4z
			 M1245.5,455.8l0.4,2.6l-2.3-1.2c-0.2-0.1-0.5-0.2-0.7-0.2c-0.2,0-0.5,0.1-0.7,0.2l-2.3,1.2l0.4-2.6c0.1-0.5-0.1-1-0.4-1.4
			l-1.9-1.8l2.6-0.4c0.5-0.1,0.9-0.4,1.2-0.8l1.2-2.4l1.2,2.4c0.2,0.5,0.7,0.8,1.2,0.8l2.6,0.4l-1.9,1.8
			C1245.6,454.8,1245.4,455.3,1245.5,455.8z M1242.9,435.9c1.5,1.6,4.1,4.9,4.1,8.7c0,1.2-0.3,2.5-0.8,3.8c0,0.1-0.1,0.2-0.1,0.2
			l-1.8-3.7c-0.3-0.5-0.8-0.9-1.4-0.9c-0.6,0-1.1,0.3-1.4,0.9l-1.8,3.7c0-0.1-0.1-0.2-0.1-0.3c-0.5-1.3-0.8-2.5-0.8-3.7
			C1238.8,440.9,1241.4,437.5,1242.9,435.9z M1231.3,456c-3.6-1.2-5.9-4.7-7-6.6c2-0.9,6-2.4,9.5-1.2c1,0.3,1.9,0.8,2.8,1.5
			l-2.2,0.3c-0.6,0.1-1.1,0.5-1.2,1s0,1.2,0.4,1.6l3.5,3.4l-0.3,1.8c0-0.8-0.6-1.4-1.3-1.5c-0.1,0-0.2,0-0.4,0
			C1233.7,456.5,1232.4,456.4,1231.3,456z M1254.4,471.3c-2.1-0.4-6.2-1.6-8.4-4.6c-0.7-1-1.2-2.1-1.5-3.5c-0.1-0.6-0.5-1-1.1-1.2
			c-0.8-0.2-1.6,0.2-1.9,1c0,0,0,0.1,0,0.1c-0.3,1.4-0.8,2.5-1.5,3.5c-2.2,3-6.3,4.2-8.4,4.6c-0.3-2.2-0.4-6.4,1.8-9.5
			c0.7-1,1.7-1.8,2.8-2.5c0.3-0.2,0.6-0.5,0.7-0.8l-0.4,2.5c-0.1,0.6,0.1,1.2,0.6,1.5c0.5,0.3,1.1,0.4,1.6,0.1l4.4-2.3l4.4,2.3
			c0.2,0.1,0.5,0.2,0.7,0.2c0,0,0,0,0,0c0.9,0,1.5-0.7,1.5-1.5c0-0.1,0-0.3,0-0.4l-0.4-2.4c0.1,0.3,0.3,0.6,0.7,0.8
			c1.2,0.7,2.2,1.6,2.9,2.6C1254.8,464.9,1254.6,469.1,1254.4,471.3z"/>
	</g>
</g>
</svg>
