<?xml version="1.0" encoding="UTF-8"?>
<svg width="1440px" height="904px" viewBox="0 0 1440 904" version="1.1" xmlns="http://www.w3.org/2000/svg" xmlns:xlink="http://www.w3.org/1999/xlink">
    <!-- Generator: Sketch 43.1 (39012) - http://www.bohemiancoding.com/sketch -->
    <title>Group 11</title>
    <desc>Created with Sketch.</desc>
    <defs>
        <polygon id="path-1" points="0.766378917 917.401446 0.766378917 475.538153 406.392842 241.354919 833.576357 241.354919 1074.5886 0.383729868 1440 0.383729868 1440 85.5535633 1440 792.297833 1440 887.846593 1440 917.401446 1600.55002 984.64573 1440 1157.73589 1205.5044 1079.67713 611.332631 1235.34997 0.766378917 1526.84307"></polygon>
        <polygon id="path-3" points="22.6151538 0.27257744 29.1202788 0.27257744 29.1202788 44.0934095 0 44.0934095 0 0.27257744 22.6151538 0.27257744 7.99991645e-06 0.271565012 7.99991645e-06 29.206467 22.6151538 29.206467"></polygon>
        <polygon id="path-5" points="81.5452115 0.00248510427 0 0.00248510427 0 90.5944762 81.5452115 90.5944762 81.5452115 0.00248510427"></polygon>
    </defs>
    <g id="Welcome" stroke="none" stroke-width="1" fill="none" fill-rule="evenodd">
        <g id="Desktop-HD-Copy-4" transform="translate(0.000000, -3434.000000)">
            <g id="Group-11" transform="translate(0.000000, 2867.000000)">
                <g id="Group-10">
                    <mask id="mask-2" fill="white">
                        <use xlink:href="#path-1"></use>
                    </mask>
                    <g id="Mask"></g>
                    <g mask="url(#mask-2)">
                        <g transform="translate(-453.000000, 567.000000)">
                            <g id="honeycomb-copy" transform="translate(354.154728, 359.687679)">
                                <g id="Group" transform="translate(149.210602, 9.095989)" fill-rule="nonzero" fill="#F79B43">
                                    <polygon id="Shape" points="283.315473 283.306017 283.315473 364.246705 212.493123 404.716619 141.669914 364.246705 141.669914 283.306017 212.695129 242.835244"></polygon>
                                    <polygon id="Shape" points="141.646418 283.369341 141.646418 364.310029 70.8232092 404.779943 0 364.310029 0 283.369341 70.9246418 243"></polygon>
                                    <polygon id="Shape" points="141.646418 40.469914 141.646418 121.410602 70.8232092 161.881375 0.20286533 121.410602 0.101432665 121.512034 0 121.410602 0 40.469914 71.0252149 0"></polygon>
                                </g>
                                <g id="Group" transform="translate(7.376791, 9.095989)" fill-rule="nonzero" fill="#FFD248">
                                    <polygon id="Shape" points="141.857307 283.306017 141.857307 364.246705 71.0340974 404.716619 0.211747851 364.246705 0.211747851 283.306017 71.1355301 242.936676"></polygon>
                                    <polygon id="Shape" points="425.149284 40.4839542 425.149284 121.424642 354.326934 161.895415 283.705731 121.424642 283.605158 121.526074 283.503725 121.424642 283.503725 40.4839542 354.52894 0.0140401146"></polygon>
                                    <polygon id="Shape" points="354.326934 161.895415 354.326934 242.835244 283.503725 283.306017 212.882521 242.835244 212.781948 242.936676 212.680516 242.835244 212.680516 161.895415 283.605158 121.526074"></polygon>
                                    <polygon id="Shape" points="212.680516 161.895415 212.680516 242.835244 141.857307 283.306017 71.2369628 242.835244 71.1355301 242.936676 71.0340974 242.835244 71.0340974 161.895415 141.958739 121.526074"></polygon>
                                    <polygon id="Shape" points="141.857307 40.4839542 141.857307 121.424642 71.0340974 161.895415 0.211747851 121.424642 0.211747851 40.4839542 71.2369628 0.0140401146"></polygon>
                                </g>
                                <g id="Group" transform="translate(6.876791, 29.226361)" fill-rule="nonzero" fill="#FDC147">
                                    <path d="M36.9189112,0.118624642 L0.711747851,20.7507163 L0.711747851,101.690544 L71.534957,142.160458 L122.695702,112.925501 C80.5959885,88.774212 49.2137536,48.330086 36.9189112,0.118624642 Z" id="Shape"></path>
                                    <path d="M107.74212,121.529226 L71.5340974,142.161318 L71.5340974,223.102006 L142.357307,263.57192 L193.518052,234.336963 C151.418338,210.184814 120.036963,169.740688 107.74212,121.529226 Z" id="Shape"></path>
                                    <path d="M249.388539,121.132951 L213.180516,141.765043 L213.180516,222.705731 L284.003725,263.175645 L335.16447,233.940688 C293.064756,209.788539 261.683381,169.344413 249.388539,121.132951 Z" id="Shape"></path>
                                    <path d="M320.211748,0.118624642 L284.003725,20.7507163 L284.003725,101.690544 L354.826934,142.160458 L405.987679,112.925501 C363.887966,88.774212 332.50659,48.330086 320.211748,0.118624642 Z" id="Shape"></path>
                                    <path d="M36.9189112,242.940688 L0.711747851,263.57192 L0.711747851,344.512607 L71.534957,384.982521 L122.695702,355.747564 C80.5959885,331.595415 49.2137536,291.151289 36.9189112,242.940688 Z" id="Shape"></path>
                                </g>
                                <g id="Group" transform="translate(149.210602, 29.226361)" fill-rule="nonzero" fill="#F78F41">
                                    <path d="M36.2315186,0.118624642 L0.023495702,20.7507163 L0.023495702,101.690544 L70.8467049,142.161318 L122.00745,112.926361 C79.9077364,88.774212 48.526361,48.330086 36.2315186,0.118624642 Z" id="Shape"></path>
                                    <path d="M36.2315186,242.940688 L0.023495702,263.572779 L0.023495702,344.513467 L70.8467049,384.983381 L122.00745,355.748424 C79.9077364,331.595415 48.526361,291.151289 36.2315186,242.940688 Z" id="Shape"></path>
                                    <path d="M177.877937,242.940688 L141.669914,263.572779 L141.669914,344.513467 L212.493123,384.983381 L263.653868,355.748424 C221.554155,331.595415 190.172779,291.151289 177.877937,242.940688 Z" id="Shape"></path>
                                </g>
                                <path d="M440.114613,134.925215 L440.114613,45.1830946 L361.916905,0.370487106 L290.891691,40.8404011 L220.271347,0.370487106 L149.246132,40.8404011 L78.625788,0.370487106 L54.4203438,14.1618911 L61.9332378,27.3481375 L78.6025788,17.8495702 L141.645559,53.9776504 L141.645559,126.116905 L78.4108883,162.251003 L15.1762178,126.116905 L15.1762178,53.9896848 L41.6948424,38.8796562 L34.1819484,25.6934097 L0,45.1710602 L0,134.925215 L70.8232092,175.395129 L70.8232092,247.678797 L0,287.989685 L0,377.745559 L78.4108883,422.552149 L149.234097,382.082235 L220.057307,422.552149 L290.880516,382.082235 L361.703725,422.552149 L392.029513,405.223496 L384.501146,392.047564 L361.704585,405.073066 L298.469914,368.938968 L298.469914,296.811748 L361.896275,260.670774 L424.940115,296.798854 L424.940115,368.938109 L402.202006,381.931805 L409.730372,395.107736 L440.114613,377.746418 L440.114613,288.004298 L369.291404,247.417479 L369.291404,175.394269 L440.114613,134.925215 Z M361.894556,17.8495702 L424.938395,53.9776504 L424.938395,126.116905 L361.708883,162.247564 L298.469054,126.007736 L298.469054,53.9896848 L361.894556,17.8495702 Z M149.329513,139.356447 L212.469628,175.397708 L212.469628,247.528367 L149.240115,283.659026 L86.0002865,247.419198 L86.0002865,175.404585 L149.329513,139.356447 Z M290.885673,283.659026 L227.645845,247.417479 L227.645845,175.402865 L290.975931,139.355587 L354.116046,175.396848 L354.116046,247.527507 L290.885673,283.659026 Z M283.291977,53.97851 L283.291977,126.117765 L220.062464,162.248424 L156.822636,126.006877 L156.822636,53.9896848 L220.248997,17.8487106 L283.291977,53.97851 Z M78.4108883,405.073066 L15.1762178,368.938109 L15.1762178,296.812607 L78.5063037,260.76533 L141.646418,296.80745 L141.646418,368.937249 L78.4108883,405.073066 Z M220.057307,405.073066 L156.822636,368.938968 L156.822636,296.813467 L220.152722,260.766189 L283.292837,296.80659 L283.292837,368.93639 L220.057307,405.073066 Z" id="Shape" fill="#000000" fill-rule="nonzero"></path>
                            </g>
                            <g id="honeycomb-copy-3" transform="translate(432.378223, 853.957020)">
                                <g id="Group" fill-rule="nonzero" fill="#FFD248">
                                    <polygon id="Shape" points="354.826934 41.1919771 354.826934 122.131805 284.003725 162.602579 213.382521 122.131805 213.281948 122.233238 213.180516 122.131805 213.180516 41.1919771 284.105158 0.822636103"></polygon>
                                </g>
                                <g id="Group" transform="translate(0.000000, 19.770774)" fill-rule="nonzero" fill="#FDC147">
                                    <path d="M249.388539,0.789111748 L213.180516,21.4212034 L213.180516,102.361891 L284.003725,142.831805 L335.16447,113.596848 C293.064756,89.4446991 261.683381,49.0005731 249.388539,0.789111748 Z" id="Shape"></path>
                                </g>
                                <polygon id="Shape" fill="#FFFFFF" fill-rule="nonzero" points="280.610029 53.0372493 306.768481 66.1160458 306.768481 106.955587 321.944699 106.955587 321.944699 56.7369628 287.397421 39.4633238"></polygon>
                                <polygon id="Shape" fill="#000000" fill-rule="nonzero" points="165.122063 106.955587 180.298281 106.955587 180.298281 56.7369628 145.751003 39.4633238 138.96361 53.0372493 165.122063 66.1160458"></polygon>
                            </g>
                            <g id="honeycomb-copy-2" transform="translate(786.532951, 649.372493)">
                                <g id="Group" transform="translate(141.833811, 204.584527)" fill-rule="nonzero" fill="#F79B43">
                                    <polygon id="Shape" points="283.815473 40.5395415 283.815473 121.480229 212.993123 161.950143 142.169914 121.480229 142.169914 40.5395415 213.195129 0.0687679083"></polygon>
                                    <polygon id="Shape" points="142.169914 40.5395415 142.169914 121.480229 71.3467049 161.950143 0.523495702 121.480229 0.523495702 40.5395415 71.4481375 0.170200573"></polygon>
                                </g>
                                <g id="Group" transform="translate(0.000000, 204.584527)" fill-rule="nonzero" fill="#FFD248">
                                    <polygon id="Shape" points="142.357307 40.5395415 142.357307 121.480229 71.5340974 161.950143 0.711747851 121.480229 0.711747851 40.5395415 71.6355301 0.170200573"></polygon>
                                </g>
                                <g id="Group" transform="translate(0.000000, 224.355301)" fill-rule="nonzero" fill="#FDC147">
                                    <path d="M36.9189112,0.533810888 L0.711747851,21.165043 L0.711747851,102.105731 L71.534957,142.575645 L122.695702,113.340688 C80.5959885,89.1885387 49.2137536,48.7444126 36.9189112,0.533810888 Z" id="Shape"></path>
                                </g>
                                <g id="Group" transform="translate(141.833811, 224.355301)" fill-rule="nonzero" fill="#F78F41">
                                    <path d="M36.7315186,0.533810888 L0.523495702,21.1659026 L0.523495702,102.10659 L71.3467049,142.576504 L122.50745,113.341547 C80.4077364,89.1885387 49.026361,48.7444126 36.7315186,0.533810888 Z" id="Shape"></path>
                                    <path d="M178.377937,0.533810888 L142.169914,21.1659026 L142.169914,102.10659 L212.993123,142.576504 L264.153868,113.341547 C222.054155,89.1885387 190.672779,48.7444126 178.377937,0.533810888 Z" id="Shape"></path>
                                </g>
                                <polygon id="Shape" fill="#FFFFFF" fill-rule="nonzero" points="280.610029 135.558739 306.768481 148.637536 306.768481 189.477077 321.944699 189.477077 321.944699 139.258453 287.397421 121.984814"></polygon>
                                <polygon id="Shape" fill="#000000" fill-rule="nonzero" points="351.433238 256.969341 377.590831 270.048997 377.590831 310.888539 392.767908 310.888539 392.767908 260.669914 358.219771 243.396275"></polygon>
                                <polygon id="Shape" fill="#000000" fill-rule="nonzero" points="377.590831 68.0664756 392.767908 68.0664756 392.767908 17.847851 358.219771 0.574212034 351.433238 14.1481375 377.590831 27.2269341"></polygon>
                                <polygon id="Shape" fill="#000000" fill-rule="nonzero" points="209.786819 256.969341 235.945272 270.048997 235.945272 310.888539 251.12149 310.888539 251.12149 260.669914 216.574212 243.396275"></polygon>
                                <polygon id="Shape" fill="#FFFFFF" fill-rule="nonzero" points="68.1412607 256.969341 94.2988539 270.048997 94.2988539 310.888539 109.475072 310.888539 109.475072 260.669914 74.9277937 243.396275"></polygon>
                            </g>
                            <g id="honeycomb-copy-5" transform="translate(705.730659, 241.063037)">
                                <g id="Group" transform="translate(148.710602, 8.595989)" fill-rule="nonzero" fill="#F79B43">
                                    <polygon id="Shape" points="282.645559 283.470774 282.645559 364.411461 211.823209 404.881375 141 364.411461 141 283.470774 212.025215 243"></polygon>
                                    <polygon id="Shape" points="142.169914 283.806017 142.169914 364.746705 71.3467049 405.216619 0.523495702 364.746705 0.523495702 283.806017 71.4481375 243.436676"></polygon>
                                    <polygon id="Shape" points="142.169914 40.9839542 142.169914 121.924642 71.3467049 162.395415 0.726361032 121.924642 0.624928367 122.026074 0.523495702 121.924642 0.523495702 40.9839542 71.5487106 0.514040115"></polygon>
                                </g>
                                <g id="Group" transform="translate(7.376791, 9.095989)" fill-rule="nonzero" fill="#FFD248">
                                    <polygon id="Shape" points="141.645559 283.369341 141.645559 364.310029 70.8223496 404.779943 0 364.310029 0 283.369341 70.9237822 243"></polygon>
                                    <polygon id="Shape" points="425.149284 40.4839542 425.149284 121.424642 354.326934 161.895415 283.705731 121.424642 283.605158 121.526074 283.503725 121.424642 283.503725 40.4839542 354.52894 0.0140401146"></polygon>
                                    <polygon id="Shape" points="354.326934 161.895415 354.326934 242.835244 283.503725 283.306017 212.882521 242.835244 212.781948 242.936676 212.680516 242.835244 212.680516 161.895415 283.605158 121.526074"></polygon>
                                    <polygon id="Shape" points="212.680516 161.895415 212.680516 242.835244 141.857307 283.306017 71.2369628 242.835244 71.1355301 242.936676 71.0340974 242.835244 71.0340974 161.895415 141.958739 121.526074"></polygon>
                                    <polygon id="Shape" points="141.857307 40.4839542 141.857307 121.424642 71.0340974 161.895415 0.211747851 121.424642 0.211747851 40.4839542 71.2369628 0.0140401146"></polygon>
                                </g>
                                <g id="Group" transform="translate(7.376791, 29.226361)" fill-rule="nonzero" fill="#FDC147">
                                    <path d="M36.4189112,0.118624642 L0.211747851,20.7507163 L0.211747851,101.690544 L71.034957,142.160458 L122.195702,112.925501 C80.0959885,88.774212 48.7137536,48.330086 36.4189112,0.118624642 Z" id="Shape"></path>
                                    <path d="M107.24212,121.529226 L71.0340974,142.161318 L71.0340974,223.102006 L141.857307,263.57192 L193.018052,234.336963 C150.918338,210.184814 119.536963,169.740688 107.24212,121.529226 Z" id="Shape"></path>
                                    <path d="M248.888539,121.132951 L212.680516,141.765043 L212.680516,222.705731 L283.503725,263.175645 L334.66447,233.940688 C292.564756,209.788539 261.183381,169.344413 248.888539,121.132951 Z" id="Shape"></path>
                                    <path d="M319.711748,0.118624642 L283.503725,20.7507163 L283.503725,101.690544 L354.326934,142.160458 L405.487679,112.925501 C363.387966,88.774212 332.00659,48.330086 319.711748,0.118624642 Z" id="Shape"></path>
                                    <path d="M36.4189112,242.940688 L0.211747851,263.57192 L0.211747851,344.512607 L71.034957,384.982521 L122.195702,355.747564 C80.0959885,331.595415 48.7137536,291.151289 36.4189112,242.940688 Z" id="Shape"></path>
                                </g>
                                <g id="Group" transform="translate(148.710602, 29.226361)" fill-rule="nonzero" fill="#F78F41">
                                    <path d="M36.7315186,0.118624642 L0.523495702,20.7507163 L0.523495702,101.690544 L71.3467049,142.161318 L122.50745,112.926361 C80.4077364,88.774212 49.026361,48.330086 36.7315186,0.118624642 Z" id="Shape"></path>
                                    <path d="M36.7315186,242.940688 L0.523495702,263.572779 L0.523495702,344.513467 L71.3467049,384.983381 L122.50745,355.748424 C80.4077364,331.595415 49.026361,291.151289 36.7315186,242.940688 Z" id="Shape"></path>
                                    <path d="M178.377937,242.940688 L142.169914,263.572779 L142.169914,344.513467 L212.993123,384.983381 L264.153868,355.748424 C222.054155,331.595415 190.672779,291.151289 178.377937,242.940688 Z" id="Shape"></path>
                                </g>
                                <path d="M440.114613,134.925215 L440.114613,45.1830946 L361.916905,0.370487106 L290.891691,40.8404011 L220.271347,0.370487106 L149.246132,40.8404011 L78.625788,0.370487106 L54.4203438,14.1618911 L61.9332378,27.3481375 L78.6025788,17.8495702 L141.645559,53.9776504 L141.645559,126.116905 L78.4108883,162.251003 L15.1762178,126.116905 L15.1762178,53.9896848 L41.6948424,38.8796562 L34.1819484,25.6934097 L0,45.1710602 L0,134.925215 L70.8232092,175.395129 L70.8232092,247.678797 L0,287.989685 L0,377.745559 L78.4108883,422.552149 L149.234097,382.082235 L220.057307,422.552149 L290.880516,382.082235 L361.703725,422.552149 L392.029513,405.223496 L384.501146,392.047564 L361.704585,405.073066 L298.469914,368.938968 L298.469914,296.811748 L361.896275,260.670774 L424.940115,296.798854 L424.940115,368.938109 L402.202006,381.931805 L409.730372,395.107736 L440.114613,377.746418 L440.114613,288.004298 L369.291404,247.417479 L369.291404,175.394269 L440.114613,134.925215 Z M361.894556,17.8495702 L424.938395,53.9776504 L424.938395,126.116905 L361.708883,162.247564 L298.469054,126.007736 L298.469054,53.9896848 L361.894556,17.8495702 Z M149.329513,139.356447 L212.469628,175.397708 L212.469628,247.528367 L149.240115,283.659026 L86.0002865,247.419198 L86.0002865,175.404585 L149.329513,139.356447 Z M290.885673,283.659026 L227.645845,247.417479 L227.645845,175.402865 L290.975931,139.355587 L354.116046,175.396848 L354.116046,247.527507 L290.885673,283.659026 Z M283.291977,53.97851 L283.291977,126.117765 L220.062464,162.248424 L156.822636,126.006877 L156.822636,53.9896848 L220.248997,17.8487106 L283.291977,53.97851 Z M78.4108883,405.073066 L15.1762178,368.938109 L15.1762178,296.812607 L78.5063037,260.76533 L141.646418,296.80745 L141.646418,368.937249 L78.4108883,405.073066 Z M220.057307,405.073066 L156.822636,368.938968 L156.822636,296.813467 L220.152722,260.766189 L283.292837,296.80659 L283.292837,368.93639 L220.057307,405.073066 Z" id="Shape" fill="#000000" fill-rule="nonzero"></path>
                            </g>
                            <g id="honeycomb-copy-7" transform="translate(1344.000000, 119.000000)">
                                <g id="Group" transform="translate(146.210602, 9.095989)" fill-rule="nonzero" fill="#F79B43">
                                    <polygon id="Shape" points="286.315473 283.306017 286.315473 364.246705 215.493123 404.716619 144.669914 364.246705 144.669914 283.306017 215.695129 242.835244"></polygon>
                                    <polygon id="Shape" points="141.646418 283.369341 141.646418 364.310029 70.8232092 404.779943 0 364.310029 0 283.369341 70.9246418 243"></polygon>
                                    <polygon id="Shape" points="144.646418 40.469914 144.646418 121.410602 73.8232092 161.881375 3.20286533 121.410602 3.10143266 121.512034 3 121.410602 3 40.469914 74.0252149 0"></polygon>
                                </g>
                                <g id="Group" transform="translate(7.376791, 9.095989)" fill-rule="nonzero" fill="#FFD248">
                                    <polygon id="Shape" points="141.857307 283.306017 141.857307 364.246705 71.0340974 404.716619 0.211747851 364.246705 0.211747851 283.306017 71.1355301 242.936676"></polygon>
                                    <polygon id="Shape" points="425.149284 40.4839542 425.149284 121.424642 354.326934 161.895415 283.705731 121.424642 283.605158 121.526074 283.503725 121.424642 283.503725 40.4839542 354.52894 0.0140401146"></polygon>
                                    <polygon id="Shape" points="354.326934 161.895415 354.326934 242.835244 283.503725 283.306017 212.882521 242.835244 212.781948 242.936676 212.680516 242.835244 212.680516 161.895415 283.605158 121.526074"></polygon>
                                    <polygon id="Shape" points="212.680516 161.895415 212.680516 242.835244 141.857307 283.306017 71.2369628 242.835244 71.1355301 242.936676 71.0340974 242.835244 71.0340974 161.895415 141.958739 121.526074"></polygon>
                                    <polygon id="Shape" points="141.857307 40.4839542 141.857307 121.424642 71.0340974 161.895415 0.211747851 121.424642 0.211747851 40.4839542 71.2369628 0.0140401146"></polygon>
                                </g>
                                <g id="Group" transform="translate(6.876791, 29.226361)" fill-rule="nonzero" fill="#FDC147">
                                    <path d="M36.9189112,0.118624642 L0.711747851,20.7507163 L0.711747851,101.690544 L71.534957,142.160458 L122.695702,112.925501 C80.5959885,88.774212 49.2137536,48.330086 36.9189112,0.118624642 Z" id="Shape"></path>
                                    <path d="M107.74212,121.529226 L71.5340974,142.161318 L71.5340974,223.102006 L142.357307,263.57192 L193.518052,234.336963 C151.418338,210.184814 120.036963,169.740688 107.74212,121.529226 Z" id="Shape"></path>
                                    <path d="M249.388539,121.132951 L213.180516,141.765043 L213.180516,222.705731 L284.003725,263.175645 L335.16447,233.940688 C293.064756,209.788539 261.683381,169.344413 249.388539,121.132951 Z" id="Shape"></path>
                                    <path d="M320.211748,0.118624642 L284.003725,20.7507163 L284.003725,101.690544 L354.826934,142.160458 L405.987679,112.925501 C363.887966,88.774212 332.50659,48.330086 320.211748,0.118624642 Z" id="Shape"></path>
                                    <path d="M36.9189112,242.940688 L0.711747851,263.57192 L0.711747851,344.512607 L71.534957,384.982521 L122.695702,355.747564 C80.5959885,331.595415 49.2137536,291.151289 36.9189112,242.940688 Z" id="Shape"></path>
                                </g>
                                <g id="Group" transform="translate(149.210602, 29.226361)" fill-rule="nonzero" fill="#F78F41">
                                    <path d="M36.2315186,0.118624642 L0.023495702,20.7507163 L0.023495702,101.690544 L70.8467049,142.161318 L122.00745,112.926361 C79.9077364,88.774212 48.526361,48.330086 36.2315186,0.118624642 Z" id="Shape"></path>
                                    <path d="M36.2315186,242.940688 L0.023495702,263.572779 L0.023495702,344.513467 L70.8467049,384.983381 L122.00745,355.748424 C79.9077364,331.595415 48.526361,291.151289 36.2315186,242.940688 Z" id="Shape"></path>
                                    <path d="M177.877937,242.940688 L141.669914,263.572779 L141.669914,344.513467 L212.493123,384.983381 L263.653868,355.748424 C221.554155,331.595415 190.172779,291.151289 177.877937,242.940688 Z" id="Shape"></path>
                                </g>
                                <path d="M440.114613,134.925215 L440.114613,45.1830946 L361.916905,0.370487106 L290.891691,40.8404011 L220.271347,0.370487106 L149.246132,40.8404011 L78.625788,0.370487106 L54.4203438,14.1618911 L61.9332378,27.3481375 L78.6025788,17.8495702 L141.645559,53.9776504 L141.645559,126.116905 L78.4108883,162.251003 L15.1762178,126.116905 L15.1762178,53.9896848 L41.6948424,38.8796562 L34.1819484,25.6934097 L0,45.1710602 L0,134.925215 L70.8232092,175.395129 L70.8232092,247.678797 L0,287.989685 L0,377.745559 L78.4108883,422.552149 L149.234097,382.082235 L220.057307,422.552149 L290.880516,382.082235 L361.703725,422.552149 L392.029513,405.223496 L384.501146,392.047564 L361.704585,405.073066 L298.469914,368.938968 L298.469914,296.811748 L361.896275,260.670774 L424.940115,296.798854 L424.940115,368.938109 L402.202006,381.931805 L409.730372,395.107736 L440.114613,377.746418 L440.114613,288.004298 L369.291404,247.417479 L369.291404,175.394269 L440.114613,134.925215 Z M361.894556,17.8495702 L424.938395,53.9776504 L424.938395,126.116905 L361.708883,162.247564 L298.469054,126.007736 L298.469054,53.9896848 L361.894556,17.8495702 Z M149.329513,139.356447 L212.469628,175.397708 L212.469628,247.528367 L149.240115,283.659026 L86.0002865,247.419198 L86.0002865,175.404585 L149.329513,139.356447 Z M290.885673,283.659026 L227.645845,247.417479 L227.645845,175.402865 L290.975931,139.355587 L354.116046,175.396848 L354.116046,247.527507 L290.885673,283.659026 Z M283.291977,53.97851 L283.291977,126.117765 L220.062464,162.248424 L156.822636,126.006877 L156.822636,53.9896848 L220.248997,17.8487106 L283.291977,53.97851 Z M78.4108883,405.073066 L15.1762178,368.938109 L15.1762178,296.812607 L78.5063037,260.76533 L141.646418,296.80745 L141.646418,368.937249 L78.4108883,405.073066 Z M220.057307,405.073066 L156.822636,368.938968 L156.822636,296.813467 L220.152722,260.766189 L283.292837,296.80659 L283.292837,368.93639 L220.057307,405.073066 Z" id="Shape" fill="#000000" fill-rule="nonzero"></path>
                            </g>
                            <g id="honeycomb-copy-6" transform="translate(1695.000000, 0.000000)">
                                <g id="Group" transform="translate(148.710602, 8.595989)" fill-rule="nonzero" fill="#F79B43">
                                    <polygon id="Shape" points="142.169914 283.806017 142.169914 364.746705 71.3467049 405.216619 0.523495702 364.746705 0.523495702 283.806017 71.4481375 243.436676"></polygon>
                                    <polygon id="Shape" points="142.169914 40.9839542 142.169914 121.924642 71.3467049 162.395415 0.726361032 121.924642 0.624928367 122.026074 0.523495702 121.924642 0.523495702 40.9839542 71.5487106 0.514040115"></polygon>
                                </g>
                                <g id="Group" transform="translate(7.376791, 9.095989)" fill-rule="nonzero" fill="#FFD248">
                                    <polygon id="Shape" points="141.645559 283.369341 141.645559 364.310029 70.8223496 404.779943 0 364.310029 0 283.369341 70.9237822 243"></polygon>
                                    <polygon id="Shape" points="212.680516 161.895415 212.680516 242.835244 141.857307 283.306017 71.2369628 242.835244 71.1355301 242.936676 71.0340974 242.835244 71.0340974 161.895415 141.958739 121.526074"></polygon>
                                    <polygon id="Shape" points="141.857307 40.4839542 141.857307 121.424642 71.0340974 161.895415 0.211747851 121.424642 0.211747851 40.4839542 71.2369628 0.0140401146"></polygon>
                                </g>
                                <g id="Group" transform="translate(7.376791, 29.226361)" fill-rule="nonzero" fill="#FDC147">
                                    <path d="M36.4189112,0.118624642 L0.211747851,20.7507163 L0.211747851,101.690544 L71.034957,142.160458 L122.195702,112.925501 C80.0959885,88.774212 48.7137536,48.330086 36.4189112,0.118624642 Z" id="Shape"></path>
                                    <path d="M107.24212,121.529226 L71.0340974,142.161318 L71.0340974,223.102006 L141.857307,263.57192 L193.018052,234.336963 C150.918338,210.184814 119.536963,169.740688 107.24212,121.529226 Z" id="Shape"></path>
                                    <path d="M36.4189112,242.940688 L0.211747851,263.57192 L0.211747851,344.512607 L71.034957,384.982521 L122.195702,355.747564 C80.0959885,331.595415 48.7137536,291.151289 36.4189112,242.940688 Z" id="Shape"></path>
                                </g>
                                <g id="Group" transform="translate(148.710602, 29.226361)" fill-rule="nonzero" fill="#F78F41">
                                    <path d="M36.7315186,0.118624642 L0.523495702,20.7507163 L0.523495702,101.690544 L71.3467049,142.161318 L122.50745,112.926361 C80.4077364,88.774212 49.026361,48.330086 36.7315186,0.118624642 Z" id="Shape"></path>
                                    <path d="M36.7315186,242.940688 L0.523495702,263.572779 L0.523495702,344.513467 L71.3467049,384.983381 L122.50745,355.748424 C80.4077364,331.595415 49.026361,291.151289 36.7315186,242.940688 Z" id="Shape"></path>
                                </g>
                                <path d="M440.114613,134.925215 L440.114613,45.1830946 L361.916905,0.370487106 L290.891691,40.8404011 L220.271347,0.370487106 L149.246132,40.8404011 L78.625788,0.370487106 L54.4203438,14.1618911 L61.9332378,27.3481375 L78.6025788,17.8495702 L141.645559,53.9776504 L141.645559,126.116905 L78.4108883,162.251003 L15.1762178,126.116905 L15.1762178,53.9896848 L41.6948424,38.8796562 L34.1819484,25.6934097 L0,45.1710602 L0,134.925215 L70.8232092,175.395129 L70.8232092,247.678797 L0,287.989685 L0,377.745559 L78.4108883,422.552149 L149.234097,382.082235 L220.057307,422.552149 L290.880516,382.082235 L361.703725,422.552149 L392.029513,405.223496 L384.501146,392.047564 L361.704585,405.073066 L298.469914,368.938968 L298.469914,296.811748 L361.896275,260.670774 L424.940115,296.798854 L424.940115,368.938109 L402.202006,381.931805 L409.730372,395.107736 L440.114613,377.746418 L440.114613,288.004298 L369.291404,247.417479 L369.291404,175.394269 L440.114613,134.925215 Z M361.894556,17.8495702 L424.938395,53.9776504 L424.938395,126.116905 L361.708883,162.247564 L298.469054,126.007736 L298.469054,53.9896848 L361.894556,17.8495702 Z M149.329513,139.356447 L212.469628,175.397708 L212.469628,247.528367 L149.240115,283.659026 L86.0002865,247.419198 L86.0002865,175.404585 L149.329513,139.356447 Z M290.885673,283.659026 L227.645845,247.417479 L227.645845,175.402865 L290.975931,139.355587 L354.116046,175.396848 L354.116046,247.527507 L290.885673,283.659026 Z M283.291977,53.97851 L283.291977,126.117765 L220.062464,162.248424 L156.822636,126.006877 L156.822636,53.9896848 L220.248997,17.8487106 L283.291977,53.97851 Z M78.4108883,405.073066 L15.1762178,368.938109 L15.1762178,296.812607 L78.5063037,260.76533 L141.646418,296.80745 L141.646418,368.937249 L78.4108883,405.073066 Z M220.057307,405.073066 L156.822636,368.938968 L156.822636,296.813467 L220.152722,260.766189 L283.292837,296.80659 L283.292837,368.93639 L220.057307,405.073066 Z" id="Shape" fill="#000000" fill-rule="nonzero"></path>
                            </g>
                            <g id="honeycomb-copy-4" transform="translate(1059.885387, 119.000000)">
                                <g id="Group" transform="translate(148.710602, 9.595989)" fill-rule="nonzero" fill="#F79B43">
                                    <polygon id="Shape" points="283.815473 282.806017 283.815473 363.746705 212.993123 404.216619 142.169914 363.746705 142.169914 282.806017 213.195129 242.335244"></polygon>
                                    <polygon id="Shape" points="142.169914 282.806017 142.169914 363.746705 71.3467049 404.216619 0.523495702 363.746705 0.523495702 282.806017 71.4481375 242.436676"></polygon>
                                    <polygon id="Shape" points="142.646418 40.469914 142.646418 121.410602 71.8232092 161.881375 1.20286533 121.410602 1.10143266 121.512034 1 121.410602 1 40.469914 72.0252149 0"></polygon>
                                </g>
                                <g id="Group" transform="translate(6.876791, 8.595989)" fill-rule="nonzero" fill="#FFD248">
                                    <polygon id="Shape" points="142.357307 283.806017 142.357307 364.746705 71.5340974 405.216619 0.711747851 364.746705 0.711747851 283.806017 71.6355301 243.436676"></polygon>
                                    <polygon id="Shape" points="425.649284 40.9839542 425.649284 121.924642 354.826934 162.395415 284.205731 121.924642 284.105158 122.026074 284.003725 121.924642 284.003725 40.9839542 355.02894 0.514040115"></polygon>
                                    <polygon id="Shape" points="354.826934 162.395415 354.826934 243.335244 284.003725 283.806017 213.382521 243.335244 213.281948 243.436676 213.180516 243.335244 213.180516 162.395415 284.105158 122.026074"></polygon>
                                    <polygon id="Shape" points="213.180516 162.395415 213.180516 243.335244 142.357307 283.806017 71.7369628 243.335244 71.6355301 243.436676 71.5340974 243.335244 71.5340974 162.395415 142.458739 122.026074"></polygon>
                                    <polygon id="Shape" points="142.357307 40.9839542 142.357307 121.924642 71.5340974 162.395415 0.711747851 121.924642 0.711747851 40.9839542 71.7369628 0.514040115"></polygon>
                                </g>
                                <g id="Group" transform="translate(6.876791, 29.226361)" fill-rule="nonzero" fill="#FDC147">
                                    <path d="M36.9189112,0.118624642 L0.711747851,20.7507163 L0.711747851,101.690544 L71.534957,142.160458 L122.695702,112.925501 C80.5959885,88.774212 49.2137536,48.330086 36.9189112,0.118624642 Z" id="Shape"></path>
                                    <path d="M107.74212,121.529226 L71.5340974,142.161318 L71.5340974,223.102006 L142.357307,263.57192 L193.518052,234.336963 C151.418338,210.184814 120.036963,169.740688 107.74212,121.529226 Z" id="Shape"></path>
                                    <path d="M249.388539,121.132951 L213.180516,141.765043 L213.180516,222.705731 L284.003725,263.175645 L335.16447,233.940688 C293.064756,209.788539 261.683381,169.344413 249.388539,121.132951 Z" id="Shape"></path>
                                    <path d="M320.211748,0.118624642 L284.003725,20.7507163 L284.003725,101.690544 L354.826934,142.160458 L405.987679,112.925501 C363.887966,88.774212 332.50659,48.330086 320.211748,0.118624642 Z" id="Shape"></path>
                                    <path d="M36.9189112,242.940688 L0.711747851,263.57192 L0.711747851,344.512607 L71.534957,384.982521 L122.695702,355.747564 C80.5959885,331.595415 49.2137536,291.151289 36.9189112,242.940688 Z" id="Shape"></path>
                                </g>
                                <g id="Group" transform="translate(148.710602, 29.226361)" fill-rule="nonzero" fill="#F78F41">
                                    <path d="M36.7315186,0.118624642 L0.523495702,20.7507163 L0.523495702,101.690544 L71.3467049,142.161318 L122.50745,112.926361 C80.4077364,88.774212 49.026361,48.330086 36.7315186,0.118624642 Z" id="Shape"></path>
                                    <path d="M36.7315186,242.940688 L0.523495702,263.572779 L0.523495702,344.513467 L71.3467049,384.983381 L122.50745,355.748424 C80.4077364,331.595415 49.026361,291.151289 36.7315186,242.940688 Z" id="Shape"></path>
                                    <path d="M178.377937,242.940688 L142.169914,263.572779 L142.169914,344.513467 L212.993123,384.983381 L264.153868,355.748424 C222.054155,331.595415 190.672779,291.151289 178.377937,242.940688 Z" id="Shape"></path>
                                </g>
                                <path d="M440.114613,134.925215 L440.114613,45.1830946 L361.916905,0.370487106 L290.891691,40.8404011 L220.271347,0.370487106 L149.246132,40.8404011 L78.625788,0.370487106 L54.4203438,14.1618911 L61.9332378,27.3481375 L78.6025788,17.8495702 L141.645559,53.9776504 L141.645559,126.116905 L78.4108883,162.251003 L15.1762178,126.116905 L15.1762178,53.9896848 L41.6948424,38.8796562 L34.1819484,25.6934097 L0,45.1710602 L0,134.925215 L70.8232092,175.395129 L70.8232092,247.678797 L0,287.989685 L0,377.745559 L78.4108883,422.552149 L149.234097,382.082235 L220.057307,422.552149 L290.880516,382.082235 L361.703725,422.552149 L392.029513,405.223496 L384.501146,392.047564 L361.704585,405.073066 L298.469914,368.938968 L298.469914,296.811748 L361.896275,260.670774 L424.940115,296.798854 L424.940115,368.938109 L402.202006,381.931805 L409.730372,395.107736 L440.114613,377.746418 L440.114613,288.004298 L369.291404,247.417479 L369.291404,175.394269 L440.114613,134.925215 Z M361.894556,17.8495702 L424.938395,53.9776504 L424.938395,126.116905 L361.708883,162.247564 L298.469054,126.007736 L298.469054,53.9896848 L361.894556,17.8495702 Z M149.329513,139.356447 L212.469628,175.397708 L212.469628,247.528367 L149.240115,283.659026 L86.0002865,247.419198 L86.0002865,175.404585 L149.329513,139.356447 Z M290.885673,283.659026 L227.645845,247.417479 L227.645845,175.402865 L290.975931,139.355587 L354.116046,175.396848 L354.116046,247.527507 L290.885673,283.659026 Z M283.291977,53.97851 L283.291977,126.117765 L220.062464,162.248424 L156.822636,126.006877 L156.822636,53.9896848 L220.248997,17.8487106 L283.291977,53.97851 Z M78.4108883,405.073066 L15.1762178,368.938109 L15.1762178,296.812607 L78.5063037,260.76533 L141.646418,296.80745 L141.646418,368.937249 L78.4108883,405.073066 Z M220.057307,405.073066 L156.822636,368.938968 L156.822636,296.813467 L220.152722,260.766189 L283.292837,296.80659 L283.292837,368.93639 L220.057307,405.073066 Z" id="Shape" fill="#000000" fill-rule="nonzero"></path>
                            </g>
                        </g>
                    </g>
                </g>
                <path d="M1148.66124,745.440704 C1148.1533,744.315321 1144.22751,744.88084 1144.22751,744.88084 C1144.45421,744.1287 1143.14275,743.492491 1140.35337,744.872357 C1140.25006,743.563181 1138.06045,744.371873 1136.47923,745.63298 C1136.91543,744.156976 1134.34989,745.248427 1132.39274,746.752708 C1132.5104,745.426566 1130.39253,746.580225 1127.93605,749.286233 C1127.93605,748.211747 1128.25459,746.673535 1124.98596,749.399337 C1122.74183,751.274033 1118.33967,755.922599 1115.39245,761.569306 C1115.66795,760.336475 1115.79135,759.474058 1115.79135,759.474058 L1115.75404,759.476886 C1115.843,759.100816 1115.96927,758.55509 1116.14719,757.771846 C1116.14719,757.771846 1116.69244,755.060182 1116.94211,753.796247 C1117.19751,752.53514 1118.20479,750.250443 1118.4688,746.563259 C1118.77587,742.358625 1117.275,742.966558 1116.86176,743.557525 C1116.79288,740.045652 1116.12997,739.007925 1115.13131,739.898617 C1115.16861,737.455575 1114.39953,735.493224 1113.46686,736.726055 C1113.53574,734.72129 1112.85274,732.518594 1111.74216,733.22832 C1111.17108,730.197138 1109.85961,729.555274 1109.39472,730.188655 C1109.39472,730.188655 1108.33579,726.560851 1106.26097,727.04437 C1104.69697,727.406302 1104.84045,730.075552 1104.84045,730.932313 C1102.5418,729.707964 1103.49455,733.115216 1103.68395,733.946529 C1101.89037,732.671284 1102.47293,735.855156 1103.36828,737.842956 C1100.73387,737.099298 1103.35967,741.499036 1103.55768,741.877934 C1100.24602,740.557447 1103.66099,745.341738 1104.476,746.184361 C1104.476,746.184361 1101.53739,744.796012 1103.72126,748.271126 C1104.50183,749.515268 1107.73027,751.93569 1109.33158,754.192111 C1110.03754,755.184597 1111.5011,758.017847 1111.63885,758.535297 C1111.64172,758.540952 1111.64172,758.540952 1111.64172,758.54378 L1111.59293,758.535297 C1110.6947,756.886809 1105.06429,750.499271 1103.44003,753.507833 C1102.50449,753.465419 1096.27718,753.380591 1097.58865,755.28639 C1094.50942,756.140324 1092.94829,757.098879 1093.9527,758.150744 C1093.39884,758.385434 1091.21784,758.733229 1091.10305,759.943439 C1091.07723,760.257302 1091.21784,760.339303 1091.42159,760.426958 C1090.93661,760.735166 1090.44876,760.933098 1089.9322,761.354409 C1088.75848,762.312964 1089.04833,763.048139 1088.72118,763.347864 C1087.9033,764.102832 1087.41545,764.232901 1087.09978,764.286625 C1086.35365,764.428005 1086.21303,764.374281 1085.75388,764.314901 C1087.70242,764.119797 1088.52891,762.920897 1088.70109,762.061308 C1088.85892,761.286547 1090.41719,760.667304 1090.76156,760.452406 C1090.38849,760.27144 1090.04125,759.971715 1090.25935,759.547576 C1090.8333,758.430676 1092.19642,758.170537 1093.39597,757.944329 C1091.76022,756.714326 1094.63856,755.489977 1096.87121,755.108252 C1096.05908,754.517284 1096.66746,753.425832 1099.10099,753.247694 C1097.24428,752.444657 1091.95249,750.957342 1092.26243,752.834865 C1090.92513,752.92252 1086.28765,753.219418 1087.65938,755.320321 C1086.69802,755.846254 1083.06207,758.326055 1084.8413,759.4373 C1084.18987,759.711576 1082.99607,765.030283 1085.63622,764.993524 C1087.81434,764.962421 1089.49601,763.75221 1090.37988,762.985932 C1091.90371,761.662617 1106.26097,756.044186 1111.24856,762.315792 C1112.10374,763.393105 1112.45098,764.320557 1112.56003,765.089662 C1112.56003,765.202766 1112.56003,765.30456 1112.55429,765.412008 C1112.35341,768.369673 1111.58719,770.306575 1111.29161,771.185958 C1110.93002,772.246306 1112.91875,772.254789 1113.2172,771.304717 C1113.71366,769.718436 1113.99202,768.511053 1114.16708,767.541187 C1115.00504,766.0567 1116.02092,764.476074 1117.26065,763.31676 C1120.13899,760.605097 1123.26412,760.477855 1123.9012,760.426958 C1125.31024,760.217716 1129.69232,759.850129 1131.71548,759.663507 C1135.83928,759.281782 1132.96668,758.085709 1132.96668,758.085709 C1134.1404,758.210123 1141.43813,757.80295 1137.83662,756.39198 C1138.25847,756.318462 1144.01515,756.052668 1141.68205,754.231697 C1143.82,753.731213 1146.75,752.269346 1144.64075,751.633137 C1145.42992,751.27686 1148.7502,749.970511 1146.37406,748.904508 C1147.06567,748.387058 1149.12614,746.464293 1148.66124,745.440704" id="Fill-1" fill="#000000"></path>
                <g id="coffee-beans" transform="translate(1108.000000, 990.500000) rotate(53.000000) translate(-1108.000000, -990.500000) translate(1090.000000, 968.000000)" fill-rule="nonzero" fill="#000000">
                    <path d="M15.5508353,21.5173059 C8.54142353,13.8937765 7.95907059,6.61965882 8.9226,1.84436471 C1.68024706,5.92083529 -1.85622353,16.3714235 0.981423529,27.0231882 C4.14730588,39.1996588 15.4026,48.4114235 25.9590706,43.7737765 C26.2873059,40.3537765 25.8531882,32.6773059 15.5508353,21.5173059 Z" id="Shape"></path>
                    <path d="M35.0543647,18.0549529 C31.8355412,5.92083529 21.0884824,-2.46504706 11.3049529,0.774952941 C9.87554118,5.33848235 10.0767176,12.6761294 17.1496588,20.1514235 C20.3578941,23.8573059 28.2884824,32.6349529 28.1402471,42.5773059 C34.6414235,38.0878941 37.6802471,28.1773059 35.0543647,18.0549529 Z" id="Shape"></path>
                </g>
                <g id="Page-1" transform="translate(600.000000, 1097.000000)">
                    <path d="M17.9913691,1.21473827 C16.839135,0.771799928 15.6689906,0.545320143 14.492876,0.421056898 C15.213271,0.487197012 15.9177458,0.645532437 16.60033,0.910092894 C22.1207054,3.03659778 24.2201993,11.0014709 21.2948382,18.7037879 C18.367487,26.4041006 11.5257239,30.9216708 6.00733859,28.7951659 C5.36853523,28.5486436 4.783463,28.2079218 4.24018164,27.8130854 C5.16555099,28.4684738 6.15460166,29.0537136 7.25509467,29.4766095 C14.6978503,32.3446854 24.968455,30.6110127 28.2022726,21.3233372 C31.4918113,11.8733179 25.4341247,4.08682262 17.9913691,1.21473827" id="Fill-1" fill="#402722"></path>
                    <path d="M14.4564582,0.417248831 C14.4703885,0.417248831 14.4823288,0.417248831 14.494269,0.419253077 C14.4823288,0.417248831 14.4703885,0.417248831 14.4564582,0.417248831" id="Fill-3" fill="#402722"></path>
                    <path d="M4.23998264,27.8122837 C4.11660006,27.7261011 4.0131179,27.6198761 3.89172536,27.5316893 C4.00913781,27.6238846 4.1185901,27.7261011 4.23998264,27.8122837" id="Fill-5" fill="#402722"></path>
                    <g id="Group-9" transform="translate(0.000000, 0.114207)">
                        <mask id="mask-4" fill="white">
                            <use xlink:href="#path-3"></use>
                        </mask>
                        <g id="Clip-8"></g>
                        <path d="M21.2952362,18.5887793 C24.2205973,10.8884666 22.1211034,2.92359347 16.600728,0.797088588 C15.9181438,0.532528132 15.211679,0.372188461 14.493274,0.306048347 C14.4813337,0.304044101 14.4693935,0.304044101 14.4554632,0.302039855 C9.41667786,-0.134885748 3.87043191,4.16221743 1.3152185,10.8884666 C-1.19820405,17.4964653 0.0157213287,24.2748249 3.89232237,27.4154782 C4.00973482,27.5056693 4.11719707,27.6118943 4.24057965,27.6980769 C4.78386101,28.0929133 5.36495316,28.4336351 6.00574655,28.6801573 C11.526122,30.8086665 18.369875,26.289092 21.2952362,18.5887793" id="Fill-7" fill="#231F1F" mask="url(#mask-4)"></path>
                    </g>
                    <path d="M2.72217791,11.5444211 C0.204775281,18.1604368 2.0137231,25.0029323 6.75201215,26.8308045 C11.4922913,28.6586767 17.3728642,24.7764525 19.8882768,18.1604368 C22.4016993,11.5444211 20.5967316,4.69791719 15.8564525,2.87405344 C11.1141833,1.04618119 5.23560045,4.92840547 2.72217791,11.5444211" id="Fill-10" fill="#FFFFFF"></path>
                    <path d="M4.13112736,12.0875718 C2.02765339,17.6172862 3.53809497,23.3374039 7.5002678,24.8646393 C11.4624406,26.3918747 16.3758533,23.1470006 18.4793273,17.6172862 C20.5808112,12.0875718 19.0723597,6.36745401 15.1101869,4.84021865 C11.146024,3.31498753 6.23062125,6.55785737 4.13112736,12.0875718" id="Fill-12" fill="#D9C8AA"></path>
                    <path d="M12.4819389,26.4900827 C11.3615455,28.0614115 10.764533,31.4325531 10.8978658,33.3626418 C10.9336866,33.8536821 11.1545812,34.3326968 11.3058244,34.8117116 C11.4351771,35.2185735 11.6162708,35.6114057 11.717763,36.0242804 C11.9167671,36.8319915 11.4132866,37.569554 10.6073197,37.7018342 C9.86105415,37.8240932 9.15458938,37.2869553 9.09687817,36.5073036 C9.07498772,36.2427432 9.15259934,35.9621488 9.23618109,35.7056053 C9.47896616,34.9760598 9.81727323,34.276578 9.98841681,33.5330027 C10.2710027,32.2983873 10.2948832,31.0437294 9.83717365,29.8291563 C9.74762178,29.5906511 9.60433878,29.3521458 9.43120516,29.165751 C8.98941593,28.6887404 8.45011465,28.7308296 8.06802666,29.255942 C7.64613785,29.8371733 7.45907393,30.5186169 7.32176106,31.2100818 C6.89390212,33.3786758 6.75857929,35.5612996 7.29987061,37.7218766 C7.52872539,38.637817 7.97648475,39.4996427 8.30285157,40.3955406 C8.52374619,41.0028272 8.77847152,41.6041009 8.67100927,42.281536 C8.47399515,43.5542322 7.22822911,44.4260791 5.97052282,44.1595144 C4.68097586,43.8849327 3.93869034,42.6703597 4.29888787,41.3856381 C4.43819078,40.9006106 4.59142399,40.4095704 4.82226881,39.966632 C5.68793691,38.3071164 5.91679169,36.5353631 5.85709044,34.6914569 C5.76952861,32.0298183 5.35161988,25.9970382 4.18744554,23.5799177 C3.88097913,22.9405632 3.46506044,22.3533192 3.12874341,21.7941346 C3.12874341,21.7941346 6.25708881,27.4821844 12.4819389,26.4900827" id="Fill-14" fill="#FFFFFF"></path>
                </g>
                <text id="AKALINE-WATER" font-family="AvenirNext-Bold, Avenir Next" font-size="16" font-weight="bold" fill="#000000">
                    <tspan x="365.316" y="1043">AKALINE </tspan>
                    <tspan x="372.236" y="1065">WATER</tspan>
                </text>
                <text id="COLD-BREWED" font-family="AvenirNext-Bold, Avenir Next" font-size="16" font-weight="bold" fill="#000000">
                    <tspan x="733.82" y="916">COLD</tspan>
                    <tspan x="721.772" y="938">BREWED</tspan>
                </text>
                <text id="COFFEE-BEANS" font-family="AvenirNext-Bold, Avenir Next" font-size="16" font-weight="bold" fill="#000000">
                    <tspan x="1078.292" y="1038">COFFEE</tspan>
                    <tspan x="1082.444" y="1060">BEANS</tspan>
                </text>
                <text id="STEVIA-PLANT" font-family="AvenirNext-Bold, Avenir Next" font-size="16" font-weight="bold" fill="#000000">
                    <tspan x="1084.54" y="797">STEVIA</tspan>
                    <tspan x="1086.372" y="819">PLANT</tspan>
                </text>
                <text id="COCONUT-MILK" font-family="AvenirNext-Bold, Avenir Next" font-size="16" font-weight="bold" fill="#000000">
                    <tspan x="572.068" y="1165">COCONUT</tspan>
                    <tspan x="593.42" y="1187">MILK</tspan>
                </text>
                <path d="M400.1549,1011.19218 C399.853053,1011.11508 399.651822,1010.84396 399.676362,1010.55046 C399.703357,1010.25199 399.943853,1010.0157 400.25797,1009.98336 C406.537857,1009.32672 411.274153,1004.33971 411.274153,998.382655 C411.274153,998.041897 411.252067,997.68124 411.212802,997.310635 C411.1809,997.002211 411.396855,996.71866 411.71588,996.646529 C412.037359,996.576885 412.366201,996.743533 412.479086,997.034546 C413.156401,998.755748 413.502421,1000.30035 413.502421,1001.6211 C413.502421,1007.09562 408.773487,1011.54787 402.959867,1011.54787 C402.0077,1011.54787 401.065349,1011.42848 400.1549,1011.19218 Z M402.545134,972.475072 C402.302185,972.17411 401.941441,972 401.558611,972 C401.173326,972 400.812583,972.17411 400.569633,972.475072 C398.76346,974.723579 395.261545,979.282777 392.113012,984.550851 C388.056485,991.338658 386,996.949978 386,1001.23309 C386,1009.92864 392.979288,1017 401.558611,1017 C410.137933,1017 417.117221,1009.92864 417.117221,1001.23309 C417.117221,996.947491 415.060736,991.336171 411.001755,984.548364 C407.853222,979.28029 404.351308,974.723579 402.545134,972.475072 Z" id="Fill-4" fill="#000000"></path>
                <g id="Page-1" transform="translate(730.000000, 848.000000)">
                    <mask id="mask-6" fill="white">
                        <use xlink:href="#path-5"></use>
                    </mask>
                    <g id="Clip-2"></g>
                    <path d="M30.8806656,27.8818302 C30.5920627,27.9855168 30.3034598,28.138578 30.0784474,28.3410138 C29.5256995,28.8347597 29.0120842,29.370474 28.4837942,29.8864384 C28.4226495,28.3731073 28.3663964,26.8548387 28.2979144,25.3390388 C28.2832396,25.0279789 28.2318781,24.7144503 28.187854,24.3268598 C28.3810711,24.3959842 28.4935773,24.4182028 28.5865173,24.4749835 C29.9708328,25.3587887 31.3527025,26.2450625 32.7321264,27.1362739 C32.7785964,27.1658986 32.8103916,27.2251481 32.8446327,27.2646478 C32.1916075,27.4695523 31.5263534,27.6522383 30.8806656,27.8818302 M24.406667,28.3113891 C24.2036667,28.1287031 23.9395217,27.9781106 23.6802683,27.8917051 C22.9856647,27.6621132 22.2788322,27.4720211 21.5793371,27.2646478 C23.0908336,26.2919684 24.60233,25.3242265 26.2043206,24.2947663 C26.1407301,26.2277814 26.0869228,28.0546412 26.0257781,29.881501 C25.487705,29.3556616 24.9618607,28.8174786 24.406667,28.3113891 M20.2879615,25.0600724 C20.4518292,24.4601712 20.5667812,23.8380513 20.799131,23.2603687 C21.1146376,22.4876564 20.7502153,21.8161619 20.5936849,21.1076366 C20.5080823,20.7249835 20.3906846,20.3522054 20.2879615,19.9744898 C20.5374318,20.0806452 20.7942394,20.1719882 21.0314808,20.3003621 C22.3179648,20.9718565 23.5995573,21.6507571 24.8835955,22.3271889 C24.9691981,22.3765635 25.0548006,22.4284068 25.2088852,22.5222186 C24.9276197,22.6728111 24.6952699,22.8036537 24.4604744,22.9320276 C23.166653,23.6208032 21.8703858,24.3095787 20.5765644,24.9934167 C20.488516,25.0353851 20.3833472,25.0378539 20.2879615,25.0600724 M23.6802683,17.1428571 C23.9395217,17.0564516 24.2036667,16.9083278 24.406667,16.7207044 C24.9618607,16.2170836 25.487705,15.6789006 26.0257781,15.1505925 C26.0869228,16.9897959 26.1431759,18.8289993 26.2067664,20.7397959 C24.636571,19.735023 23.1079541,18.75 21.5793371,17.7699144 C22.2788322,17.5625411 22.9856647,17.372449 23.6802683,17.1428571 M28.4837942,15.145655 C29.0243132,15.6739631 29.5477116,16.2195523 30.1077969,16.7256419 C30.3107972,16.9107966 30.577388,17.0515142 30.8341956,17.1453259 C31.4970039,17.372449 32.174487,17.5625411 32.8446327,17.7699144 C31.9665951,18.3525346 31.0861117,18.9425609 30.2031826,19.5227123 C29.7066878,19.8535221 29.2004098,20.1695194 28.6941319,20.4879855 C28.566951,20.5669849 28.4250953,20.6188282 28.222095,20.7200461 C28.3101433,18.8067808 28.3981916,16.9774523 28.4837942,15.145655 C28.1560587,14.8000329 27.8454438,14.4321922 27.4908046,14.1161949 C27.8454438,14.4321922 28.1560587,14.8000329 28.4837942,15.145655 M34.1384541,25.0625411 C33.5685856,24.7761685 32.9987172,24.4922646 32.4361862,24.2009546 C31.4089556,23.6603028 30.3841708,23.1122449 29.2982413,22.5370309 C29.5036874,22.4037196 29.6504347,22.2975642 29.8094108,22.2136274 C31.1839432,21.4902897 32.5560298,20.7620145 33.9330079,20.0386768 C33.9941526,20.009052 34.0675262,19.9893022 34.1335625,19.9695523 C33.9623574,20.7002962 33.7789233,21.4285714 33.6272845,22.1642528 C33.5783688,22.3913759 33.5783688,22.6431863 33.6272845,22.865372 C33.7789233,23.6035221 33.9648032,24.3317972 34.1384541,25.0625411 M41.6250085,28.8717907 L46.6266432,28.8717907 C46.3111366,27.6769256 46.0176422,26.5931534 45.743714,25.5069124 C45.675232,25.255102 45.56028,25.227946 45.330376,25.2995392 C44.917038,25.4303818 44.491471,25.5241935 44.0732414,25.6377551 C42.216889,26.1413759 40.3580907,26.642528 38.4968467,27.1436801 C38.0419303,27.2646478 37.5698934,27.0153061 37.459833,26.6030283 C37.1223144,25.3365701 36.7823499,24.0676432 36.459506,22.7913101 C36.4130361,22.618499 36.4154819,22.4111257 36.459506,22.2383147 C36.7578921,21.0508558 37.080736,19.8658657 37.3937967,18.6833443 C37.5894597,17.9427255 37.9685567,17.7378209 38.7096302,17.937788 C40.9010555,18.5376893 43.0998181,19.1178407 45.2863518,19.7226794 C45.6018584,19.8115537 45.6996898,19.7300856 45.7706177,19.443713 C45.905136,18.8783739 46.0616663,18.3179724 46.2084136,17.7526333 C46.3404861,17.2490125 46.4725586,16.7453917 46.6339805,16.1208032 L41.6225627,16.1208032 C41.6201169,16.0813035 41.6176711,16.0368664 41.6152253,15.9973667 C43.5694092,14.9654378 45.5284847,13.9310402 47.5046807,12.8793614 C46.8614387,11.7585583 46.2548835,10.7044108 45.6385452,9.6305135 C44.4890252,10.3686636 43.4055415,11.0697828 42.3122747,11.761027 C41.5785385,12.2251481 40.8276819,12.6719882 40.0890542,13.1311718 C40.0597047,13.1361093 40.032801,13.1410467 40.0034516,13.1459842 C40.0205721,13.1287031 40.0352468,13.1089533 40.0474758,13.0916722 C40.8081156,11.6524029 41.5638638,10.2131336 42.3342867,8.7417709 C41.1994415,8.43317972 40.1110662,8.129526 39.022691,7.8604345 C38.929751,7.8357472 38.7169676,7.99621461 38.6851723,8.10977617 C38.4552683,8.8923634 38.2596054,9.68482554 38.0492677,10.4772877 C37.6481586,11.998025 37.2397121,13.5212311 36.8410488,15.0444371 C36.7407716,15.4295589 36.2613973,15.7430876 35.8602882,15.6369322 C34.5762499,15.2962475 33.2897659,14.9506254 32.0081735,14.5926596 C31.8809925,14.55316 31.7562574,14.4519421 31.6559801,14.3531929 C30.7803883,13.4965438 29.9121339,12.6349572 29.0463252,11.7733706 C28.474011,11.1981567 28.4764568,10.7908163 29.0463252,10.2131336 C30.6360869,8.60599078 32.2234027,6.99391047 33.8253933,5.40157999 C34.0846467,5.1423634 34.0919841,4.97695853 33.8229475,4.73749177 C33.4829831,4.43630678 33.1772597,4.10302831 32.864199,3.77962475 C32.4337404,3.330316 32.0057277,2.87853851 31.5434739,2.38726136 C30.6263037,3.89565504 29.7702782,5.30776827 28.9118069,6.7198815 C28.8726743,6.70506912 28.8384333,6.69272548 28.7944092,6.67544437 C28.8335418,6.22860434 28.8824575,5.78176432 28.9020238,5.34233048 C28.9705058,3.56237656 29.0267589,1.77995392 29.0854578,0 L25.4265603,0 C25.4559097,1.44667544 25.4828134,2.89335089 25.5146086,4.34002633 C25.5170544,4.42396313 25.5586328,4.50789993 25.5586328,4.59430546 L25.5586328,6.67297564 C24.6708121,5.2016129 23.844136,3.84134299 23.039472,2.51316656 C22.1712176,3.38462804 21.3249753,4.23880843 20.4469377,5.12508229 C20.5325402,5.21395655 20.6450464,5.34726794 20.7673358,5.46823568 C22.3570974,7.07537854 23.9493048,8.67758394 25.5390665,10.2871955 C25.9499587,10.7044108 25.9450671,11.2376564 25.5341749,11.6474654 C24.6561373,12.5386768 23.775654,13.4323568 22.8853874,14.3161619 C22.7606523,14.4420671 22.5870014,14.55316 22.4206879,14.6050033 C21.1953485,14.9506254 19.9626718,15.2814352 18.7324409,15.6122449 C18.2090424,15.748025 17.7932586,15.4937459 17.6538488,14.9654378 C17.0962093,12.864549 16.5410156,10.7685978 15.9809304,8.66524029 C15.7461348,7.77896643 15.7412432,7.7764977 14.8509767,8.00855826 C13.9656018,8.24555629 13.0826726,8.49736669 12.1557193,8.74917709 C12.3000207,9.02567479 12.4174185,9.24045425 12.5323705,9.45770244 C13.1731667,10.6723173 13.8164087,11.8844635 14.4596508,13.0941409 C14.4743255,13.111422 14.4890002,13.1287031 14.5036749,13.1459842 C14.4767713,13.138578 14.4498676,13.1336406 14.4254097,13.1287031 C14.3202409,13.0817972 14.2101805,13.0521725 14.112349,12.9879855 C13.3761671,12.5213957 12.6448767,12.0473996 11.9086948,11.5758723 C10.9083678,10.9364714 9.90559512,10.2995392 8.8636898,9.63545095 C8.23756829,10.7241606 7.63101308,11.7832456 7,12.8818302 C8.99087073,13.9384463 10.9475004,14.9679065 12.9041301,16.0023041 C12.894347,16.0590849 12.8821181,16.1084595 12.8747807,16.1603028 L7.87559179,16.1603028 C8.21555621,17.4440421 8.51883381,18.6068137 8.83678614,19.8066162 C9.06913592,19.7498354 9.26479889,19.7128045 9.45557028,19.6584924 C11.6225377,19.0734036 13.7821677,18.4809085 15.9515809,17.8982883 C16.4823167,17.7501646 16.915221,17.9797564 17.0570767,18.5031271 C17.4068243,19.7695853 17.7443429,21.0385122 18.0745241,22.3099078 C18.1136567,22.4654378 18.0891989,22.6579987 18.0427289,22.8234036 C17.7223308,24.033081 17.3823664,25.2402897 17.0717514,26.4524358 C16.9396789,26.9560566 16.5165577,27.2843976 16.0249545,27.1584924 C14.824073,26.8474325 13.6256373,26.5166228 12.4272017,26.1907505 C11.2434407,25.8722844 10.0621255,25.5464121 8.84167771,25.2081962 C8.51638802,26.4400922 8.20821884,27.6152074 7.87314601,28.8915405 L12.8772265,28.8915405 C12.8845638,28.9384463 12.894347,28.9828835 12.9016844,29.0297893 C10.9475004,30.064187 8.99087073,31.0985846 7,32.1502633 C7.63101308,33.2513167 8.23756829,34.3079329 8.85635244,35.3867676 C8.97130443,35.3250494 9.04712383,35.2880184 9.11805166,35.24605 C10.1428365,34.5844305 11.1676213,33.9203423 12.2021892,33.2685978 C12.9383712,32.8044766 13.6843362,32.3576366 14.4254097,31.9083278 C14.4474218,31.8959842 14.4669881,31.888578 14.4890002,31.8787031 C14.4792171,31.8959842 14.4718797,31.9182028 14.4596508,31.9404213 C13.8164087,33.1525675 13.1707209,34.3647136 12.5323705,35.5768598 C12.4100811,35.8039829 12.2951291,36.031106 12.1606109,36.2903226 C13.2930103,36.6013825 14.3667109,36.8926926 15.4404114,37.1914088 C15.7192311,37.2704082 15.7852674,37.0951284 15.8415205,36.8729427 C16.4480757,34.589368 17.0570767,32.3057933 17.6660777,30.0197498 C17.7859213,29.5605662 18.2457292,29.2914747 18.6957541,29.4124424 C19.8966356,29.735846 21.0999628,30.054312 22.293507,30.3974654 C22.5331941,30.4641211 22.7704354,30.6097762 22.9465321,30.7825872 C23.8123408,31.6293614 24.6585831,32.4983542 25.5121628,33.357472 C25.9621877,33.814187 25.9621877,34.3178078 25.4999339,34.7843976 C24.0251242,36.2779789 22.545423,37.7666228 21.0657218,39.2602041 C20.3662267,39.963792 20.3686725,39.963792 21.0559387,40.6624424 C21.6893975,41.2993746 22.3179648,41.9412442 22.9832189,42.6152074 C23.8465818,41.1907505 24.6708121,39.8304806 25.5170544,38.4356485 L25.5170544,41.7215273 L25.5170544,45 L29.0976868,45 C28.9998553,42.7978934 28.9069154,40.6328176 28.8164212,38.4652732 C28.8702286,38.4504608 28.9264817,38.4381172 28.980289,38.4257735 C29.8216398,39.808262 30.6629905,41.1907505 31.4358593,42.4646149 C32.3065595,41.5832785 33.1528018,40.7290981 34.0895383,39.7860434 C34.0186105,39.7465438 33.8620801,39.6774194 33.7495739,39.5663265 C32.1451375,37.9542462 30.543147,36.3372284 28.9436022,34.7177419 C28.5229268,34.2931205 28.5253726,33.8388743 28.9362648,33.4241277 C29.8265313,32.5205727 30.7192436,31.6170178 31.6168475,30.7233377 C31.7342453,30.60237 31.8834383,30.4789335 32.0399687,30.4369651 C33.2946575,30.0864055 34.5517921,29.7506583 35.8113725,29.4149111 C36.276072,29.2914747 36.7212053,29.5580974 36.8459404,30.0222186 C37.4011341,32.1107637 37.9563278,34.19684 38.5017383,36.2903226 C38.7561002,37.2506583 38.7487628,37.2580645 39.6903908,37.0136603 C40.5635369,36.7840685 41.4391286,36.5371955 42.3514073,36.2829164 C42.2340095,36.0656682 42.1459611,35.9002633 42.0579128,35.7373272 C41.3877671,34.470869 40.7176214,33.2093483 40.0474758,31.9428901 C40.0352468,31.925609 40.0205721,31.9083278 40.0034516,31.888578 C40.032801,31.8935155 40.0572589,31.8984529 40.0890542,31.9058591 C40.2431387,31.9848585 40.4070065,32.0465767 40.5488621,32.1403884 C41.6176711,32.8217577 42.6791427,33.5080645 43.7455059,34.1919026 C44.3642901,34.589368 44.98552,34.981896 45.6434367,35.40158 C46.2744498,34.3029954 46.8785592,33.2439105 47.5046807,32.1502633 C45.5089184,31.0961159 43.5547345,30.064187 41.6005506,29.0297893 C41.6103337,28.977946 41.6176711,28.923634 41.6250085,28.8717907" id="Fill-1" fill="#000000" mask="url(#mask-6)"></path>
                </g>
            </g>
        </g>
    </g>
</svg>