<svg id="Layer_1" data-name="Layer 1" xmlns="http://www.w3.org/2000/svg" viewBox="0 0 1475.8 715.12"><defs><style>.cls-1{fill:#f79045;}.cls-2{fill:#f89c45;}.cls-3{fill:none;stroke:#010101;stroke-miterlimit:10;stroke-width:26px;}.cls-4{fill:#fac144;}.cls-5{fill:#ffd247;}.cls-6{font-size:14px;fill:#231f20;font-family:Avenir-Black, Avenir;}.cls-7{letter-spacing:-0.02em;}.cls-8{letter-spacing:-0.09em;}.cls-9{letter-spacing:-0.07em;}.cls-10{letter-spacing:-0.02em;}.cls-11{letter-spacing:0em;}.cls-12{letter-spacing:-0.09em;}</style></defs><title>Artboard 1</title><polygon class="cls-1" points="119.96 308.91 226.25 247.89 226.25 124.73 119.96 63.04 11.12 124.73 11.12 247.89 119.96 308.91"/><path class="cls-2" d="M197.19,264.64l29.07-16.75V124.73L120,63,66.82,93.22s3.44,41.38,45.27,98.3C153.69,248,197.19,264.64,197.19,264.64Z"/><polygon class="cls-3" points="87.45 81.24 119.52 62.49 226.37 124.73 226.37 248.22 118.3 309.69 11.12 248.22 11.12 124.73 56.83 98.55 87.45 81.24"/><polygon class="cls-4" points="19.26 492.22 124.92 431.44 124.92 309.01 19.26 247.69 -88.94 309.01 -88.94 431.44 19.26 492.22"/><path class="cls-5" d="M96,448.1l28.9-16.65V309L19.26,247.69l-52.83,30s3.42,41.14,45,97.72C52.68,431.55,96,448.1,96,448.1Z"/><polygon class="cls-3" points="-13.17 265.78 18.82 247.25 124.92 309.01 124.92 431.88 17.61 492.99 -89.05 431.88 -89.05 309.01 -43.5 282.99 -13.17 265.78"/><polygon class="cls-4" points="441.09 492.22 546.75 431.44 546.75 309.01 441.09 247.69 332.89 309.01 332.89 431.44 441.09 492.22"/><path class="cls-5" d="M517.86,448.1l28.9-16.65V309L441.09,247.69l-52.83,30s3.42,41.14,45,97.72C474.51,431.55,517.86,448.1,517.86,448.1Z"/><polygon class="cls-3" points="408.66 265.78 440.65 247.25 546.75 309.01 546.75 431.88 439.44 492.99 332.78 431.88 332.78 309.01 378.33 282.99 408.66 265.78"/><polygon class="cls-1" points="231.26 491.44 337.56 430.42 337.56 307.27 231.26 245.58 122.42 307.27 122.42 430.42 231.26 491.44"/><path class="cls-2" d="M308.49,447.18l29.07-16.75V307.27L231.26,245.58l-53.15,30.18s3.44,41.38,45.27,98.3C265,430.53,308.49,447.18,308.49,447.18Z"/><polygon class="cls-3" points="198.75 263.77 230.82 245.02 337.67 307.27 337.67 430.75 229.6 492.22 122.42 430.75 122.42 307.27 168.13 281.08 198.75 263.77"/><polygon class="cls-4" points="548.09 681.22 653.75 620.44 653.75 498.01 548.09 436.69 439.89 498.01 439.89 620.44 548.09 681.22"/><path class="cls-5" d="M624.86,637.1l28.9-16.65V498L548.09,436.69l-52.83,30s3.42,41.14,45,97.72C581.51,620.55,624.86,637.1,624.86,637.1Z"/><polygon class="cls-3" points="515.66 454.78 547.65 436.25 653.75 498.01 653.75 620.88 546.44 681.99 439.78 620.88 439.78 498.01 485.33 471.99 515.66 454.78"/><polygon class="cls-1" points="338.26 680.44 444.56 619.42 444.56 496.27 338.26 434.58 229.42 496.27 229.42 619.42 338.26 680.44"/><path class="cls-2" d="M415.49,636.18l29.07-16.75V496.27L338.26,434.58l-53.15,30.18s3.44,41.38,45.27,98.3C372,619.53,415.49,636.18,415.49,636.18Z"/><polygon class="cls-3" points="305.75 452.77 337.82 434.02 444.67 496.27 444.67 619.75 336.6 681.22 229.42 619.75 229.42 496.27 275.13 470.08 305.75 452.77"/><polygon class="cls-4" points="861.09 492.22 966.75 431.44 966.75 309.01 861.09 247.69 752.89 309.01 752.89 431.44 861.09 492.22"/><path class="cls-5" d="M937.86,448.1l28.9-16.65V309L861.09,247.69l-52.83,30s3.42,41.14,45,97.72C894.51,431.55,937.86,448.1,937.86,448.1Z"/><polygon class="cls-3" points="828.66 265.78 860.65 247.25 966.75 309.01 966.75 431.88 859.44 492.99 752.78 431.88 752.78 309.01 798.33 282.99 828.66 265.78"/><polygon class="cls-1" points="651.26 491.44 757.55 430.42 757.55 307.27 651.26 245.58 542.42 307.27 542.42 430.42 651.26 491.44"/><path class="cls-2" d="M728.49,447.18l29.07-16.75V307.27L651.26,245.58l-53.15,30.18s3.44,41.38,45.27,98.3C685,430.53,728.49,447.18,728.49,447.18Z"/><polygon class="cls-3" points="618.75 263.77 650.82 245.02 757.67 307.27 757.67 430.75 649.6 492.22 542.42 430.75 542.42 307.27 588.13 281.08 618.75 263.77"/><polygon class="cls-1" points="1075.26 502.11 1181.56 441.09 1181.56 317.93 1075.26 256.25 966.42 317.93 966.42 441.09 1075.26 502.11"/><path class="cls-2" d="M1152.49,457.84l29.07-16.75V317.93l-106.29-61.69-53.15,30.18s3.44,41.38,45.27,98.3C1109,441.2,1152.49,457.84,1152.49,457.84Z"/><polygon class="cls-3" points="1042.76 274.44 1074.82 255.69 1181.67 317.93 1181.67 441.42 1073.6 502.89 966.42 441.42 966.42 317.93 1012.13 291.75 1042.76 274.44"/><polygon class="cls-4" points="758.09 681.22 863.75 620.44 863.75 498.01 758.09 436.69 649.89 498.01 649.89 620.44 758.09 681.22"/><path class="cls-5" d="M834.86,637.1l28.9-16.65V498L758.09,436.69l-52.83,30s3.42,41.14,45,97.72C791.51,620.55,834.86,637.1,834.86,637.1Z"/><polygon class="cls-3" points="725.66 454.78 757.65 436.25 863.75 498.01 863.75 620.88 756.44 681.99 649.78 620.88 649.78 498.01 695.33 471.99 725.66 454.78"/><polygon class="cls-4" points="968.09 681.22 1073.76 620.44 1073.76 498.01 968.09 436.69 859.89 498.01 859.89 620.44 968.09 681.22"/><path class="cls-5" d="M1044.86,637.1l28.9-16.65V498L968.09,436.69l-52.83,30s3.42,41.14,45,97.72C1001.51,620.55,1044.86,637.1,1044.86,637.1Z"/><polygon class="cls-3" points="935.66 454.78 967.65 436.25 1073.76 498.01 1073.76 620.88 966.44 681.99 859.78 620.88 859.78 498.01 905.33 471.99 935.66 454.78"/><polygon class="cls-1" points="1182.6 676.37 1288.89 615.34 1288.89 492.19 1182.6 430.5 1073.76 492.19 1073.76 615.34 1182.6 676.37"/><path class="cls-2" d="M1259.82,632.1l29.07-16.75V492.19L1182.6,430.5l-53.15,30.18s3.44,41.38,45.27,98.3C1216.33,615.45,1259.82,632.1,1259.82,632.1Z"/><polygon class="cls-3" points="1150.09 448.69 1182.15 429.94 1289 492.19 1289 615.68 1180.93 677.14 1073.76 615.68 1073.76 492.19 1119.47 466 1150.09 448.69"/><polygon class="cls-4" points="1291.09 492.22 1396.76 431.44 1396.76 309.01 1291.09 247.69 1182.89 309.01 1182.89 431.44 1291.09 492.22"/><path class="cls-5" d="M1367.86,448.1l28.9-16.65V309l-105.66-61.32-52.83,30s3.42,41.14,45,97.72C1324.51,431.55,1367.86,448.1,1367.86,448.1Z"/><polygon class="cls-3" points="1258.66 265.78 1290.65 247.25 1396.76 309.01 1396.76 431.88 1289.44 492.99 1182.78 431.88 1182.78 309.01 1228.33 282.99 1258.66 265.78"/><polygon class="cls-1" points="1505.26 502.11 1611.56 441.09 1611.56 317.93 1505.26 256.25 1396.42 317.93 1396.42 441.09 1505.26 502.11"/><path class="cls-2" d="M1582.49,457.84l29.07-16.75V317.93l-106.29-61.69-53.15,30.18s3.44,41.38,45.27,98.3C1539,441.2,1582.49,457.84,1582.49,457.84Z"/><polygon class="cls-3" points="1472.76 274.44 1504.82 255.69 1611.67 317.93 1611.67 441.42 1503.6 502.89 1396.42 441.42 1396.42 317.93 1442.13 291.75 1472.76 274.44"/><polygon class="cls-4" points="1398.09 681.22 1503.76 620.44 1503.76 498.01 1398.09 436.69 1289.89 498.01 1289.89 620.44 1398.09 681.22"/><path class="cls-5" d="M1474.86,637.1l28.9-16.65V498l-105.66-61.32-52.83,30s3.42,41.14,45,97.72C1431.51,620.55,1474.86,637.1,1474.86,637.1Z"/><polygon class="cls-3" points="1365.66 454.78 1397.65 436.25 1503.76 498.01 1503.76 620.88 1396.44 681.99 1289.78 620.88 1289.78 498.01 1335.33 471.99 1365.66 454.78"/><polygon class="cls-4" points="119.26 672.22 224.93 611.44 224.93 489.01 119.26 427.69 11.06 489.01 11.06 611.44 119.26 672.22"/><path class="cls-5" d="M196,628.1l28.9-16.65V489L119.26,427.69l-52.83,30s3.42,41.14,45,97.72C152.68,611.55,196,628.1,196,628.1Z"/><polygon class="cls-3" points="86.83 445.78 118.82 427.25 224.93 489.01 224.93 611.88 117.61 672.99 10.95 611.88 10.95 489.01 56.5 462.99 86.83 445.78"/><text class="cls-6" transform="translate(476.58 525.21)">Best Ko<tspan class="cls-7" x="52.08" y="0">f</tspan><tspan x="57.01" y="0">fee... Ever! I </tspan><tspan x="4.63" y="16.8">studied all night for </tspan><tspan x="9.57" y="33.6">my exams and the </tspan><tspan x="19.29" y="50.4">best part is the </tspan><tspan x="16.57" y="67.2">ene</tspan><tspan class="cls-7" x="40.68" y="67.2">r</tspan><tspan x="46.12" y="67.2">gy with NO </tspan><tspan x="11.26" y="84">CRASH </tspan><tspan class="cls-8" x="63.1" y="84">A</tspan><tspan x="72.18" y="84">T ALL!!!</tspan></text><text class="cls-6" transform="translate(174.4 313.69)">Ko<tspan class="cls-7" x="18.65" y="0">f</tspan><tspan x="23.58" y="0">fee with a K is </tspan><tspan x="-14.78" y="16.8" xml:space="preserve">Krazy with a K.  Krazy </tspan><tspan x="-2.7" y="33.6">good!!! I have not </tspan><tspan x="-14.25" y="50.4">drank co</tspan><tspan class="cls-7" x="43.04" y="50.4">f</tspan><tspan x="47.96" y="50.4">fee for years </tspan><tspan x="-12.33" y="67.2">until no</tspan><tspan class="cls-9" x="37.43" y="67.2">w</tspan><tspan x="48.06" y="67.2">, finally I can </tspan><tspan x="0.9" y="84">enjoy my favorite </tspan><tspan x="-19.85" y="100.8">beverage again without </tspan><tspan x="-7.68" y="117.6">all the negative side </tspan><tspan x="34.47" y="134.4">e</tspan><tspan class="cls-7" x="42.5" y="134.4">f</tspan><tspan x="47.43" y="134.4">fects.</tspan></text><text class="cls-6" transform="translate(788.08 355.69)">Finall<tspan class="cls-8" x="34.78" y="0">y</tspan><tspan x="41.27" y="0">, a cold-b</tspan><tspan class="cls-10" x="101.93" y="0">r</tspan><tspan class="cls-11" x="107.38" y="0">ewed </tspan><tspan x="8.32" y="16.8">co</tspan><tspan class="cls-7" x="23.61" y="16.8">f</tspan><tspan x="28.54" y="16.8">fee that actually </tspan><tspan x="11.44" y="33.6">tastes the way it&apos;s </tspan><tspan x="27.65" y="50.4">supposed to!</tspan></text><text class="cls-6" transform="translate(1103.75 505.69)">I’m a Starbucks junkie &amp; <tspan x="9.88" y="16.8">it was ha</tspan><tspan class="cls-7" x="68.73" y="16.8">r</tspan><tspan x="74.17" y="16.8">d for me to </tspan><tspan x="14" y="33.6">imagine that I could </tspan><tspan x="14.24" y="50.4">possibly </tspan><tspan class="cls-7" x="72.59" y="50.4">r</tspan><tspan x="78.04" y="50.4">eplace my </tspan><tspan x="9.2" y="67.2">skinny hazelnut latte, </tspan><tspan x="-1.66" y="84">but he</tspan><tspan class="cls-7" x="41.11" y="84">r</tspan><tspan x="46.56" y="84">e we a</tspan><tspan class="cls-7" x="90.09" y="84">r</tspan><tspan x="95.54" y="84" xml:space="preserve">e.  Ko</tspan><tspan class="cls-10" x="134.66" y="84">f</tspan><tspan x="139.58" y="84">fee </tspan><tspan x="4.17" y="100.8">now lines the top shelf </tspan><tspan x="14.03" y="117.6">of my </tspan><tspan class="cls-7" x="56" y="117.6">r</tspan><tspan x="61.45" y="117.6">efrigerato</tspan><tspan class="cls-12" x="128.31" y="117.6">r</tspan><tspan class="cls-11" x="132.72" y="117.6">...</tspan></text><polygon class="cls-1" points="1398.04 312.57 1504.33 251.55 1504.33 128.39 1398.04 66.7 1289.2 128.39 1289.2 251.55 1398.04 312.57"/><path class="cls-2" d="M1475.26,268.3l29.07-16.75V128.39L1398,66.7,1344.9,96.88s3.44,41.38,45.27,98.3C1431.77,251.66,1475.26,268.3,1475.26,268.3Z"/><polygon class="cls-3" points="1365.53 84.9 1397.6 66.15 1504.44 128.39 1504.44 251.88 1396.38 313.35 1289.2 251.88 1289.2 128.39 1334.91 102.21 1365.53 84.9"/></svg>