<svg id="Layer_1" data-name="Layer 1" xmlns="http://www.w3.org/2000/svg" viewBox="0 0 1475.8 851.03"><defs><style>.cls-1{fill:#f79045;}.cls-2{fill:#f89c45;}.cls-3{fill:none;stroke:#010101;stroke-miterlimit:10;stroke-width:26px;}.cls-4{fill:#fac144;}.cls-5{fill:#ffd247;}.cls-10,.cls-11,.cls-6,.cls-7,.cls-8,.cls-9{isolation:isolate;}.cls-10,.cls-11,.cls-7,.cls-8,.cls-9{font-size:14px;fill:#231f20;font-family:Avenir-Black, Avenir;}.cls-8{letter-spacing:-0.02em;}.cls-9{letter-spacing:-0.07em;}.cls-10{letter-spacing:-0.09em;}.cls-11{letter-spacing:-0.09em;}</style></defs><title>Artboard 1</title><polygon class="cls-1" points="119.96 270.6 226.25 209.58 226.25 86.42 119.96 24.73 11.12 86.42 11.12 209.58 119.96 270.6"/><path class="cls-2" d="M197.19,226.33l29.07-16.75V86.42L120,24.73,66.82,54.91s3.44,41.38,45.27,98.3C153.69,209.69,197.19,226.33,197.19,226.33Z"/><polygon class="cls-3" points="87.45 42.93 119.52 24.18 226.37 86.42 226.37 209.91 118.3 271.38 11.12 209.91 11.12 86.42 56.83 60.24 87.45 42.93"/><polygon class="cls-4" points="19.26 453.91 124.92 393.13 124.92 270.71 19.26 209.38 -88.94 270.71 -88.94 393.13 19.26 453.91"/><path class="cls-5" d="M96,409.79l28.9-16.65V270.71L19.26,209.38l-52.83,30s3.42,41.14,45,97.72C52.68,393.24,96,409.79,96,409.79Z"/><polygon class="cls-3" points="-13.17 227.47 18.82 208.94 124.92 270.71 124.92 393.58 17.61 454.68 -89.05 393.58 -89.05 270.71 -43.5 244.67 -13.17 227.47"/><polygon class="cls-4" points="441.09 453.91 546.75 393.13 546.75 270.71 441.09 209.38 332.89 270.71 332.89 393.13 441.09 453.91"/><path class="cls-5" d="M517.86,409.79l28.9-16.65V270.71L441.09,209.38l-52.83,30s3.42,41.14,45,97.72C474.51,393.24,517.86,409.79,517.86,409.79Z"/><polygon class="cls-3" points="408.66 227.47 440.65 208.94 546.75 270.71 546.75 393.58 439.44 454.68 332.78 393.58 332.78 270.71 378.33 244.67 408.66 227.47"/><polygon class="cls-1" points="231.26 453.13 337.56 392.11 337.56 268.96 231.26 207.27 122.42 268.96 122.42 392.11 231.26 453.13"/><path class="cls-2" d="M308.49,408.87l29.07-16.75V269l-106.3-61.69-53.14,30.21s3.44,41.38,45.27,98.3C265,392.22,308.49,408.87,308.49,408.87Z"/><polygon class="cls-3" points="198.75 225.46 230.82 206.71 337.67 268.96 337.67 392.45 229.6 453.91 122.42 392.45 122.42 268.96 168.13 242.77 198.75 225.46"/><polygon class="cls-4" points="548.09 642.91 653.75 582.13 653.75 459.71 548.09 398.38 439.89 459.71 439.89 582.13 548.09 642.91"/><path class="cls-5" d="M624.86,598.79l28.9-16.65V459.71L548.09,398.38l-52.83,30s3.42,41.14,45,97.72C581.51,582.24,624.86,598.79,624.86,598.79Z"/><polygon class="cls-3" points="515.66 416.47 547.65 397.94 653.75 459.71 653.75 582.58 546.44 643.68 439.78 582.58 439.78 459.71 485.33 433.68 515.66 416.47"/><polygon class="cls-1" points="338.26 642.13 444.56 581.11 444.56 457.96 338.26 396.27 229.42 457.96 229.42 581.11 338.26 642.13"/><path class="cls-2" d="M415.49,597.87l29.07-16.75V458l-106.3-61.69-53.14,30.21s3.44,41.38,45.27,98.3C372,581.22,415.49,597.87,415.49,597.87Z"/><polygon class="cls-3" points="305.75 414.46 337.82 395.71 444.67 457.96 444.67 581.45 336.6 642.91 229.42 581.45 229.42 457.96 275.13 431.77 305.75 414.46"/><polygon class="cls-4" points="861.09 453.91 966.75 393.13 966.75 270.71 861.09 209.38 752.89 270.71 752.89 393.13 861.09 453.91"/><path class="cls-5" d="M937.86,409.79l28.9-16.65V270.71L861.09,209.38l-52.83,30s3.42,41.14,45,97.72C894.51,393.24,937.86,409.79,937.86,409.79Z"/><polygon class="cls-3" points="828.66 227.47 860.65 208.94 966.75 270.71 966.75 393.58 859.44 454.68 752.78 393.58 752.78 270.71 798.33 244.67 828.66 227.47"/><polygon class="cls-1" points="651.26 453.13 757.55 392.11 757.55 268.96 651.26 207.27 542.42 268.96 542.42 392.11 651.26 453.13"/><path class="cls-2" d="M728.49,408.87l29.07-16.75V269l-106.3-61.69-53.14,30.21s3.44,41.38,45.27,98.3C685,392.22,728.49,408.87,728.49,408.87Z"/><polygon class="cls-3" points="618.75 225.46 650.82 206.71 757.67 268.96 757.67 392.45 649.6 453.91 542.42 392.45 542.42 268.96 588.13 242.77 618.75 225.46"/><polygon class="cls-1" points="1075.26 463.8 1181.56 402.78 1181.56 279.62 1075.26 217.93 966.42 279.62 966.42 402.78 1075.26 463.8"/><path class="cls-2" d="M1152.49,419.53l29.07-16.75V279.62l-106.29-61.69-53.15,30.18s3.44,41.38,45.27,98.3C1109,402.89,1152.49,419.53,1152.49,419.53Z"/><polygon class="cls-3" points="1042.76 236.13 1074.82 217.38 1181.67 279.62 1181.67 403.11 1073.6 464.58 966.42 403.11 966.42 279.62 1012.13 253.44 1042.76 236.13"/><polygon class="cls-4" points="758.09 642.91 863.75 582.13 863.75 459.71 758.09 398.38 649.89 459.71 649.89 582.13 758.09 642.91"/><path class="cls-5" d="M834.86,598.79l28.9-16.65V459.71L758.09,398.38l-52.83,30s3.42,41.14,45,97.72C791.51,582.24,834.86,598.79,834.86,598.79Z"/><polygon class="cls-3" points="725.66 416.47 757.65 397.94 863.75 459.71 863.75 582.58 756.44 643.68 649.78 582.58 649.78 459.71 695.33 433.68 725.66 416.47"/><polygon class="cls-4" points="968.09 642.91 1073.76 582.13 1073.76 459.71 968.09 398.38 859.89 459.71 859.89 582.13 968.09 642.91"/><path class="cls-5" d="M1044.86,598.79l28.9-16.65V459.71L968.09,398.38l-52.83,30s3.42,41.14,45,97.72C1001.51,582.24,1044.86,598.79,1044.86,598.79Z"/><polygon class="cls-3" points="935.66 416.47 967.65 397.94 1073.76 459.71 1073.76 582.58 966.44 643.68 859.78 582.58 859.78 459.71 905.33 433.68 935.66 416.47"/><polygon class="cls-1" points="1182.6 638.06 1288.89 577.03 1288.89 453.88 1182.6 392.19 1073.76 453.88 1073.76 577.03 1182.6 638.06"/><path class="cls-2" d="M1259.82,593.79,1288.89,577V453.88L1182.6,392.19l-53.15,30.18s3.44,41.38,45.27,98.3C1216.33,577.15,1259.82,593.79,1259.82,593.79Z"/><polygon class="cls-3" points="1150.09 410.39 1182.15 391.63 1289 453.88 1289 577.37 1180.93 638.83 1073.76 577.37 1073.76 453.88 1119.47 427.69 1150.09 410.39"/><polygon class="cls-4" points="1291.09 453.91 1396.76 393.13 1396.76 270.71 1291.09 209.38 1182.89 270.71 1182.89 393.13 1291.09 453.91"/><path class="cls-5" d="M1367.86,409.79l28.9-16.65V270.71l-105.67-61.33-52.83,30s3.42,41.14,45,97.72C1324.51,393.24,1367.86,409.79,1367.86,409.79Z"/><polygon class="cls-3" points="1258.66 227.47 1290.65 208.94 1396.76 270.71 1396.76 393.58 1289.44 454.68 1182.78 393.58 1182.78 270.71 1228.33 244.67 1258.66 227.47"/><polygon class="cls-1" points="1505.26 463.8 1611.56 402.78 1611.56 279.62 1505.26 217.93 1396.42 279.62 1396.42 402.78 1505.26 463.8"/><path class="cls-2" d="M1582.49,419.53l29.07-16.75V279.62l-106.29-61.69-53.15,30.18s3.44,41.38,45.27,98.3C1539,402.89,1582.49,419.53,1582.49,419.53Z"/><polygon class="cls-3" points="1472.76 236.13 1504.82 217.38 1611.67 279.62 1611.67 403.11 1503.6 464.58 1396.42 403.11 1396.42 279.62 1442.13 253.44 1472.76 236.13"/><polygon class="cls-4" points="1288.09 822.91 1393.76 762.13 1393.76 639.71 1288.09 578.38 1179.89 639.71 1179.89 762.13 1288.09 822.91"/><path class="cls-5" d="M1364.86,778.79l28.9-16.65V639.71l-105.67-61.33-52.83,30s3.42,41.14,45,97.72C1321.51,762.24,1364.86,778.79,1364.86,778.79Z"/><polygon class="cls-3" points="1255.66 596.47 1287.65 577.94 1393.76 639.71 1393.76 762.58 1286.44 823.68 1179.78 762.58 1179.78 639.71 1225.33 613.68 1255.66 596.47"/><polygon class="cls-4" points="1398.09 642.91 1503.76 582.13 1503.76 459.71 1398.09 398.38 1289.89 459.71 1289.89 582.13 1398.09 642.91"/><path class="cls-5" d="M1474.86,598.79l28.9-16.65V459.71l-105.67-61.33-52.83,30s3.42,41.14,45,97.72C1431.51,582.24,1474.86,598.79,1474.86,598.79Z"/><polygon class="cls-3" points="1365.66 416.47 1397.65 397.94 1503.76 459.71 1503.76 582.58 1396.44 643.68 1289.78 582.58 1289.78 459.71 1335.33 433.68 1365.66 416.47"/><polygon class="cls-4" points="119.26 633.91 224.93 573.13 224.93 450.71 119.26 389.38 11.06 450.71 11.06 573.13 119.26 633.91"/><path class="cls-5" d="M196,589.79l28.9-16.65V450.71L119.26,389.38l-52.83,30s3.42,41.14,45,97.72C152.68,573.24,196,589.79,196,589.79Z"/><polygon class="cls-3" points="86.83 407.47 118.82 388.94 224.93 450.71 224.93 573.58 117.61 634.68 10.95 573.58 10.95 450.71 56.5 424.68 86.83 407.47"/><g class="cls-6"><text class="cls-7" transform="translate(47.98 115.53)">Best Ko</text><text class="cls-8" transform="translate(100.06 115.53)">f</text><text class="cls-7" transform="translate(104.99 115.53)">fee... Ever! I </text><text class="cls-7" transform="translate(52.61 132.33)">studied all night for </text><text class="cls-7" transform="translate(57.55 149.13)">my exams and the </text><text class="cls-7" transform="translate(67.27 165.93)">best part is the </text><text class="cls-7" transform="translate(64.55 182.73)">ene</text><text class="cls-8" transform="translate(88.66 182.73)">r</text><text class="cls-7" transform="translate(94.1 182.73)">gy with NO</text></g><g class="cls-6"><text class="cls-7" transform="translate(380.95 277.38)">Ko</text><text class="cls-8" transform="translate(399.6 277.38)">f</text><text class="cls-7" transform="translate(404.53 277.38)">fee with a K is </text><text class="cls-7" transform="translate(366.17 294.18)"><tspan xml:space="preserve">Krazy with a K.  Krazy </tspan></text><text class="cls-7" transform="translate(378.25 310.98)">good!!! I have not </text><text class="cls-7" transform="translate(366.7 327.78)">drank co</text><text class="cls-8" transform="translate(423.99 327.78)">f</text><text class="cls-7" transform="translate(428.91 327.78)">fee for years </text><text class="cls-7" transform="translate(368.62 344.58)">until no</text><text class="cls-9" transform="translate(418.38 344.58)">w</text><text class="cls-7" transform="translate(429.01 344.58)">, finally I can </text><text class="cls-7" transform="translate(381.85 361.38)">enjoy my favorite </text><text class="cls-7" transform="translate(361.1 378.18)">beverage again without </text><text class="cls-7" transform="translate(373.27 394.98)">all the negative side </text><text class="cls-7" transform="translate(415.42 411.78)">e</text><text class="cls-8" transform="translate(423.45 411.78)">f</text><text class="cls-7" transform="translate(428.38 411.78)">fects.</text></g><g class="cls-6"><text class="cls-7" transform="translate(788.08 317.38)">Finall</text><text class="cls-10" transform="translate(822.86 317.38)">y</text><text class="cls-7" transform="translate(829.35 317.38)">, a cold-b</text><text class="cls-8" transform="translate(890.01 317.38)">r</text><text class="cls-7" transform="translate(895.46 317.38)">ewed </text><text class="cls-7" transform="translate(796.4 334.18)">co</text><text class="cls-8" transform="translate(811.69 334.18)">f</text><text class="cls-7" transform="translate(816.62 334.18)">fee that actually </text><text class="cls-7" transform="translate(799.52 350.98)">tastes the way it&apos;s </text><text class="cls-7" transform="translate(815.73 367.78)">supposed to!</text></g><g class="cls-6"><text class="cls-7" transform="translate(1103.75 467.38)">I’m a Starbucks junkie &amp; </text><text class="cls-7" transform="translate(1113.63 484.18)">it was ha</text><text class="cls-8" transform="translate(1172.48 484.18)">r</text><text class="cls-7" transform="translate(1177.92 484.18)">d for me to </text><text class="cls-7" transform="translate(1117.75 500.98)">imagine that I could </text><text class="cls-7" transform="translate(1117.99 517.78)">possibly </text><text class="cls-8" transform="translate(1176.34 517.78)">r</text><text class="cls-7" transform="translate(1181.79 517.78)">eplace my </text><text class="cls-7" transform="translate(1112.95 534.58)">skinny hazelnut latte, </text><text class="cls-7" transform="translate(1102.09 551.38)">but he</text><text class="cls-8" transform="translate(1144.86 551.38)">r</text><text class="cls-7" transform="translate(1150.31 551.38)">e we a</text><text class="cls-8" transform="translate(1193.84 551.38)">r</text><text class="cls-7" transform="translate(1199.29 551.38)"><tspan xml:space="preserve">e.  Ko</tspan></text><text class="cls-8" transform="translate(1238.41 551.38)">f</text><text class="cls-7" transform="translate(1243.33 551.38)">fee </text><text class="cls-7" transform="translate(1107.92 568.18)">now lines the top shelf </text><text class="cls-7" transform="translate(1117.78 584.98)">of my </text><text class="cls-8" transform="translate(1159.75 584.98)">r</text><text class="cls-7" transform="translate(1165.2 584.98)">efrigerato</text><text class="cls-11" transform="translate(1232.06 584.98)">r</text><text class="cls-7" transform="translate(1236.47 584.98)">...</text></g></svg>