<?xml version="1.0" encoding="UTF-8"?>
<svg width="1440px" height="643px" viewBox="0 0 1440 643" version="1.1" xmlns="http://www.w3.org/2000/svg" xmlns:xlink="http://www.w3.org/1999/xlink">
    <!-- Generator: Sketch 43.1 (39012) - http://www.bohemiancoding.com/sketch -->
    <title>Group 15</title>
    <desc>Created with Sketch.</desc>
    <defs></defs>
    <g id="Welcome" stroke="none" stroke-width="1" fill="none" fill-rule="evenodd">
        <g id="Desktop-HD-Copy-5" transform="translate(0.000000, -3147.000000)">
            <g id="Group-15" transform="translate(-130.000000, 3147.000000)">
                <g id="Group-14" fill-rule="nonzero">
                    <g id="Group-13">
                        <g id="Group-12" transform="translate(0.000000, 186.000000)">
                            <g id="Group-11">
                                <g id="Group-10">
                                    <polygon id="Shape-Copy" fill="#000000" points="237.941387 67.9992778 237.941387 203.999278 118.971416 272 0.339336611 203.999278 0.170390298 204.169709 -4.54747351e-13 203.999278 -4.54747351e-13 67.9992778 119.310752 0"></polygon>
                                    <polygon id="Shape" fill="#FFD248" points="217.854114 79.5430714 217.854114 192.630415 118.927657 249.174688 20.2821667 192.630415 20.1416837 192.772133 20 192.630415 20 79.5430714 119.209824 23"></polygon>
                                    <path d="M69.576286,51 L19,79.8263976 L19,192.913741 L117.927657,249.456813 L189.390285,208.610809 C130.584336,174.866317 86.7500341,118.359276 69.576286,51 Z" id="Shape" fill="#FDC147"></path>
                                </g>
                                <g id="Group-10-Copy" transform="translate(218.000000, 0.000000)">
                                    <polygon id="Shape-Copy" fill="#000000" points="237.941387 67.9992778 237.941387 203.999278 118.971416 272 0.339336611 203.999278 0.170390298 204.169709 -4.54747351e-13 203.999278 -4.54747351e-13 67.9992778 119.310752 0"></polygon>
                                    <polygon id="Shape" fill="#F79B43" points="217.854114 79.5430714 217.854114 192.630415 118.927657 249.174688 20.2821667 192.630415 20.1416837 192.772133 20 192.630415 20 79.5430714 119.209824 23"></polygon>
                                    <path d="M69.576286,51 L19,79.8263976 L19,192.913741 L117.927657,249.456813 L189.390285,208.610809 C130.584336,174.866317 86.7500341,118.359276 69.576286,51 Z" id="Shape" fill="#F78F41"></path>
                                </g>
                            </g>
                            <g id="Group-11-Copy" transform="translate(329.000000, 185.000000)">
                                <g id="Group-10-Copy">
                                    <polygon id="Shape-Copy" fill="#000000" points="237.941387 67.9992778 237.941387 203.999278 118.971416 272 0.339336611 203.999278 0.170390298 204.169709 -4.54747351e-13 203.999278 -4.54747351e-13 67.9992778 119.310752 0"></polygon>
                                    <polygon id="Shape" fill="#F79B43" points="217.854114 79.5430714 217.854114 192.630415 118.927657 249.174688 20.2821667 192.630415 20.1416837 192.772133 20 192.630415 20 79.5430714 119.209824 23"></polygon>
                                    <path d="M69.576286,51 L19,79.8263976 L19,192.913741 L117.927657,249.456813 L189.390285,208.610809 C130.584336,174.866317 86.7500341,118.359276 69.576286,51 Z" id="Shape" fill="#F78F41"></path>
                                </g>
                            </g>
                        </g>
                        <g id="Group-12-Copy" transform="translate(440.000000, 0.000000)">
                            <g id="Group-11" transform="translate(0.000000, 186.000000)">
                                <g id="Group-10">
                                    <polygon id="Shape-Copy" fill="#000000" points="237.941387 67.9992778 237.941387 203.999278 118.971416 272 0.339336611 203.999278 0.170390298 204.169709 -4.54747351e-13 203.999278 -4.54747351e-13 67.9992778 119.310752 0"></polygon>
                                    <polygon id="Shape" fill="#FFD248" points="217.854114 79.5430714 217.854114 192.630415 118.927657 249.174688 20.2821667 192.630415 20.1416837 192.772133 20 192.630415 20 79.5430714 119.209824 23"></polygon>
                                    <path d="M69.576286,51 L19,79.8263976 L19,192.913741 L117.927657,249.456813 L189.390285,208.610809 C130.584336,174.866317 86.7500341,118.359276 69.576286,51 Z" id="Shape" fill="#FDC147"></path>
                                </g>
                                <g id="Group-10-Copy" transform="translate(218.000000, 0.000000)">
                                    <polygon id="Shape-Copy" fill="#000000" points="237.941387 67.9992778 237.941387 203.999278 118.971416 272 0.339336611 203.999278 0.170390298 204.169709 -4.54747351e-13 203.999278 -4.54747351e-13 67.9992778 119.310752 0"></polygon>
                                    <polygon id="Shape" fill="#F79B43" points="217.854114 79.5430714 217.854114 192.630415 118.927657 249.174688 20.2821667 192.630415 20.1416837 192.772133 20 192.630415 20 79.5430714 119.209824 23"></polygon>
                                    <path d="M69.576286,51 L19,79.8263976 L19,192.913741 L117.927657,249.456813 L189.390285,208.610809 C130.584336,174.866317 86.7500341,118.359276 69.576286,51 Z" id="Shape" fill="#F78F41"></path>
                                </g>
                            </g>
                            <g id="Group-11-Copy" transform="translate(980.000000, 0.000000)">
                                <g id="Group-10-Copy">
                                    <polygon id="Shape-Copy" fill="#000000" points="237.941387 67.9992778 237.941387 203.999278 118.971416 272 0.339336611 203.999278 0.170390298 204.169709 -4.54747351e-13 203.999278 -4.54747351e-13 67.9992778 119.310752 0"></polygon>
                                    <polygon id="Shape" fill="#F79B43" points="217.854114 79.5430714 217.854114 192.630415 118.927657 249.174688 20.2821667 192.630415 20.1416837 192.772133 20 192.630415 20 79.5430714 119.209824 23"></polygon>
                                    <path d="M69.576286,51 L19,79.8263976 L19,192.913741 L117.927657,249.456813 L189.390285,208.610809 C130.584336,174.866317 86.7500341,118.359276 69.576286,51 Z" id="Shape" fill="#F78F41"></path>
                                </g>
                            </g>
                            <g id="Group-11-Copy-2" transform="translate(-330.000000, 0.000000)">
                                <g id="Group-10-Copy">
                                    <polygon id="Shape-Copy" fill="#000000" points="237.941387 67.9992778 237.941387 203.999278 118.971416 272 0.339336611 203.999278 0.170390298 204.169709 -4.54747351e-13 203.999278 -4.54747351e-13 67.9992778 119.310752 0"></polygon>
                                    <polygon id="Shape" fill="#F79B43" points="217.854114 79.5430714 217.854114 192.630415 118.927657 249.174688 20.2821667 192.630415 20.1416837 192.772133 20 192.630415 20 79.5430714 119.209824 23"></polygon>
                                    <path d="M69.576286,51 L19,79.8263976 L19,192.913741 L117.927657,249.456813 L189.390285,208.610809 C130.584336,174.866317 86.7500341,118.359276 69.576286,51 Z" id="Shape" fill="#F78F41"></path>
                                </g>
                            </g>
                        </g>
                    </g>
                    <g id="Group-13-Copy" transform="translate(870.000000, 186.000000)">
                        <g id="Group-12">
                            <g id="Group-11">
                                <g id="Group-10">
                                    <polygon id="Shape-Copy" fill="#000000" points="237.941387 67.9992778 237.941387 203.999278 118.971416 272 0.339336611 203.999278 0.170390298 204.169709 -4.54747351e-13 203.999278 -4.54747351e-13 67.9992778 119.310752 0"></polygon>
                                    <polygon id="Shape" fill="#FFD248" points="217.854114 79.5430714 217.854114 192.630415 118.927657 249.174688 20.2821667 192.630415 20.1416837 192.772133 20 192.630415 20 79.5430714 119.209824 23"></polygon>
                                    <path d="M69.576286,51 L19,79.8263976 L19,192.913741 L117.927657,249.456813 L189.390285,208.610809 C130.584336,174.866317 86.7500341,118.359276 69.576286,51 Z" id="Shape" fill="#FDC147"></path>
                                </g>
                                <g id="Group-10-Copy" transform="translate(218.000000, 0.000000)">
                                    <polygon id="Shape-Copy" fill="#000000" points="237.941387 67.9992778 237.941387 203.999278 118.971416 272 0.339336611 203.999278 0.170390298 204.169709 -4.54747351e-13 203.999278 -4.54747351e-13 67.9992778 119.310752 0"></polygon>
                                    <polygon id="Shape" fill="#F79B43" points="217.854114 79.5430714 217.854114 192.630415 118.927657 249.174688 20.2821667 192.630415 20.1416837 192.772133 20 192.630415 20 79.5430714 119.209824 23"></polygon>
                                    <path d="M69.576286,51 L19,79.8263976 L19,192.913741 L117.927657,249.456813 L189.390285,208.610809 C130.584336,174.866317 86.7500341,118.359276 69.576286,51 Z" id="Shape" fill="#F78F41"></path>
                                </g>
                            </g>
                            <g id="Group-11-Copy" transform="translate(111.000000, 185.000000)">
                                <g id="Group-10">
                                    <polygon id="Shape-Copy" fill="#000000" points="237.941387 67.9992778 237.941387 203.999278 118.971416 272 0.339336611 203.999278 0.170390298 204.169709 -4.54747351e-13 203.999278 -4.54747351e-13 67.9992778 119.310752 0"></polygon>
                                    <polygon id="Shape" fill="#FFD248" points="217.854114 79.5430714 217.854114 192.630415 118.927657 249.174688 20.2821667 192.630415 20.1416837 192.772133 20 192.630415 20 79.5430714 119.209824 23"></polygon>
                                    <path d="M69.576286,51 L19,79.8263976 L19,192.913741 L117.927657,249.456813 L189.390285,208.610809 C130.584336,174.866317 86.7500341,118.359276 69.576286,51 Z" id="Shape" fill="#FDC147"></path>
                                </g>
                                <g id="Group-10-Copy" transform="translate(218.000000, 0.000000)">
                                    <polygon id="Shape-Copy" fill="#000000" points="237.941387 67.9992778 237.941387 203.999278 118.971416 272 0.339336611 203.999278 0.170390298 204.169709 -4.54747351e-13 203.999278 -4.54747351e-13 67.9992778 119.310752 0"></polygon>
                                    <polygon id="Shape" fill="#F79B43" points="217.854114 79.5430714 217.854114 192.630415 118.927657 249.174688 20.2821667 192.630415 20.1416837 192.772133 20 192.630415 20 79.5430714 119.209824 23"></polygon>
                                    <path d="M69.576286,51 L19,79.8263976 L19,192.913741 L117.927657,249.456813 L189.390285,208.610809 C130.584336,174.866317 86.7500341,118.359276 69.576286,51 Z" id="Shape" fill="#F78F41"></path>
                                </g>
                            </g>
                        </g>
                        <g id="Group-12-Copy" transform="translate(440.000000, 0.000000)">
                            <g id="Group-11">
                                <g id="Group-10">
                                    <polygon id="Shape-Copy" fill="#000000" points="237.941387 67.9992778 237.941387 203.999278 118.971416 272 0.339336611 203.999278 0.170390298 204.169709 -4.54747351e-13 203.999278 -4.54747351e-13 67.9992778 119.310752 0"></polygon>
                                    <polygon id="Shape" fill="#FFD248" points="217.854114 79.5430714 217.854114 192.630415 118.927657 249.174688 20.2821667 192.630415 20.1416837 192.772133 20 192.630415 20 79.5430714 119.209824 23"></polygon>
                                    <path d="M69.576286,51 L19,79.8263976 L19,192.913741 L117.927657,249.456813 L189.390285,208.610809 C130.584336,174.866317 86.7500341,118.359276 69.576286,51 Z" id="Shape" fill="#FDC147"></path>
                                </g>
                                <g id="Group-10-Copy" transform="translate(218.000000, 0.000000)">
                                    <polygon id="Shape-Copy" fill="#000000" points="237.941387 67.9992778 237.941387 203.999278 118.971416 272 0.339336611 203.999278 0.170390298 204.169709 -4.54747351e-13 203.999278 -4.54747351e-13 67.9992778 119.310752 0"></polygon>
                                    <polygon id="Shape" fill="#F79B43" points="217.854114 79.5430714 217.854114 192.630415 118.927657 249.174688 20.2821667 192.630415 20.1416837 192.772133 20 192.630415 20 79.5430714 119.209824 23"></polygon>
                                    <path d="M69.576286,51 L19,79.8263976 L19,192.913741 L117.927657,249.456813 L189.390285,208.610809 C130.584336,174.866317 86.7500341,118.359276 69.576286,51 Z" id="Shape" fill="#F78F41"></path>
                                </g>
                            </g>
                        </g>
                    </g>
                </g>
                <text id="Koffee-with-a-K-is-K" font-family="AvenirNext-Bold, Avenir Next" font-size="12" font-weight="bold" fill="#000000">
                    <tspan x="490.232" y="279">Koffee with a K is Krazy </tspan>
                    <tspan x="487.052" y="295">with a K.  Krazy good!!! I </tspan>
                    <tspan x="485.312" y="311">have not drank coffee for </tspan>
                    <tspan x="489.692" y="327">years until now, finally I </tspan>
                    <tspan x="495.95" y="343">can enjoy my favorite </tspan>
                    <tspan x="488.936" y="359">beverage again without </tspan>
                    <tspan x="499.844" y="375">all the negative side </tspan>
                    <tspan x="537.278" y="391">effects.</tspan>
                </text>
                <text id="Finally,-a-cold-brew" font-family="AvenirNext-Bold, Avenir Next" font-size="14" font-weight="bold" fill="#000000">
                    <tspan x="913.782" y="304">Finally, a cold-brewed </tspan>
                    <tspan x="923.918" y="323">coffee that actually </tspan>
                    <tspan x="928.076" y="342">tastes the way it's </tspan>
                    <tspan x="943.917" y="361">supposed to!</tspan>
                </text>
                <text id="I’m-a-Starbucks-junk" font-family="AvenirNext-Bold, Avenir Next" font-size="12" font-weight="bold" fill="#000000">
                    <tspan x="1241.026" y="470">I’m a Starbucks junkie &amp; it </tspan>
                    <tspan x="1237.024" y="486">was hard for me to imagine </tspan>
                    <tspan x="1234.978" y="502">that I could possibly replace </tspan>
                    <tspan x="1232.926" y="518">my skinny hazelnut latte, but </tspan>
                    <tspan x="1244.284" y="534">here we are.  Koffee now </tspan>
                    <tspan x="1246.564" y="550">lines the top shelf of my </tspan>
                    <tspan x="1277.668" y="566">refrigerator...</tspan>
                </text>
                <text id="Best-Koffee...-Ever!" font-family="AvenirNext-Bold, Avenir Next" font-size="14" font-weight="bold" fill="#000000">
                    <tspan x="155.201" y="106">Best Koffee... Ever! I </tspan>
                    <tspan x="144.61" y="125">studied all night for my </tspan>
                    <tspan x="142.069" y="144">exams and the best part </tspan>
                    <tspan x="149.573" y="163">is the energy with NO </tspan>
                    <tspan x="167.605" y="182">CRASH AT ALL!!!</tspan>
                </text>
            </g>
        </g>
    </g>
</svg>