<?xml version="1.0" encoding="utf-8"?>
<!-- Generator: Adobe Illustrator 21.0.0, SVG Export Plug-In . SVG Version: 6.00 Build 0)  -->
<!DOCTYPE svg PUBLIC "-//W3C//DTD SVG 1.1//EN" "http://www.w3.org/Graphics/SVG/1.1/DTD/svg11.dtd">
<svg version="1.1" id="Layer_1" xmlns="http://www.w3.org/2000/svg" xmlns:xlink="http://www.w3.org/1999/xlink" x="0px" y="0px"
	 viewBox="0 0 75.3 75.3" style="enable-background:new 0 0 75.3 75.3;" xml:space="preserve">
<style type="text/css">
	.st0{fill:#402722;}
	.st1{fill:#23201F;}
	.st2{fill:#FFFFFF;}
	.st3{fill:#D8C8A8;}
</style>
<g id="Page-1">
	<path id="Fill-1" class="st0" d="M41.1,19.4c-1.1-0.4-2.3-0.7-3.5-0.8c0.7,0.1,1.4,0.2,2.1,0.5c5.5,2.1,7.6,10.1,4.7,17.8
		S34.6,49.1,29.1,47c-0.6-0.3-1.2-0.6-1.8-1c0.9,0.7,1.9,1.3,3,1.7c7.4,2.9,17.7,1.1,20.9-8.2C54.6,30,48.5,22.2,41.1,19.4"/>
	<path id="Fill-5" class="st0" d="M27.3,46L27,45.7L27.3,46"/>
	<g id="Group-9">
		<path id="Fill-7" class="st1" d="M44.4,36.8c2.9-7.7,0.8-15.7-4.7-17.8c-0.7-0.3-1.4-0.4-2.1-0.5l0,0c-5-0.4-10.6,3.9-13.1,10.6
			s-1.3,13.4,2.6,16.5l0.3,0.3c0.6,0.4,1.2,0.7,1.8,1C34.6,49.1,41.5,44.5,44.4,36.8"/>
	</g>
	<path id="Fill-10" class="st2" d="M25.8,29.7c-2.5,6.6-0.7,13.5,4,15.3s10.6-2.1,13.1-8.7s0.7-13.5-4-15.3S28.3,23.1,25.8,29.7"/>
	<path id="Fill-12" class="st3" d="M27.2,30.2c-2.1,5.5-0.6,11.2,3.4,12.8s8.9-1.7,11-7.2s0.6-11.2-3.4-12.8S29.3,24.7,27.2,30.2"/>
	<path id="Fill-14" class="st2" d="M35.6,44.6c-1.1,2.1-1.7,4.5-1.6,6.9c0.1,0.5,0.2,1,0.4,1.4c0.1,0.4,0.3,0.8,0.4,1.2
		c0.2,0.7-0.3,1.5-1,1.7c0,0-0.1,0-0.1,0c-0.7,0.1-1.4-0.4-1.5-1.1c0,0,0-0.1,0-0.1c0-0.3,0.1-0.5,0.1-0.8c0.2-0.7,0.6-1.4,0.8-2.2
		c0.3-1.2,0.3-2.5-0.2-3.7c-0.1-0.3-0.2-0.5-0.4-0.7c-0.3-0.4-0.8-0.4-1.2-0.2c-0.1,0.1-0.2,0.2-0.2,0.3c-0.4,0.6-0.6,1.3-0.7,2
		c-0.5,2.1-0.5,4.4,0,6.5c0.2,0.9,0.7,1.8,1,2.7c0.3,0.6,0.4,1.2,0.4,1.9c-0.2,1.3-1.4,2.1-2.6,1.9c0,0,0,0-0.1,0
		c-1.2-0.3-2-1.5-1.7-2.7c0,0,0-0.1,0-0.1c0.1-0.5,0.3-1,0.5-1.4c0.8-1.6,1.2-3.5,1-5.3c-0.1-2.7-0.5-8.7-1.7-11.1
		c-0.3-0.6-0.7-1.2-1.1-1.8C26.2,40,29.4,45.6,35.6,44.6"/>
</g>
<g>
</g>
<g>
</g>
<g>
</g>
<g>
</g>
<g>
</g>
<g>
</g>
</svg>
