<?xml version="1.0" encoding="utf-8"?>
<!-- Generator: Adobe Illustrator 21.0.0, SVG Export Plug-In . SVG Version: 6.00 Build 0)  -->
<!DOCTYPE svg PUBLIC "-//W3C//DTD SVG 1.1//EN" "http://www.w3.org/Graphics/SVG/1.1/DTD/svg11.dtd">
<svg version="1.1" id="Capa_1" xmlns="http://www.w3.org/2000/svg" xmlns:xlink="http://www.w3.org/1999/xlink" x="0px" y="0px"
	 viewBox="0 0 512 512" style="enable-background:new 0 0 512 512;" xml:space="preserve">
<style type="text/css">
	.st0{fill:#573829;}
	.st1{fill:#87583F;}
</style>
<g>
	<path class="st0" d="M274.8,202.3C258.3,123.9,204.6,57,125.4,29l0,0c-42.1-16.5-88.3,5-103.2,47.9l-4.1,10.7
		C-19.9,208.9,42.8,346,158.4,393l0,0c5,1.7,9.9,3.3,15.7,4.1C173.3,317.9,212.9,246.1,274.8,202.3"/>
	<path class="st1" d="M268.2,481.3l-11.6,0.8c-45.4,1.7-81.7-34.7-81.7-80.1l0,0c-4.1-129.6,99.1-238.6,232-243.5l11.6-0.8
		c45.4-2.5,82.6,32.2,82.6,77.6l0,0C499.3,360.8,395.3,471.4,268.2,481.3"/>
	<path class="st0" d="M485.3,189.1c-4.1-5.8-9.1-10.7-14-14.9c-1.7,1.7-2.5,3.3-2.5,5c-1.7,80.9-47.9,124.7-130.4,124.7h-0.8
		c-87.5,0-139.5,52-146.9,145.3c4.1,5,8.3,9.9,13.2,14c1.7-1.7,2.5-3.3,2.5-5.8c4.1-89.2,49.5-137,130.4-137h0.8
		C427.5,321.2,480.4,273.3,485.3,189.1"/>
	<path class="st1" d="M177.4,355.9c-37.1-33.8-44.6-83.4-22.3-140.3c32.2-81.7,4.1-148.6-80.1-189.9c-6.6,1.7-12.4,4.1-19,7.4
		c0.8,1.7,2.5,3.3,4.1,4.1c81.7,37.1,109,96.6,78.4,171.7c-26.4,66-15.7,123.8,30.5,162.6c1.7,0.8,3.3,1.7,5,1.7
		C175.8,368.3,176.6,362.5,177.4,355.9"/>
</g>
</svg>
