<?xml version="1.0" encoding="utf-8"?>
<!-- Generator: Adobe Illustrator 21.0.0, SVG Export Plug-In . SVG Version: 6.00 Build 0)  -->
<!DOCTYPE svg PUBLIC "-//W3C//DTD SVG 1.1//EN" "http://www.w3.org/Graphics/SVG/1.1/DTD/svg11.dtd">
<svg version="1.1" id="Layer_1" xmlns="http://www.w3.org/2000/svg" xmlns:xlink="http://www.w3.org/1999/xlink" x="0px" y="0px"
	 viewBox="0 0 75.3 75.3" style="enable-background:new 0 0 75.3 75.3;" xml:space="preserve">
<style type="text/css">
	.st0{fill:#191918;}
</style>
<g id="Layer_2">
	<path class="st0" d="M67.8,53.1l-9.4-5.4l4.9-1.3c0.8-0.2,1.3-1.1,1.1-1.9c-0.2-0.8-1.1-1.3-1.9-1.1l0,0l-8,2.1l-0.1-0.1l-4.6-7.7
		l4.5-7.6l0.2-0.1l8,2.1c0.1,0,0.3,0.1,0.4,0.1c0.9,0,1.6-0.7,1.5-1.6c0-0.7-0.5-1.3-1.1-1.5l-4.9-1.3l1.3-0.8l0,0l8.1-4.7
		c0.8-0.4,1-1.4,0.6-2.2s-1.4-1-2.2-0.6l0,0l-9.4,5.4l1.3-4.9c0.2-0.8-0.3-1.7-1.1-1.9c-0.8-0.2-1.7,0.3-1.9,1.1l-2.1,8l-0.1,0.1H44
		l-4.3-7.6v-0.1l5.8-5.8c0.6-0.7,0.5-1.6-0.2-2.2c-0.6-0.5-1.5-0.5-2,0l-3.6,3.6V4.4c0-0.9-0.7-1.6-1.6-1.6c-0.9,0-1.6,0.7-1.6,1.6
		v10.8l-3.6-3.6c-0.6-0.7-1.5-0.7-2.2-0.2C30,12,29.9,13,30.5,13.6c0.1,0.1,0.1,0.1,0.2,0.2l5.8,5.8v0.1l-4.3,7.6h-8.9l-0.1-0.1
		l-2.1-8c-0.2-0.8-1.1-1.3-1.9-1.1c-0.8,0.2-1.3,1.1-1.1,1.9l1.3,4.9l-1.3-0.8l0,0L10,19.4c-0.8-0.4-1.8-0.2-2.2,0.6
		c-0.4,0.8-0.2,1.8,0.6,2.2l9.4,5.4l-4.9,1.3c-0.8,0.2-1.3,1.1-1.1,2c0.2,0.7,0.8,1.1,1.5,1.1c0.1,0,0.3,0,0.4-0.1l8-2.1l0.2,0.1
		l4.5,7.6l-4.6,7.7l-0.1,0.1l-8-2.1c-0.8-0.2-1.7,0.3-1.9,1.1c-0.2,0.8,0.3,1.7,1.1,1.9l4.9,1.3l-9.4,5.4c-0.8,0.4-1.1,1.4-0.6,2.2
		c0.3,0.5,0.8,0.8,1.4,0.8c0.3,0,0.5-0.1,0.8-0.2l8.1-4.7l0,0l1.3-0.8l-1.3,4.9c-0.2,0.8,0.3,1.7,1.1,1.9c0.1,0,0.3,0.1,0.4,0.1
		c0.7,0,1.3-0.5,1.5-1.2l2.1-8l0.2-0.1h8.9l4.3,7.6v0.2l-5.8,5.8c-0.7,0.6-0.7,1.5-0.2,2.2c0.6,0.7,1.5,0.7,2.2,0.2
		c0.1-0.1,0.1-0.1,0.2-0.2l3.6-3.6v10.8c0,0.9,0.7,1.6,1.6,1.6c0.9,0,1.6-0.7,1.6-1.6V60l3.6,3.6c0.5,0.6,1.5,0.7,2.1,0.1
		c0,0,0.1-0.1,0.1-0.1c0.6-0.6,0.6-1.6,0-2.2l-5.8-5.8v-0.2l4.3-7.6H53l0.2,0.1l2.1,8c0.2,0.7,0.8,1.2,1.5,1.2c0.1,0,0.3,0,0.4-0.1
		c0.8-0.2,1.3-1.1,1.1-1.9L57,50.2l1.3,0.8l0,0l8.1,4.7c0.2,0.1,0.5,0.2,0.8,0.2c0.6,0,1.1-0.3,1.4-0.8
		C68.8,54.3,68.5,53.5,67.8,53.1z M46.7,38.6l2.2,3.6l-7.6-4.4l7.6-4.4L46.8,37C46.4,37.4,46.3,38.1,46.7,38.6z M29.5,36.9l-2.1-3.6
		l7.6,4.4l-7.6,4.4l2.2-3.6C29.8,38,29.7,37.4,29.5,36.9L29.5,36.9z M38.1,38L38.1,38c-0.1,0-0.1-0.1-0.2-0.1c0-0.1,0-0.1-0.1-0.1
		l0.1-0.1c0-0.1,0-0.1,0.1-0.1h0.2c0.1,0,0.2,0,0.2,0.1c0,0.1,0,0.2-0.1,0.2c0,0,0,0,0,0C38.3,37.9,38.3,38,38.1,38L38.1,38z
		 M43.1,30.6h4.4l-7.8,4.5v-8.9l2,3.6C41.9,30.3,42.5,30.6,43.1,30.6L43.1,30.6z M33.1,30.6L33.1,30.6c0.6,0,1.1-0.3,1.4-0.8l2-3.6
		v8.9l-7.8-4.5L33.1,30.6L33.1,30.6z M33.1,44.9h-4.3l7.7-4.4v8.8l-2-3.6C34.2,45.2,33.6,44.9,33.1,44.9L33.1,44.9z M43.1,44.9
		L43.1,44.9c-0.6,0-1.1,0.3-1.4,0.8l-2,3.6v-8.8l7.7,4.4L43.1,44.9z"/>
</g>
<g>
</g>
<g>
</g>
<g>
</g>
<g>
</g>
<g>
</g>
<g>
</g>
</svg>
