<?xml version="1.0" encoding="iso-8859-1"?>
<!-- Generator: Adobe Illustrator 19.0.0, SVG Export Plug-In . SVG Version: 6.00 Build 0)  -->
<svg version="1.1" id="Layer_1" xmlns="http://www.w3.org/2000/svg" xmlns:xlink="http://www.w3.org/1999/xlink" x="0px" y="0px"
	 viewBox="0 0 485 485" style="enable-background:new 0 0 485 485;" xml:space="preserve">
<g>
	<g id="XMLID_40_">
		<g>
			<polygon style="fill:#F4661E;" points="242.5,112.5 272.5,225 262.5,257.5 242.5,257.5 222.5,257.5 212.5,225 			"/>
			<path style="fill:#E7ECED;" d="M242.5,112.5l-30,112.5l10,32.5h20h20l10-32.5L242.5,112.5z M242.5,47.5c74.6,0,135,60.4,135,135
				s-60.4,135-135,135s-135-60.4-135-135S167.9,47.5,242.5,47.5z"/>
			<path style="fill:#7F868A;" d="M317.5,452.5v25h-150v-25c0-5.5,4.5-10,10-10h45h40h45C313,442.5,317.5,447,317.5,452.5z"/>
			<path style="fill:#AFB6BB;" d="M417.5,182.5c0,89.9-67.8,163.8-155,173.8v86.2h-40v-86.2c-87.2-10-155-83.9-155-173.8
				c0-96.6,78.4-175,175-175S417.5,85.9,417.5,182.5z M242.5,317.5c74.6,0,135-60.4,135-135s-60.4-135-135-135s-135,60.4-135,135
				S167.9,317.5,242.5,317.5z"/>
		</g>
		<g>
			<path d="M385,182.5C385,103.925,321.075,40,242.5,40S100,103.925,100,182.5S163.925,325,242.5,325S385,261.075,385,182.5z
				 M115.227,190H147.5v-15h-32.273c1.574-27.007,11.59-51.782,27.446-71.72l19.524,19.524l10.607-10.607l-20.11-20.11
				C174.096,70.825,202.98,57.093,235,55.227V87.5h6.405l-36.706,137.648L216.961,265h51.078l12.263-39.852L243.595,87.5H250V55.227
				c32.02,1.867,60.904,15.599,82.307,36.859l-20.11,20.11l10.607,10.607l19.524-19.524c15.855,19.938,25.872,44.713,27.446,71.72
				H337.5v15h32.273c-3.896,66.826-59.488,120-127.273,120S119.123,256.826,115.227,190z M242.5,141.607l22.198,83.245L256.961,250
				h-28.922l-7.737-25.148L242.5,141.607z"/>
			<path d="M425,182.5C425,81.869,343.131,0,242.5,0S60,81.869,60,182.5c0,90.52,66.17,166.907,155,180.367V435h-37.5
				c-9.649,0-17.5,7.851-17.5,17.5V470h-42.5v15h250v-15H325v-17.5c0-9.649-7.851-17.5-17.5-17.5H270v-72.133
				C358.83,349.407,425,273.02,425,182.5z M75,182.5C75,90.141,150.141,15,242.5,15S410,90.141,410,182.5
				c0,85.135-63.778,156.649-148.354,166.349L255,349.61V435h-25v-85.39l-6.645-0.762C138.778,339.149,75,267.635,75,182.5z
				 M307.5,450c1.355,0,2.5,1.145,2.5,2.5V470H175v-17.5c0-1.355,1.145-2.5,2.5-2.5H307.5z"/>
		</g>
	</g>
</g>
<g>
</g>
<g>
</g>
<g>
</g>
<g>
</g>
<g>
</g>
<g>
</g>
<g>
</g>
<g>
</g>
<g>
</g>
<g>
</g>
<g>
</g>
<g>
</g>
<g>
</g>
<g>
</g>
<g>
</g>
</svg>
