<?xml version="1.0" encoding="utf-8"?>
<!-- Generator: Adobe Illustrator 21.0.0, SVG Export Plug-In . SVG Version: 6.00 Build 0)  -->
<!DOCTYPE svg PUBLIC "-//W3C//DTD SVG 1.1//EN" "http://www.w3.org/Graphics/SVG/1.1/DTD/svg11.dtd">
<svg version="1.1" id="Layer_1" xmlns="http://www.w3.org/2000/svg" xmlns:xlink="http://www.w3.org/1999/xlink" x="0px" y="0px"
	 viewBox="0 0 75.3 75.3" style="enable-background:new 0 0 75.3 75.3;" xml:space="preserve">
<style type="text/css">
	.st0{enable-background:new    ;}
	.st1{fill:#010101;}
</style>
<g>
	<g class="st0">
		<path class="st1" d="M11.3,44.9l14-16.7h-12c-0.8,0-1.5-0.2-1.9-0.6s-0.6-0.9-0.6-1.5c0-0.6,0.2-1.1,0.6-1.5
			c0.4-0.4,1.1-0.6,1.9-0.6h15.5c2,0,3,0.9,3,2.8c0,0.9-0.2,1.6-0.5,2.1c-0.3,0.5-1,1.4-2,2.6L16.2,47.1h14.4c0.9,0,1.5,0.2,1.9,0.5
			c0.4,0.4,0.6,0.8,0.6,1.5c0,0.7-0.2,1.2-0.6,1.6c-0.4,0.4-1.1,0.6-1.9,0.6H12.9c-1.2,0-2.1-0.3-2.7-0.8c-0.6-0.5-0.9-1.3-0.9-2.2
			c0-0.3,0-0.6,0.1-0.9c0.1-0.3,0.2-0.5,0.4-0.7c0.2-0.2,0.4-0.5,0.7-0.9C10.8,45.5,11.1,45.2,11.3,44.9z"/>
		<path class="st1" d="M50,36.9l-9.3,10.4h9.9c0.8,0,1.4,0.2,1.8,0.6c0.4,0.4,0.6,0.9,0.6,1.5c0,0.6-0.2,1-0.6,1.4
			c-0.4,0.4-1,0.5-1.8,0.5H36.9c-1,0-1.7-0.2-2.2-0.6c-0.5-0.4-0.7-1-0.7-1.7c0-0.4,0.2-0.9,0.5-1.3c0.3-0.4,1-1.2,2.1-2.4
			c1.1-1.2,2.1-2.4,3-3.4c0.9-1,1.8-1.9,2.5-2.8c0.8-0.9,1.4-1.6,1.9-2.2c0.5-0.6,0.9-1.1,1.2-1.6h-7.5c-1,0-1.8-0.1-2.4-0.3
			s-0.8-0.7-0.8-1.5c0-0.6,0.2-1,0.6-1.4c0.4-0.3,1-0.5,1.7-0.5h11.6c1.1,0,1.9,0.2,2.5,0.5c0.6,0.3,0.9,0.9,0.9,1.7
			c0,0.3-0.1,0.6-0.2,0.8c-0.1,0.3-0.2,0.5-0.4,0.7s-0.3,0.4-0.6,0.7C50.6,36.2,50.3,36.6,50,36.9z"/>
	</g>
	<g class="st0">
		<path class="st1" d="M65.4,40.7l-6.8,7.6h7.3c0.6,0,1,0.1,1.3,0.4s0.5,0.6,0.5,1.1c0,0.4-0.1,0.8-0.4,1s-0.7,0.4-1.3,0.4H55.8
			c-0.7,0-1.2-0.2-1.6-0.5s-0.5-0.7-0.5-1.3c0-0.3,0.1-0.6,0.4-1s0.8-0.9,1.5-1.8c0.8-0.9,1.6-1.7,2.2-2.5s1.3-1.4,1.9-2.1
			s1.1-1.2,1.4-1.6s0.7-0.8,0.9-1.1h-5.6c-0.8,0-1.3-0.1-1.7-0.2s-0.6-0.5-0.6-1.1c0-0.4,0.1-0.8,0.4-1s0.7-0.4,1.3-0.4h8.6
			c0.8,0,1.4,0.1,1.8,0.3s0.6,0.6,0.6,1.3c0,0.2,0,0.4-0.1,0.6s-0.2,0.4-0.3,0.5s-0.2,0.3-0.4,0.5S65.7,40.4,65.4,40.7z"/>
	</g>
</g>
<g>
</g>
<g>
</g>
<g>
</g>
<g>
</g>
<g>
</g>
<g>
</g>
</svg>
