<?xml version="1.0" encoding="iso-8859-1"?>
<!-- Generator: Adobe Illustrator 19.0.0, SVG Export Plug-In . SVG Version: 6.00 Build 0)  -->
<svg version="1.1" id="Layer_1" xmlns="http://www.w3.org/2000/svg" xmlns:xlink="http://www.w3.org/1999/xlink" x="0px" y="0px"
	 viewBox="0 0 511.999 511.999" style="enable-background:new 0 0 511.999 511.999;" xml:space="preserve">
<g>
	<path style="fill:#A78966;" d="M124.121,385.618v69.818c0,12.854,10.42,23.273,23.273,23.273c12.853,0,23.273-10.418,23.273-23.273
		v-69.818h-23.273H124.121z"/>
	<path style="fill:#A78966;" d="M302.545,385.618v69.818c0,12.854,10.42,23.273,23.273,23.273c12.853,0,23.273-10.418,23.273-23.273
		v-69.818h-23.273H302.545z"/>
</g>
<path style="fill:#317F46;" d="M346.357,45.619c-4.042-7.588-11.94-12.33-20.539-12.33c-8.598,0-16.497,4.741-20.539,12.33
	L217.35,210.665l13.16,24.793l13.16,24.793l41.84,78.822l6.006,11.315c2.096,3.496,3.302,7.587,3.302,11.958
	c0,12.854-10.418,23.273-23.273,23.273h31.001h23.273h23.273h139.636c8.173,0,15.746-4.287,19.952-11.295
	c4.208-7.008,4.428-15.708,0.586-22.921L346.357,45.619z"/>
<path style="fill:#79AB03;" d="M285.51,339.073l-41.84-78.822l-13.16-24.793l-13.16-24.793l-49.4-93.063
	c-4.039-7.607-11.945-12.362-20.556-12.362s-16.517,4.755-20.556,12.361L2.716,351.432c-3.829,7.215-3.596,15.906,0.611,22.905
	c4.208,6.999,11.778,11.28,19.943,11.28h100.848h23.273h23.273h100.848h0.031c12.854,0,23.273-10.418,23.273-23.273
	c0-4.371-1.206-8.464-3.302-11.958L285.51,339.073z"/>
<g>
</g>
<g>
</g>
<g>
</g>
<g>
</g>
<g>
</g>
<g>
</g>
<g>
</g>
<g>
</g>
<g>
</g>
<g>
</g>
<g>
</g>
<g>
</g>
<g>
</g>
<g>
</g>
<g>
</g>
</svg>
