<?xml version="1.0" encoding="utf-8"?>
<!-- Generator: Adobe Illustrator 21.0.0, SVG Export Plug-In . SVG Version: 6.00 Build 0)  -->
<!DOCTYPE svg PUBLIC "-//W3C//DTD SVG 1.1//EN" "http://www.w3.org/Graphics/SVG/1.1/DTD/svg11.dtd">
<svg version="1.1" id="Layer_1" xmlns="http://www.w3.org/2000/svg" xmlns:xlink="http://www.w3.org/1999/xlink" x="0px" y="0px"
	 viewBox="0 0 75.3 75.3" style="enable-background:new 0 0 75.3 75.3;" xml:space="preserve">
<style type="text/css">
	.st0{fill:#3D803D;}
	.st1{fill:#4AA146;}
</style>
<path class="st0" d="M45.4,7.7c0,0,4.7,11.4-15.3,19.1C19.2,31,10.9,41.6,20.9,58.1c0.8-7.4,4.4-23.6,19.6-27.3
	c0,0-14.2,5.3-15.4,29.3c7.3,1,24.3,1.7,29.4-13.1C61.1,27.4,45.4,7.7,45.4,7.7z"/>
<path class="st1" d="M25,60c15.8-6.3,26.6-20.9,28.2-37.8c-1.9-5.1-4.6-10-7.8-14.4c0,0,4.7,11.4-15.3,19.1
	c-10.9,4.2-19.2,14.8-9.2,31.3c0.8-7.4,4.4-23.6,19.6-27.3C40.4,30.8,26.3,36.1,25,60z"/>
<circle class="st0" cx="19.3" cy="25.8" r="1.4"/>
<circle class="st1" cx="23.8" cy="24.3" r="1"/>
<circle class="st1" cx="22.9" cy="14.5" r="2.6"/>
<circle class="st1" cx="30.8" cy="20.4" r="0.8"/>
<circle class="st1" cx="37.8" cy="15.7" r="2.4"/>
</svg>
