<?xml version="1.0" encoding="iso-8859-1"?>
<!-- Generator: Adobe Illustrator 19.0.0, SVG Export Plug-In . SVG Version: 6.00 Build 0)  -->
<svg version="1.1" id="Capa_1" xmlns="http://www.w3.org/2000/svg" xmlns:xlink="http://www.w3.org/1999/xlink" x="0px" y="0px"
	 viewBox="0 0 387.439 387.439" style="enable-background:new 0 0 387.439 387.439;" xml:space="preserve">
<path style="fill:#ED664C;" d="M337.598,195.924c8.9,18.3,8.9,39.6,2.1,58.4c-6.3,19.3-18.3,35.5-32.9,49.6
	c-20.9,19.8-46.4,34.9-74.6,41.7c-28.2,6.8-57.9,5.7-85-4.2c-9.9-3.7-20.3-8.9-27.6-16.7c-18.3-19.8-11.5-47.5,13.6-56.9
	c7.8-3.1,16.2-4.2,24.5-4.7c32.3-2.1,63.6-4.2,94.4-16.2c26.1-9.9,50.1-26.6,65.2-50.1c2.6-4.7,6.8-9.9,12-9.4
	C332.898,188.024,336.098,192.224,337.598,195.924z"/>
<path d="M42.198,284.724c6.9-4,13.6-4.6,22-5.3c1.5-0.1,3-0.3,4.5-0.4c13.6-1.3,23.4-9.3,32.2-16.3c3.6-2.9,7-5.6,10.5-7.8
	c6.9-4.4,14.2-7.7,22-11.1c8.9-4,18.2-8.1,26.8-14.1c18.2-12.8,34.4-34.4,40.6-43.2c10.4-15.2,16.1-32,21.5-48.2
	c1.4-4.2,2.9-8.5,4.4-12.8c0.4-0.7,1.1-2.1,1.9-3.4c5.7-10.3,13.5-24.4,4.1-31.9c-0.1-0.1-0.2-0.2-0.3-0.2
	c-29-21-35.3-69.9-35.4-70.6c-0.5-4.4-4.5-7.5-8.9-7s-7.5,4.5-7,8.9c0.3,2.2,6.8,54.2,39.7,80c-1,3.6-4.8,10.6-6.2,13.1
	c-1.1,2-2,3.6-2.6,4.9c-0.1,0.2-0.2,0.4-0.2,0.5c-1.6,4.5-3.1,9-4.6,13.4c-5.3,15.9-10.3,30.8-19.4,44.1
	c-11.8,16.7-25.5,31.4-36.6,39.2c-7.4,5.1-15.6,8.8-24.2,12.6c-7.9,3.6-16.2,7.2-24,12.2c-4.3,2.7-8.2,5.8-12,8.9
	c-7.6,6.2-14.9,12-23.7,12.9c-1.5,0.1-2.9,0.3-4.3,0.4c-9.1,0.8-18.6,1.6-28.7,7.5c-35.4,20.9-34.6,69-34.2,92.1
	c0.1,4.4,3.6,7.9,8,7.9h0.1c4.4,0,7.9-3.7,7.9-8.2C15.398,330.524,18.198,298.824,42.198,284.724z"/>
<path d="M292.798,62.724c-0.1,0-0.2,0-0.4,0c-2-0.2-3.9-0.2-5.7-0.2c-3.7-0.1-7.1-0.1-9.1-1.3c-0.1,0-0.1-0.1-0.2-0.1
	c-6.4-3.6-31.6-32.5-33-53c-0.3-4.4-4.1-7.7-8.5-7.5c-4.4,0.3-7.7,4.1-7.5,8.5c1.7,26.6,29.9,59.5,41,65.9c5.6,3.3,11.6,3.4,17,3.5
	c1.6,0,3.1,0,4.5,0.2c28.4,3.7,49.9,19,64,45.3c11.7,22,17.6,50.7,16.5,81c-3.1,76.4-40.9,131.8-106.5,156.1
	c-18.6,7-83.3,21.1-135.4-5.9c0,0-0.1,0-0.1-0.1c-9.6-4.8-18.4-12.8-28-25.3l-0.1-0.2c-7.5-10.1-17.7-24-37.8-16.1
	c-22.3,8.4-22.3,40.7-22.3,54.4c0,4.4,3.6,8,8,8s8-3.6,8-8c0-9.6,0-34.9,12-39.5h0.1c7.9-3.1,10.9-0.6,19.2,10.6l0.2,0.2l0.1,0.1
	c11,14.5,21.7,24,33.5,29.9c22.6,11.7,49,17.6,78.4,17.6c4.1,0,8.2-0.1,12.4-0.3c27-1.5,48.9-7.4,57.4-10.7
	c36.2-13.4,64.7-35.4,84.9-65.5c19.5-29.1,30.3-64.5,31.9-105c1.2-33.1-5.3-64.7-18.3-89.2
	C352.598,85.624,326.198,67.124,292.798,62.724z"/>
<path d="M130.298,260.424c-14.5,5.5-24.7,16.5-27.9,30.2c-3.3,13.7,0.9,28.1,11.4,39.6c7.1,7.6,17.2,13.7,30.7,18.7
	c16.4,6,33.8,9,51.6,9c12.6,0,25.4-1.5,38.1-4.6c28.2-6.8,55.3-21.9,78.3-43.7c17.4-16.8,28.8-34,34.9-52.7
	c7.8-21.7,6.9-45.1-2.4-64.4c-1.3-3-5.8-11.7-14.5-12.9c-0.1,0-0.2,0-0.3,0c-4.3-0.4-12.6,0.7-19.7,13.2
	c-16.7,25.7-42.5,39.6-61.3,46.8c-29.8,11.6-60,13.6-92,15.6C149.098,255.724,139.498,256.724,130.298,260.424z M254.898,254.524
	c38.1-14.5,58.6-36.9,69.1-53.2c0.1-0.1,0.2-0.3,0.3-0.4c1.7-3,3.1-4.5,3.9-5c0.6,0.6,1.4,1.8,2.1,3.3c0,0.1,0.1,0.2,0.2,0.3
	c7.5,15.5,8.2,34.5,1.8,52.2c0,0.1-0.1,0.2-0.1,0.2c-5.3,16.2-15.3,31.3-30.8,46.2c-20.9,19.9-45.4,33.6-71,39.8
	c-27.5,6.6-55.3,5.3-80.4-3.9c-11-4.1-19.3-9-24.5-14.6c-6.8-7.4-9.6-16.5-7.6-25s8.6-15.4,18.1-19c0.1,0,0.1,0,0.2-0.1
	c7.2-2.9,15.2-3.7,22.1-4.1C189.998,269.124,222.898,267.024,254.898,254.524z"/>
<g>
</g>
<g>
</g>
<g>
</g>
<g>
</g>
<g>
</g>
<g>
</g>
<g>
</g>
<g>
</g>
<g>
</g>
<g>
</g>
<g>
</g>
<g>
</g>
<g>
</g>
<g>
</g>
<g>
</g>
</svg>
