<?xml version="1.0" encoding="utf-8"?>
<!-- Generator: Adobe Illustrator 22.0.0, SVG Export Plug-In . SVG Version: 6.00 Build 0)  -->
<!DOCTYPE svg PUBLIC "-//W3C//DTD SVG 1.1//EN" "http://www.w3.org/Graphics/SVG/1.1/DTD/svg11.dtd">
<svg version="1.1" id="Capa_1" xmlns="http://www.w3.org/2000/svg" xmlns:xlink="http://www.w3.org/1999/xlink" x="0px" y="0px"
	 viewBox="0 0 512 512" style="enable-background:new 0 0 512 512;" xml:space="preserve">
<style type="text/css">
	.st0{fill:#FFCA28;}
	.st1{fill:#6D4C41;}
	.st2{fill:#FAFAFA;}
	.st3{fill:#F4EAC1;}
	.st4{fill:#FFAE39;}
</style>
<g>
	<circle class="st0" cx="256" cy="256" r="256"/>
	<g>
		<path class="st1" d="M399.7,208.3c-8.8,0-16-7.2-16-16c0-17.6-14.3-32-32-32s-32,14.4-32,32c0,8.8-7.2,16-16,16s-16-7.2-16-16
			c0-35.3,28.7-64,64-64s64,28.7,64,64C415.7,201.2,408.5,208.3,399.7,208.3z"/>
		<path class="st1" d="M207.7,208.3c-8.8,0-16-7.2-16-16c0-17.6-14.4-32-32-32s-32,14.4-32,32c0,8.8-7.2,16-16,16s-16-7.2-16-16
			c0-35.3,28.7-64,64-64s64,28.7,64,64C223.7,201.2,216.5,208.3,207.7,208.3z"/>
	</g>
	<path class="st2" d="M437.7,294.7c-3-4-7.7-6.4-12.7-6.4H86.4c-5,0-9.7,2.3-12.7,6.3c-3.1,4-4,9.2-2.7,14
		c23.1,82.2,99.1,139.6,184.7,139.6s161.5-57.4,184.7-139.6C441.7,303.8,440.7,298.7,437.7,294.7z"/>
	<path class="st3" d="M391,386.4c-11.5-27.3-12.7-39.3-19.4-45.8c-6.5-6.7-18.5-8-45.8-19.4c27.3-11.5,39.3-12.7,45.8-19.4
		c6.7-6.5,8-18.5,19.4-45.8c11.5,27.3,12.7,39.3,19.4,45.8c6.5,6.7,18.5,8,45.8,19.4c-27.3,11.5-39.3,12.7-45.8,19.4
		C403.7,347.1,402.4,359.1,391,386.4z"/>
	<path class="st4" d="M391,386.4c11.5-27.3,12.7-39.3,19.4-45.8c6.5-6.7,18.5-8,45.8-19.4c-27.3-11.5-39.3-12.7-45.8-19.4
		c-6.7-6.5-8-18.5-19.4-45.8L391,386.4L391,386.4L391,386.4z"/>
</g>
</svg>
