<?xml version="1.0" encoding="iso-8859-1"?>
<!-- Generator: Adobe Illustrator 19.0.0, SVG Export Plug-In . SVG Version: 6.00 Build 0)  -->
<svg version="1.1" id="Capa_1" xmlns="http://www.w3.org/2000/svg" xmlns:xlink="http://www.w3.org/1999/xlink" x="0px" y="0px"
	 viewBox="0 0 512 512" style="enable-background:new 0 0 512 512;" xml:space="preserve">
<path style="fill:#FFEFCF;" d="M424.078,111.718c0-57.55-48.455-104.204-120.235-104.204c-32.232,0-60.792,17.092-79.906,40.078
	C204.823,24.607,175.762,7.515,143.53,7.515c-71.78,0-120.235,46.653-120.235,104.204c0,128.25,84.449,113.998,56.11,176.344
	c-40.078,88.172,0.462,216.423,32.063,216.423c32.063,0,24.047-176.344,112.219-176.344s80.157,176.344,112.219,176.344
	c31.601,0,72.141-128.25,32.063-216.423C339.629,225.716,424.078,239.969,424.078,111.718z"/>
<g>
	<path style="fill:#FFE5AB;" d="M111.468,288.063c28.339-62.347-56.11-48.094-56.11-176.344c0-52.519,40.357-95.954,101.964-103.149
		c-4.518-0.684-9.12-1.054-13.792-1.054c-71.78,0-120.235,46.653-120.235,104.204c0,128.25,84.449,113.998,56.11,176.344
		c-40.078,88.172,0.462,216.423,32.063,216.423c5.369,0,9.615-4.952,13.376-13.187C99.267,456.366,79.14,359.185,111.468,288.063z"
		/>
	<path style="fill:#FFE5AB;" d="M159.562,87.671c8.016,0,62.233,19.816,80.157-16.031c24.047-48.094,59.468-59.578,82.412-63.07
		c-5.907-0.69-12.005-1.055-18.287-1.055c-24.185,0-48.104,7.68-63.914,24.139C212.129,60.596,199.64,87.671,159.562,87.671z"/>
	<path style="fill:#FFE5AB;" d="M255.75,328.141c-5.74,0-11.069,0.753-16.031,2.151c71.263,20.068,66.212,174.193,96.188,174.193
		c6.111,0,12.555-4.812,18.686-13.187C335.894,450.36,329.155,328.141,255.75,328.141z"/>
</g>
<path style="fill:#AED45B;" d="M376.485,103.703L264.266,127.75c0,0,0,96.188,0,128.25c0,64.125,97.021,114.775,112.219,120.235
	c15.198-5.46,112.219-56.11,112.219-120.235c0-32.063,0-128.25,0-128.25L376.485,103.703z"/>
<path style="fill:#9AC932;" d="M400.532,360.204c-15.198-5.46-112.219-56.11-112.219-120.235c0-25.449,0-91.289,0-117.372
	l-24.047,5.153c0,0,0,96.188,0,128.25c0,64.125,97.021,114.775,112.219,120.235c6.639-2.385,28.894-13.395,51.853-30.384
	C415.309,353.671,404.758,358.686,400.532,360.204z"/>
<path style="fill:#F0F0ED;" d="M376.485,340.809c-10.578-5.654-26.74-15.382-41.967-27.883
	c-24.627-20.221-38.19-40.437-38.19-56.924V153.669l80.157-17.177l80.157,17.177V256c0,16.487-13.563,36.704-38.19,56.924
	C403.226,325.427,387.063,335.155,376.485,340.809z"/>
<path style="fill:#E8E8E4;" d="M358.565,304.181c-24.627-20.222-38.19-40.437-38.19-56.924v-98.74l-24.047,5.153V256
	c0,16.487,13.563,36.704,38.19,56.924c15.227,12.502,31.389,22.23,41.967,27.883c5.291-2.829,11.98-6.676,19.252-11.381
	C385.409,323.606,371.647,314.921,358.565,304.181z"/>
<path style="fill:#FFCA58;" d="M404.392,189.457l-36.827,42.966l-19.822-19.821l-22.671,22.671l32.063,32.063
	c6.508,6.51,17.52,6.084,23.508-0.902l48.094-56.11L404.392,189.457z"/>
<path d="M490.279,120.401l-58.764-12.592c-1.051-29.383-13.935-56.344-36.418-76.078C371.781,11.269,339.374,0,303.843,0
	c-29.216,0-57.916,13.129-79.917,36.299C202.054,13.434,172.568,0,143.53,0c-35.968,0-68.657,11.518-92.045,32.433
	c-23.025,20.591-35.705,48.748-35.705,79.285c0,71.848,25.72,101.039,44.501,122.352c15.553,17.651,23.36,26.512,12.282,50.882
	C40.122,356.324,58.66,452.45,83.875,491.609C92.587,505.14,101.87,512,111.468,512c17.894,0,24.526-25.898,33.703-61.74
	c6.597-25.763,14.073-54.963,26.542-77.746c13.574-24.802,30.575-36.859,51.975-36.859s38.401,12.057,51.974,36.859
	c12.467,22.781,19.945,51.983,26.542,77.746c9.177,35.842,15.809,61.74,33.703,61.74c19.308,0,33.069-27.885,39.553-44.507
	c10.177-26.088,16.207-58.818,16.698-90.26c32.039-16.555,104.062-62.93,104.062-121.233V127.75
	C496.219,124.207,493.743,121.144,490.279,120.401z M481.19,256c0,30.896-25.912,58.544-47.649,76.296
	c-22.961,18.752-47.582,31.724-57.055,35.839c-9.473-4.114-34.095-17.087-57.055-35.839c-21.736-17.753-47.649-45.401-47.649-76.296
	v-60.618c0-4.151-3.364-7.515-7.515-7.515s-7.515,3.364-7.515,7.515V256c0,69.322,101.828,121.787,117.193,127.308
	c0.822,0.295,1.681,0.442,2.541,0.442c0.152,0,0.303-0.03,0.455-0.039c-1.144,27.596-6.649,55.674-15.483,78.32
	c-9.365,24.007-19.811,34.94-25.551,34.94c-0.03,0-3.107-0.133-7.78-11.674c-3.912-9.664-7.532-23.798-11.364-38.764
	c-13.605-53.136-32.238-125.907-93.075-125.907s-79.47,72.771-93.076,125.906c-3.832,14.966-7.452,29.101-11.364,38.764
	c-4.672,11.542-7.749,11.675-7.779,11.675c-3.029,0-8.549-3.546-14.956-13.497c-12.206-18.956-21.807-51.443-25.056-84.787
	c-3.881-39.812,1.373-77.995,14.791-107.515c15.103-33.227,1.298-48.896-14.688-67.037C53.404,203.532,30.81,177.889,30.81,111.718
	c0-56.025,47.406-96.689,112.72-96.689c25.496,0,51.537,12.211,70.718,32.916c-0.373,0.535-0.75,1.076-1.118,1.604
	c-12.814,18.431-21.28,30.607-53.569,30.607c-4.15,0-7.515,3.364-7.515,7.515c0,4.151,3.365,7.515,7.515,7.515
	c40.144,0,52.084-17.173,65.909-37.056c1.12-1.611,2.273-3.262,3.456-4.931c0.279-0.248,0.547-0.51,0.789-0.802
	c19.749-23.747,46.766-37.368,74.129-37.368c62.135,0,108.519,37.33,112.448,89.517l-38.232-8.192c-1.037-0.221-2.111-0.221-3.149,0
	l-112.219,24.047c-3.465,0.742-5.941,3.805-5.941,7.348v32.564c0,4.151,3.364,7.515,7.515,7.515s7.515-3.364,7.515-7.515v-26.489
	l104.704-22.438l104.704,22.438V256H481.19z"/>
<path d="M374.911,129.145l-80.157,17.177c-3.465,0.742-5.941,3.805-5.941,7.348V256c0,19.051,14.156,40.744,40.936,62.733
	c17.054,14.002,34.381,23.993,43.192,28.702c2.192,1.172,4.893,1.172,7.084,0c8.811-4.709,26.139-14.701,43.193-28.702
	C450,296.744,464.155,275.05,464.155,256V153.669c0-3.543-2.476-6.606-5.941-7.348l-80.157-17.177
	C377.022,128.924,375.948,128.924,374.911,129.145z M449.127,159.745V256c0,13.99-12.919,32.623-35.443,51.117
	c-14.018,11.509-28.268,20.159-37.199,25.131c-8.93-4.972-23.18-13.622-37.198-25.131c-22.525-18.494-35.444-37.126-35.444-51.117
	v-96.255l72.642-15.566L449.127,159.745z"/>
<path d="M353.056,207.288c-2.934-2.934-7.692-2.934-10.627,0l-22.671,22.671c-2.935,2.936-2.935,7.693,0,10.628l32.063,32.062
	c9.488,9.49,25.796,8.86,34.527-1.325l48.094-56.11c2.7-3.151,2.336-7.895-0.815-10.596l-24.345-20.867
	c-3.108-2.664-7.932-2.294-10.596,0.815l-31.546,36.804L353.056,207.288z M373.27,237.314l31.936-37.261l12.933,11.086
	l-43.203,50.404c-3.119,3.639-9.1,3.869-12.488,0.479l-26.749-26.748l12.044-12.045l14.508,14.507
	C365.301,240.787,370.462,240.59,373.27,237.314z"/>
<g>
</g>
<g>
</g>
<g>
</g>
<g>
</g>
<g>
</g>
<g>
</g>
<g>
</g>
<g>
</g>
<g>
</g>
<g>
</g>
<g>
</g>
<g>
</g>
<g>
</g>
<g>
</g>
<g>
</g>
</svg>
