<?xml version="1.0" encoding="iso-8859-1"?>
<!-- Generator: Adobe Illustrator 19.0.0, SVG Export Plug-In . SVG Version: 6.00 Build 0)  -->
<svg version="1.1" id="Layer_1" xmlns="http://www.w3.org/2000/svg" xmlns:xlink="http://www.w3.org/1999/xlink" x="0px" y="0px"
	 viewBox="0 0 512 512" style="enable-background:new 0 0 512 512;" xml:space="preserve">
<path style="fill:#2EE6C7;" d="M256,479.002c-4.441,0-8.653-1.968-11.504-5.374l-241-288c-4.166-4.979-4.656-12.072-1.216-17.577
	l80-128c2.741-4.386,7.548-7.05,12.72-7.05h322c5.172,0,9.979,2.664,12.72,7.05l80,128c3.44,5.505,2.95,12.598-1.216,17.577
	l-241,288C264.653,477.034,260.441,479.002,256,479.002z"/>
<path style="fill:#29CCB1;" d="M429.72,40.051c-2.741-4.386-7.548-7.05-12.72-7.05H256v446c4.441,0,8.653-1.968,11.504-5.374
	l241-288c4.166-4.979,4.656-12.072,1.216-17.577L429.72,40.051z"/>
<path style="fill:#B8ECF1;" d="M497,161.002H389.352L430.99,53.416c2.989-7.726-0.85-16.413-8.575-19.403
	c-7.73-2.991-16.413,0.85-19.403,8.575l-40.845,105.538L267.358,38.205c-2.85-3.304-6.996-5.203-11.358-5.203
	c-4.362,0-8.509,1.899-11.358,5.203l-94.807,109.921L108.989,42.587c-2.991-7.726-11.678-11.567-19.403-8.575
	c-7.726,2.99-11.564,11.677-8.575,19.403l41.638,107.586H15c-8.284,0-15,6.716-15,15s6.716,15,15,15h119.259L242.01,469.415
	c2.282,5.881,7.929,9.57,13.948,9.588c0.012,0,0.025,0.002,0.038,0.002c0.001,0,0.003,0,0.004,0c0.001,0,0.003,0,0.004,0
	c0.012,0,0.025-0.002,0.038-0.002c6.103-0.019,11.709-3.802,13.948-9.588l107.751-278.414H497c8.284,0,15-6.716,15-15
	S505.284,161.002,497,161.002z M256,70.968l77.655,90.034H178.346L256,70.968z M256,422.441l-89.572-231.44h179.144L256,422.441z"/>
<path style="fill:#AEDDE2;" d="M256.042,479.004c6.103-0.019,11.709-3.802,13.948-9.588l107.751-278.414H497c8.284,0,15-6.716,15-15
	s-6.716-15-15-15H389.352L430.99,53.416c2.989-7.726-0.85-16.413-8.575-19.403c-7.73-2.991-16.413,0.85-19.403,8.575
	l-40.845,105.538L267.358,38.205c-2.85-3.304-6.996-5.203-11.358-5.203v37.966l77.655,90.034H256v30h89.572L256,422.441v56.564
	c0.001,0,0.003,0,0.004,0C256.016,479.005,256.029,479.004,256.042,479.004z"/>
<g>
</g>
<g>
</g>
<g>
</g>
<g>
</g>
<g>
</g>
<g>
</g>
<g>
</g>
<g>
</g>
<g>
</g>
<g>
</g>
<g>
</g>
<g>
</g>
<g>
</g>
<g>
</g>
<g>
</g>
</svg>
