<?xml version="1.0" encoding="utf-8"?>
<!-- Generator: Adobe Illustrator 21.0.0, SVG Export Plug-In . SVG Version: 6.00 Build 0)  -->
<!DOCTYPE svg PUBLIC "-//W3C//DTD SVG 1.1//EN" "http://www.w3.org/Graphics/SVG/1.1/DTD/svg11.dtd">
<svg version="1.1" id="Layer_1" xmlns="http://www.w3.org/2000/svg" xmlns:xlink="http://www.w3.org/1999/xlink" x="0px" y="0px"
	 viewBox="0 0 75.3 75.3" style="enable-background:new 0 0 75.3 75.3;" xml:space="preserve">
<style type="text/css">
	.st0{fill:#6BCDE9;}
	.st1{fill:#5CBDE3;}
</style>
<path class="st0" d="M40.9,34.1L40.9,34.1L28.8,10.8c-0.1-0.1-0.1-0.2-0.3-0.2s-0.2,0.1-0.3,0.2L16.2,34l0,0
	c-1.3,3.4-1.1,7.1,0.4,10.4c1.5,3.3,4.2,5.8,7.6,7.1c1.4,0.5,2.8,0.8,4.3,0.9l0,0c1.5,0,2.9-0.3,4.3-0.9c3.4-1.3,6.1-3.8,7.6-7.1
	C42,41.2,42.2,37.5,40.9,34.1z"/>
<path class="st1" d="M29.5,50.1c-2.9-2.8-4.5-6.7-4.5-10.7l0,0l3.2-28.3l-12,23l0,0c-1.3,3.4-1.1,7.1,0.4,10.4
	c1.5,3.3,4.2,5.8,7.6,7.1c1.4,0.5,2.8,0.8,4.3,0.9l0,0c1.1,0,2.2-0.2,3.2-0.5C31,51.4,30.2,50.8,29.5,50.1z"/>
<path class="st1" d="M59.6,40.3L59.6,40.3l-6-11.5c-0.1-0.1-0.1-0.2-0.3-0.2s-0.2,0.1-0.3,0.2l-5.9,11.5l0,0
	c-0.6,1.7-0.6,3.6,0.2,5.2c0.8,1.6,2.1,2.9,3.8,3.6c0.7,0.3,1.4,0.4,2.2,0.4l0,0c0.7,0,1.5-0.2,2.2-0.4C59,47.8,60.9,43.9,59.6,40.3
	C59.6,40.4,59.6,40.3,59.6,40.3z"/>
<path class="st1" d="M47.7,58.4l-4-7.6c-0.1-0.1-0.1-0.2-0.3-0.2s-0.2,0.1-0.3,0.2l-4,7.6l0,0c-0.9,2.4,0.3,5.1,2.7,6
	c0.5,0.2,1,0.3,1.5,0.3l0,0c0.5,0,1-0.1,1.5-0.3c2.4-0.7,3.7-3.3,3-5.6C47.8,58.6,47.7,58.5,47.7,58.4L47.7,58.4z"/>
<g>
</g>
<g>
</g>
<g>
</g>
<g>
</g>
<g>
</g>
<g>
</g>
</svg>
